<?xml version="1.0" encoding="utf-8"?>
<!-- Generator: Adobe Illustrator 15.0.0, SVG Export Plug-In  -->
<!DOCTYPE svg PUBLIC "-//W3C//DTD SVG 1.1//EN" "http://www.w3.org/Graphics/SVG/1.1/DTD/svg11.dtd" [
	<!ENTITY ns_flows "http://ns.adobe.com/Flows/1.0/">
]>
<svg version="1.1"
	 xmlns="http://www.w3.org/2000/svg" xmlns:xlink="http://www.w3.org/1999/xlink" xmlns:a="http://ns.adobe.com/AdobeSVGViewerExtensions/3.0/"
	 x="0px" y="0px" width="709px" height="852px" viewBox="0.548 0.548 709 852"
	 overflow="visible" enable-background="new 0.548 0.548 709 852" xml:space="preserve">
<defs>
</defs>
<rect x="0.548" y="0.548" stroke="#000000" stroke-width="1.0953" stroke-miterlimit="10" width="709.29" height="852.378"/>
<g>
	<g>
		<path fill="#F90606" d="M358.219,60.278c21.379,4.296,43.07,7.344,64.73,9.779c35.266,3.965,73.106,7.286,108.029-0.849
			c11.4-2.655,25.084-7.562,31.85-17.825c5.501-8.345-1.438-15.911-8.914-19.28c-11.177-5.037-23.844-6.615-35.894-8.103
			c-13.396-1.654-26.896-2.496-40.378-3.034c-13.003-0.52-26.027-0.687-39.038-0.368c-13.631,0.334-27.275,1.144-40.807,2.858
			c-12.44,1.577-25.855,3.463-36.986,9.632c-4.28,2.372-8.196,5.99-9.5,10.849c-1.502,5.596,1.337,10.812,4.701,15.055
			c4.005,5.052,11.032-2.075,7.071-7.071c-1.343-1.695-1.753-2.576-2.158-4.328c0.071,0.307,0.089-1.487-0.054-0.612
			c0.249-1.529-0.127-0.411,0.685-1.758c0.292-0.484,1.793-1.917,2.91-2.658c2.012-1.334,4.139-2.295,6.295-3.112
			c12.38-4.69,26.095-6.129,39.188-7.298c16.172-1.443,32.43-1.846,48.661-1.678c23.363,0.242,47.066,1.177,70.13,5.09
			c5.764,0.978,11.514,2.206,17.069,4.043c3.6,1.19,6.887,2.607,8.916,4.958c-0.599-0.694,0.225,0.713,0.001,0.07
			c0.391,1.122,0.16-0.8,0.05,0.835c0.076-1.124-0.342,0.495-0.172,0.157c-0.67,1.329-0.63,1.093-1.36,1.897
			c-3.575,3.942-8.674,6.635-13.556,8.567c-14.781,5.851-31.312,7.046-47.038,7.548c-18.872,0.603-37.794-0.508-56.581-2.241
			c-24.912-2.298-49.795-5.81-74.354-10.602c-0.28-0.055-0.56-0.109-0.839-0.166C354.581,49.37,351.899,59.008,358.219,60.278z"/>
	</g>
</g>
<g>
	<g>
		<path fill="#F90606" d="M337.085,284.554c-3.408,0.185-4.747-2.859-4.781-4.579c0.008,0.393-0.179,1.162,0.117-0.75
			c-0.068,0.44-0.185,0.874-0.297,1.303c-0.398,1.516-0.919,3.002-1.438,4.479c-1.656,4.723-3.544,9.367-5.451,13.993
			c-5.732,13.903-12.022,27.587-18.558,41.129c-7.273,15.07-14.952,29.977-23.474,44.382c-5.912,9.994-12.222,21.056-21.198,28.671
			c-0.213,0.181-0.534,0.437-1.467,1.026c-0.326,0.206-0.666,0.386-1.006,0.564c-1.097,0.574,1.007-0.355-0.092,0.042
			c-0.3,0.108-0.611,0.18-0.922,0.25c-1.061,0.238,1.186-0.12-0.232,0.024c-1.178,0.12-2.365,0.145-3.548,0.161
			c-6.148,0.082-12.323-0.579-18.429-1.219c-17.256-1.809-34.421-4.43-51.635-6.592c-7.732-0.972-71.37-12.145-64.78,9.312
			c2.268,7.385,10.861,13.201,16.558,17.741c11.131,8.872,22.857,16.997,34.581,25.057c27.356,18.809,55.336,36.751,82.128,56.37
			c8.853,6.483,18.034,13.121,25.489,21.237c1.623,1.767,1.265,1.289,2.324,2.964c0.245,0.388,1.057,2.228,0.41,0.605
			c0.59,1.479,0.158-0.133,0.168,0.344c0.023,0.999-0.215,2.309-0.035,1.052c-0.174,1.212-0.415,2.416-0.663,3.615
			c-4.248,20.502-11.029,40.636-17.172,60.62c-18.914,61.526-39.118,122.664-59.402,183.749
			c-6.033,18.169-12.083,36.331-18.193,54.474c-2.064,6.129,7.596,8.736,9.643,2.658c13.41-39.819,26.615-79.708,39.685-119.64
			c18.278-55.843,37.574-111.727,52.519-168.582c1.489-5.665,3.311-11.621,3.612-17.511c0.358-6.998-7.27-13.188-11.918-17.335
			c-22.344-19.933-48.473-36.028-73.235-52.714c-13.773-9.28-27.569-18.533-41.164-28.074c-10-7.019-20.112-14.091-29.216-22.267
			c-1.435-1.288-2.824-2.627-4.143-4.034c-1.677-1.788-1.113-0.981-2.214-2.839c-0.823-1.389,0.13,0.661-0.181-0.354
			c-0.183-0.595,0.05,0.681-0.045,1.114c0.076-0.347-0.935,1.155-0.047,0.364c-0.5,0.445,0.174-0.022,0.722-0.211
			c4.502-1.551,9.575-1.34,14.706-1.262c7.682,0.118,15.356,0.819,22.995,1.598c17.796,1.814,35.5,4.447,53.24,6.725
			c12.284,1.578,25.682,4.261,38.102,2.78c9.701-1.157,16.428-11.1,21.683-18.37c8.939-12.367,16.314-25.906,23.398-39.393
			c10.309-19.625,19.747-39.746,28.385-60.16c2.878-6.803,5.749-13.635,8.141-20.628c1.311-3.831,3.46-12.276-3.667-11.889
			C330.672,274.902,330.638,284.904,337.085,284.554L337.085,284.554z"/>
	</g>
</g>
<g>
	<g>
		<path fill="#F90606" d="M645.96,844.577c-7.146-41.496-14.291-82.993-21.437-124.489c-9.05-52.556-18.1-105.112-27.149-157.668
			c-0.403-2.345-0.807-4.689-1.211-7.034c-1.093-6.346-10.729-3.647-9.643,2.658c7.146,41.496,14.291,82.993,21.437,124.489
			c9.05,52.556,18.1,105.112,27.149,157.668c0.403,2.345,0.807,4.689,1.211,7.034C637.41,853.581,647.046,850.883,645.96,844.577
			L645.96,844.577z"/>
	</g>
</g>
<g>
	<g>
		<path fill="#F90606" d="M562.362,323.309c-12.703,6.381-25.405,12.763-38.107,19.145c-5.773,2.9-0.707,11.469,5.047,8.635
			c14.623-7.203,29.247-14.406,43.87-21.609c3.035-1.495,6.071-2.99,9.107-4.486c0.653-0.322,1.308-0.644,1.962-0.966
			c1.106-0.545,5.891,3.561,7.029,4.305c7.77,5.075,15.37,10.401,23.248,15.342c8.594,5.39,17.102,10.892,24.832,17.489
			c-0.488-1.179-0.977-2.357-1.465-3.536c3.628,27.045,8.088,53.992,10.413,81.196c0.522,6.113,1.312,11.831,2.641,17.825
			c1.533,6.914,1.866,14.041,2.634,21.073c1.421,13.015,3.228,25.987,5.271,38.918c4.305,27.234,7.191,54.669,10.668,82.022
			c3.428,26.969,8.536,53.913,10.663,80.966c3.273-0.443,6.548-0.886,9.821-1.329c-0.119-0.524-0.237-1.049-0.356-1.573
			c-3.273,0.443-6.548,0.886-9.821,1.329c0.264,0.952,0.442,1.919,0.535,2.902c3.046-1.284,6.093-2.568,9.139-3.853
			c-30.184-41.799-62.352-82.098-93.834-122.912c-3.292-4.268-10.658-2.031-9.139,3.853c0.695,2.691,2.096,4.79,4.208,6.591
			c4.45,3.797,10.201-0.871,7.853-6.059c-0.916-2.024-2.328-3.667-3.704-5.396c-2.313-2.908-7.64-1.247-8.356,2.206
			c-13.526,65.132-29.398,129.749-43,194.865c3.046-0.398,6.093-0.796,9.139-1.194c0.35,0.58-0.457,1.694-0.695,1.921
			c-1.179,0.488-2.357,0.977-3.535,1.464c0.061,0.001,0.122,0.001,0.184,0.001c-1.438-0.825-2.878-1.651-4.317-2.477
			c-0.457-1.43-0.716-1.335-0.774,0.285c2.785-0.735,5.571-1.471,8.356-2.206c-13.993-16.531-29.771-31.371-44.984-46.748
			c-7.654-7.737-14.692-15.712-21.472-24.205c-3.063-3.84-6.794-6.817-10.68-9.781c-3.809-2.904-6.662-8.61-9.742-12.312
			c-7.189-8.644-16.185-16.086-24.128-24.046c-8.044-8.061-15.975-16.235-23.871-24.44c-7.915-8.226-15.808-16.436-23.35-24.999
			c-7.16-8.13-14.984-15.684-21.447-24.409c0.168,1.284,0.336,2.568,0.504,3.853c11.78-37.069,22.806-74.37,33.865-111.658
			c5.554-18.725,11.127-37.443,16.81-56.129c2.875-9.45,5.786-18.889,8.731-28.317c2.033-6.508,1.03-15.762,6.308-20.689
			c-1.178,0.488-2.356,0.976-3.535,1.464c7.411,0.057,14.794,0.696,22.198,0.945c8.258,0.277,16.405,1.942,24.651,2.448
			c7.803,0.479,15.611,0.76,23.4,1.436c3.874,0.336,7.739,1.171,11.625,1.172c4.378,0.001,8.752,0.064,13.125,0.279
			c4.403,0.217,6.562-5.585,3.535-8.536c-3.014-2.939-7.774-3.555-11.702-2.235c-4.855,1.632-4.653,7.935,0,9.643
			c2.637,0.968,5.388,1.008,8.167,1.128c6.45,0.279,6.423-9.722,0-10c-1.93-0.083-3.679-0.099-5.509-0.771c0,3.214,0,6.428,0,9.643
			c0.285-0.096,1.716-0.588,1.974-0.336c1.178-2.845,2.356-5.69,3.535-8.536c-7.657-0.377-15.172-0.447-22.8-1.264
			c-8.418-0.902-16.902-1.141-25.351-1.624c-7.581-0.433-15.193-2.35-22.764-2.407c-8.037-0.061-16.046-0.924-24.086-0.985
			c-5.189-0.04-8.183,7.424-9.371,11.463c-1.825,6.207-2.28,12.649-4.227,18.892c-4.88,15.652-9.637,31.343-14.348,47.047
			c-9.307,31.024-18.395,62.113-27.752,93.122c-4.69,15.543-9.462,31.062-14.349,46.546c-0.808,2.56-3.194,6.858-1.271,9.454
			c2.008,2.711,4.089,5.355,6.252,7.943c4.945,5.918,10.374,11.424,15.55,17.138c13.16,14.527,26.689,28.69,40.421,42.693
			c7.119,7.26,14.318,14.439,21.603,21.534c6.981,6.801,12.933,13.79,18.956,21.434c2.339,2.969,5.924,4.979,8.704,7.566
			c3.161,2.941,5.65,6.792,8.384,10.132c6.294,7.688,13.33,14.73,20.352,21.771c13.953,13.991,28.236,27.653,41.018,42.753
			c2.362,2.792,7.649,1.343,8.356-2.206c0.84-4.216,0.761-12.166-6.064-10.289c-4.813,1.324-5.233,7.895-3.074,11.483
			c2.117,3.519,8.224,3.188,9.139-1.194c13.603-65.116,29.474-129.733,43-194.865c-2.785,0.735-5.571,1.471-8.356,2.206
			c0.868,1.092,1.563,2.101,2.14,3.373c2.617-2.02,5.235-4.039,7.853-6.059c-0.844-0.495-1.39-1.221-1.636-2.179
			c-3.046,1.284-6.093,2.568-9.139,3.853c31.482,40.814,63.65,81.114,93.834,122.912c3.451,4.78,9.921,1.764,9.139-3.853
			c-0.093-0.983-0.271-1.951-0.535-2.902c-1.269-5.506-10.022-4.301-9.821,1.329c0.056,1.563,0.212,2.746,0.714,4.231
			c1.72,5.087,10.285,4.569,9.821-1.329c-0.59-7.502-1.198-14.663-2.383-22.127c-1.339-8.437-2.587-16.889-3.793-25.346
			c-2.323-16.293-4.402-32.619-6.426-48.951c-2.01-16.22-3.947-32.448-5.953-48.668c-1.96-15.85-4.973-31.554-6.948-47.411
			c-0.939-7.543-1.736-15.104-2.444-22.673c-0.749-8.004-3.15-15.659-3.771-23.682c-1.234-15.953-3.347-31.828-5.563-47.669
			c-1.081-7.727-2.209-15.446-3.305-23.17c-0.582-4.1-1.152-8.201-1.703-12.304c-0.519-3.866-4.133-5.814-7.002-8.059
			c-11.418-8.933-24.132-15.979-36.144-24.048c-7.837-5.266-16.512-14.578-26.531-9.643c-5.742,2.829-11.484,5.657-17.227,8.485
			c-12.242,6.031-24.485,12.061-36.728,18.091c1.683,2.878,3.364,5.756,5.047,8.635c12.703-6.381,25.405-12.763,38.107-19.145
			C573.173,329.048,568.107,320.423,562.362,323.309L562.362,323.309z"/>
	</g>
</g>
<g>
	<g>
		<path fill="#F90606" d="M490.409,281.292c10.602,22.452,21.203,44.904,31.805,67.356c2.752,5.829,11.372,0.75,8.635-5.047
			c-10.602-22.452-21.203-44.904-31.805-67.356C496.292,270.417,487.672,275.496,490.409,281.292L490.409,281.292z"/>
	</g>
</g>
<g>
	<g>
		<path fill="#F90606" d="M488.211,233.969c-0.858-0.139-1.713-0.291-2.565-0.458c-6.26-1.225-8.959,8.001-2.658,9.643
			c4.566,1.189,8.424,3.02,11.959,6.896c8.201,8.99-2.527,23.438-8.934,30.872c1.621-0.429,3.243-0.857,4.864-1.286
			c-0.012-0.002-0.023-0.004-0.035-0.006c0.996,2.448,1.992,4.896,2.988,7.345c2.053-2.691,9.08-3.711,12.676-4.694
			c7.581-2.073,15.295-3.672,22.999-5.213c17.729-3.546,35.579-6.451,53.393-9.533c6.812-1.178,13.627-2.36,20.398-3.752
			c3.496-0.719,7.725-1.27,10.801-3.232c5.456-3.483,9.397-10.045,13.09-15.168c5.04-6.99,9.765-14.21,14.418-21.461
			c2.729-4.254,5.449-8.526,8.087-12.838c6.849-11.195,10.88-25.572,11.856-38.625c1.115-14.912-0.66-29.588-8.004-42.769
			c-7.007-12.577-16.44-23.874-27.771-32.799c-10.313-8.125-22.934-15.107-36.226-16.433c-15.582-1.554-30.309-1.291-45.829,0.804
			c-30.124,4.065-59.835,13.091-88.352,23.412c-6.761,2.446-13.465,5.045-20.137,7.721c-6.905,2.769-13.937,5.251-20.063,9.475
			c-2.218,1.529-5.248-0.67-7.714-1.628c-3.312-1.288-6.581-2.688-9.847-4.089c-6.68-2.867-13.342-5.77-20.149-8.324
			c-14.093-5.29-28.061-7.719-43.055-5.616c-15.938,2.235-31.288,7.559-46.668,12.119c-61.671,18.288-123.719,35.664-187.091,47.051
			c-6.985,1.255-13.988,2.416-20.999,3.518c2.05,1.164,4.1,2.328,6.15,3.492c-4.083-10.863-10.337-22.621-19.866-29.58
			c-16.521-12.066-32.061,4.125-38.138,19.179c-5.843,14.471-6.521,37.129,7.533,47.227c3.25,2.335,7.266,2.787,11.131,2.98
			c6.351,0.317,12.7,0.667,19.046,1.055c8.13,0.497,15.078,2.101,23.093,4.026c67.505,16.215,134.243,35.202,201.035,54.097
			c36.852,10.425,73.672,21.321,110.942,30.181c6.018,1.431,12.076,2.544,18.133,3.783c7.919,1.619,15.66,4.127,23.634,5.463
			c18.703,3.134,34.917-8.068,49.733-18.028c5.32-3.577,0.322-12.244-5.047-8.635c-9.242,6.212-18.929,13.057-29.729,16.252
			c-6.373,1.885-12.584,0.902-18.912-0.615c-14.459-3.468-29.047-6.289-43.474-9.896c-41.18-10.294-81.949-22.301-122.788-33.855
			c-27.663-7.827-55.38-15.452-83.053-23.241c-15.032-4.231-30.125-8.24-45.25-12.125c-11.809-3.033-23.639-5.979-35.481-8.88
			c-6.901-1.69-13.808-3.358-20.717-5.015c-4.492-1.077-9.077-2.62-13.697-2.956c-5.785-0.421-11.578-0.754-17.369-1.078
			c-5.911-0.33-14.255,1.193-18.3-4.258c-7.384-9.954-4.544-26.431,0.489-36.7c2.644-5.394,7.057-11.384,13.093-13.11
			c4.641-1.327,8.983,2.488,11.926,5.544c3.762,3.908,6.55,8.746,9.038,13.53c1.479,2.844,2.641,5.425,3.351,7.313
			c1.044,2.778,3.258,3.947,6.15,3.492c63.583-9.991,125.833-26.518,187.553-44.522c15.614-4.555,31.144-9.456,46.816-13.805
			c15.604-4.329,30.773-6.61,46.645-2.456c13.82,3.618,26.7,10.144,39.889,15.492c6.057,2.456,10.938,4.776,17.009,1.252
			c3.184-1.848,5.873-3.598,9.331-5.045c3.88-1.625,7.778-3.202,11.687-4.757c28.213-11.227,57.251-20.267,86.943-26.649
			c15.105-3.247,30.9-5.518,46.373-4.845c15.336,0.667,28.396,3.844,41.163,12.585c12.229,8.372,21.883,20.202,29.198,32.943
			c7.748,13.495,8.202,29.679,5.465,44.672c-2.01,11.012-5.756,20.83-11.64,30.329c-3.263,5.266-6.604,10.484-9.998,15.666
			c-4.465,6.815-8.994,13.646-13.999,20.081c-1.737,2.235-3.551,4.456-5.643,6.372c-0.098,0.089-1.162,0.615,0.05,0.122
			c-0.608,0.248-1.246,0.427-1.876,0.609c-12.017,3.475-24.81,4.932-37.111,7.038c-17.156,2.938-34.333,5.832-51.359,9.46
			c-6.709,1.43-13.414,2.977-19.97,5.011c-5.219,1.619-10.225,3.364-13.633,7.833c-1.874,2.458,0.036,6.813,2.988,7.345
			c5.486,0.987,9.287-6.482,11.97-10.336c2.735-3.93,4.917-8.268,6.401-12.82c2.093-6.419,1.644-13.479-1.725-19.361
			c-3.913-6.835-11.735-11.303-19.185-13.244c-0.886,3.214-1.772,6.429-2.658,9.643c0.853,0.167,1.707,0.319,2.565,0.458
			C491.859,244.629,494.564,234.994,488.211,233.969L488.211,233.969z"/>
	</g>
</g>
<g>
	<g>
		<path fill="#F90606" d="M147.548,404.211c0-17.073,0-34.145,0-51.218c-0.826,1.439-1.651,2.878-2.477,4.317
			c5.667-2.599,11.197-5.524,16.605-8.619c8.088-4.628,17.359-10.034,22.512-18.062c2.006-3.126,2.561-7.12,0.896-10.499
			c-2.374-4.815-4.568-9.628-6.53-14.633c-3.314-8.458-6.341-17.043-9.185-25.67c-1.836-5.571-9.272-4.211-9.821,1.329
			c-0.906,9.143-1.812,18.287-2.719,27.43c2.845-1.179,5.69-2.357,8.536-3.536c-4.872-5.681-9.743-11.361-14.615-17.042
			c-2.326-2.712-7.741-1.412-8.357,2.207c-1.778,10.444-3.556,20.889-5.333,31.333c3.274,0.443,6.547,0.886,9.821,1.329
			c0-12.414,0-24.827,0-37.24c0-5.798-8.088-6.606-9.821-1.329c-3.688,11.226-7.376,22.452-11.064,33.678c3.214,0,6.428,0,9.643,0
			c-2.1-11.226-4.201-22.452-6.301-33.678c-0.653-3.49-6.078-5.076-8.357-2.207c-4.564,5.747-9.128,11.494-13.693,17.24
			c2.786,0.735,5.571,1.471,8.357,2.207c-1.873-4.442-3.647-8.928-5.29-13.46c-1.45-4.001-2.01-14.082-8.617-12.057
			c-3.833,1.175-5.751,6.14-7.346,9.413c-3.133,6.429-5.67,13.233-7.284,20.202c-1.435,6.195-2.14,13.111,0.457,19.088
			c2.655,6.112,8.159,10.848,13.247,14.918c8.477,6.783,17.857,12.641,27.483,17.658c-0.826-1.439-1.651-2.878-2.477-4.317
			c0,19.467,0,38.935,0,58.402c0,6.449,10,6.449,10,0c0-19.467,0-38.935,0-58.402c0-1.695-0.937-3.515-2.477-4.317
			c-12.351-6.436-25.791-14.136-34.794-24.942c-5.068-6.083-2.124-15.202-0.022-21.905c1.218-3.885,2.757-7.662,4.502-11.337
			c0.666-1.401,1.388-2.776,2.147-4.128c0.281-0.5,0.583-0.986,0.889-1.471c0.367-0.523,0.344-0.52-0.068,0.009
			c1.203-1.298-0.188-1.03-4.176,0.805c-0.996-0.766-1.992-1.532-2.988-2.298c-1.521-3.076-0.665-2.272-0.341,0.002
			c0.133,0.935,0.433,1.858,0.694,2.763c0.742,2.564,1.696,5.072,2.633,7.57c1.319,3.516,2.725,7.003,4.184,10.463
			c1.27,3.011,5.722,5.524,8.357,2.207c4.564-5.747,9.128-11.494,13.693-17.24c-2.786-0.735-5.571-1.471-8.357-2.207
			c2.1,11.226,4.201,22.452,6.301,33.678c0.97,5.184,8.215,4.346,9.643,0c3.688-11.226,7.376-22.452,11.064-33.678
			c-3.274-0.443-6.547-0.886-9.821-1.329c0,12.414,0,24.827,0,37.24c0,5.497,8.854,7.011,9.821,1.329
			c1.778-10.444,3.556-20.889,5.333-31.333c-2.786,0.735-5.571,1.471-8.357,2.207c4.872,5.681,9.743,11.361,14.615,17.042
			c3.133,3.653,8.149,0.361,8.536-3.536c0.906-9.143,1.812-18.287,2.719-27.43c-3.274,0.443-6.547,0.886-9.821,1.329
			c2.46,7.463,5.093,14.873,7.863,22.226c1.93,5.123,3.974,10.208,6.231,15.197c0.397,0.877,0.818,1.743,1.242,2.607
			c0.143,0.292,1.309,2.647,1.047,1.922c-0.12-0.332,0.055-0.28-0.087,0.252c0.075-0.281-0.614,1.121-0.812,1.428
			c-4.269,6.652-13.605,11.132-20.247,14.888c-4.867,2.752-9.855,5.339-14.938,7.67c-1.555,0.713-2.477,2.692-2.477,4.317
			c0,17.073,0,34.145,0,51.218C137.548,410.66,147.548,410.66,147.548,404.211L147.548,404.211z"/>
	</g>
</g>
<g>
	<g>
		<path fill="#F90606" d="M105.823,296.791c0,12.669,0,25.338,0,38.007c0,1.643,0.925,3.582,2.477,4.317
			c3.686,1.747,7.372,3.493,11.059,5.239c2.349,1.113,5.524,0.782,6.841-1.794c3.434-6.719,6.867-13.438,10.301-20.158
			c2.964-5.801,4.666-12.452,6.87-18.574c-3.214,0-6.428,0-9.643,0c2,12.513,4,25.025,6,37.538c3.214-0.886,6.428-1.772,9.643-2.658
			c-2.859-7.208-5.719-14.416-8.579-21.623c-1.684-4.246-8.388-5.255-9.643,0c-2.206,9.237-4.412,18.474-6.618,27.71
			c-1.497,6.269,8.145,8.929,9.643,2.658c2.206-9.237,4.412-18.474,6.618-27.71c-3.214,0-6.428,0-9.643,0
			c2.859,7.208,5.719,14.416,8.579,21.623c2.386,6.013,10.665,3.737,9.643-2.658c-2-12.513-4-25.025-6-37.538
			c-0.854-5.341-8.145-4.159-9.643,0c-1.166,3.238-2.332,6.477-3.498,9.715c-0.715,1.986-1.431,3.973-2.146,5.96
			c-0.77,2.138,0.76-1.404-0.412,0.891c-3.369,6.592-6.738,13.185-10.106,19.778c2.28-0.598,4.561-1.196,6.841-1.794
			c-3.686-1.747-7.372-3.493-11.059-5.239c0.826,1.439,1.651,2.878,2.477,4.317c0-12.669,0-25.338,0-38.007
			C115.823,290.342,105.823,290.342,105.823,296.791L105.823,296.791z"/>
	</g>
</g>
<g>
	<g>
		<path fill="#F90606" d="M143.877,357.612c1.284-0.203-0.861,0.102,0.272-0.037c1.102-0.134,2.208-0.225,3.314-0.301
			c2.931-0.203,5.959-0.259,8.838,0.38c0.984,0.219,1.667,0.436,2.179,0.923c-0.872-0.831-0.266,2.698-0.266,3.564
			c0,1.549,0,3.099,0,4.648c3.274-0.443,6.547-0.886,9.821-1.329c-2.602-10.468-14.586-15.924-24.159-17.492
			c-6.306-1.033-9.01,8.602-2.658,9.643c5.428,0.889,10.7,2.47,14.648,6.47c0.95,0.962,1.607,1.983,2.291,3.334
			c0.505,0.999-0.355-1.017,0.077,0.187c0.061,0.169,0.115,0.342,0.158,0.517c1.375,5.534,9.821,4.278,9.821-1.329
			c0-7.482,0.957-15.044-7.335-18.168c-6.084-2.292-13.353-1.648-19.66-0.653C134.863,348.972,137.571,358.607,143.877,357.612z"/>
	</g>
</g>
<g>
	<ellipse fill="#F90606" cx="522.548" cy="193.271" rx="14.667" ry="13.667"/>
</g>
<g>
	<ellipse fill="#F90606" cx="581.214" cy="193.271" rx="14.667" ry="13.667"/>
</g>
<g>
	<ellipse fill="#F90606" cx="544.047" cy="389.75" rx="14.667" ry="13.667"/>
</g>
<g>
	<ellipse fill="#F90606" cx="560.806" cy="566.456" rx="14.667" ry="13.667"/>
</g>
<g>
	<ellipse fill="#F90606" cx="624.729" cy="562.728" rx="14.667" ry="13.667"/>
</g>
<g>
	<ellipse fill="#F90606" cx="551.881" cy="226.75" rx="14.667" ry="13.667"/>
</g>
<g>
	<g>
		<path fill="#F90606" d="M414.335,122.369c-8.489,5.924-16.61,12.521-24.176,19.579c-8.198,7.649-22.267,20.832-18.407,33.56
			c4.385,14.46,28.496,13.312,39.959,12.316c15.823-1.374,34.712-5.043,47.448-15.225c3.527-2.82,6.168-6.448,6.441-11.067
			c0.378-6.355-6.052-10.985-10.769-13.809c-7.533-4.508-16.415-3.974-24.1-0.332c-3.789,1.795-10.188,6.15-11.006,10.735
			c-1.125,6.304,8.511,9,9.643,2.658c-0.083,0.468-0.16,0.275,0.81-0.75c1.131-1.194,2.422-2.134,3.803-3.012
			c4.364-2.776,9.646-3.436,14.443-1.364c2.547,1.1,4.891,2.865,6.771,4.891c0.228,0.245,0.477,1.301,0.396,0.528
			c0.076,0.72-0.641,1.951-2.463,3.594c-5.086,4.588-12.692,6.893-19.097,8.814c-8.655,2.595-17.635,4.136-26.65,4.649
			c-7.237,0.412-15.514,0.429-22.298-2.526c-2.08-0.906-3.478-2.066-3.84-3.261c-0.354-1.164,0.161-3.336,1.12-5.352
			c5.858-12.312,18.722-21.952,29.19-30.172c2.556-2.007,5.163-3.96,7.828-5.82C424.629,127.342,419.638,118.668,414.335,122.369
			L414.335,122.369z"/>
	</g>
</g>
<g>
	<g>
		<path fill="#F90606" d="M524.23,343.601c-8.44,13.82-16.924,29.854-19.255,46.021c-1.668,11.563,3.357,20.261,11.858,27.926
			c6.152,5.547,13.573,10.227,21.19,13.506c-0.766-1.882-1.532-3.764-2.298-5.646c-10.889,32.24-21.777,64.48-32.666,96.72
			c-0.826,2.445,0.926,5.643,3.492,6.15c13.422,2.656,26.77,5.8,39.987,9.328c9.465,2.526,18.909,5.291,28.041,8.856
			c3.313,1.294,6.568,2.801,9.584,4.694c1.327,0.833,1.247,0.751,2.354,1.942c-0.01-0.011-0.131-0.818-0.177-0.31
			c-0.579,6.425,9.426,6.368,10,0c0.615-6.815-7.813-10.97-12.871-13.329c-9.406-4.389-19.478-7.374-29.445-10.176
			c-14.77-4.151-29.764-7.671-44.814-10.649c1.164,2.05,2.328,4.101,3.492,6.15c10.889-32.24,21.777-64.48,32.666-96.72
			c0.647-1.917-0.353-4.81-2.298-5.647c-6.12-2.635-12.062-6.195-17.268-10.338c-4.212-3.353-7.876-7.262-10.359-12.062
			c-1.628-3.148-0.971-7.302-0.346-10.617c2.703-14.347,10.21-28.381,17.767-40.754C536.236,343.129,527.585,338.108,524.23,343.601
			L524.23,343.601z"/>
	</g>
</g>
<g>
	<g>
		<path fill="#F90606" d="M523.979,351.337c13.684,4.583,27.408,10.417,39.483,18.359c3.199,2.104,6.559,4.587,8.842,7.708
			c2.807,3.835,2.354,9.085,1.885,13.578c-0.856,8.194-4.313,16.752-8.354,23.9c-1.039,1.838-0.931,4.606,0.782,6.059
			c22.136,18.776,44.272,37.551,66.409,56.327c0-2.356,0-4.714,0-7.07c-10.419,12.38-20.414,25.162-29.938,38.24
			c-6.423,8.821-12.776,17.861-17.795,27.573c-2.914,5.64-7.201,14.289-2.063,19.923c4.354,4.775,11.405-2.317,7.07-7.07
			c0.592,0.647,0.482,1.975,0.547,0.289c-0.007,0.177,0.361-1.632,0.745-2.797c1.045-3.18,2.832-6.343,4.548-9.375
			c5.122-9.049,11.22-17.562,17.366-25.934c8.477-11.544,17.369-22.819,26.591-33.779c1.639-1.947,2.206-5.2,0-7.07
			c-22.136-18.776-44.272-37.552-66.409-56.328c0.261,2.02,0.521,4.04,0.782,6.059c4.758-8.416,8.259-18.033,9.541-27.61
			c1.557-11.636-1.33-20.31-10.474-27.589c-13.46-10.716-30.685-17.605-46.899-23.036C520.505,339.64,517.896,349.3,523.979,351.337
			L523.979,351.337z"/>
	</g>
</g>
<g>
	<g>
		<path fill="#F90606" d="M433.06,347.454c6.528,18.669,14.344,37.468,24.69,54.35c6.124,9.992,14.12,20.345,26.736,21.277
			c13.521,0.999,19.532-13.135,28.666-19.973c5.097-3.815,0.121-12.503-5.047-8.635c-7.289,5.456-13.531,18.572-23.619,18.607
			c-9.752,0.035-16.874-14.01-20.884-21.031c-8.509-14.902-15.239-31.065-20.9-47.254C440.588,338.75,430.925,341.35,433.06,347.454
			L433.06,347.454z"/>
	</g>
</g>
<g>
	<g>
		<path fill="#F90606" d="M638.064,358.109c-0.449,1.086,0.394-0.914-0.275,0.644c-0.699,1.629-1.424,3.247-2.156,4.861
			c-2.125,4.68-4.397,9.292-6.807,13.833c-2.661,5.015-5.563,9.914-8.895,14.514c-1.665,2.299-4.98,6.443-7.034,6.451
			c-2.632,0.01-6.259-3.432-8.314-5.328c-3.601-3.32-6.768-7.116-9.815-10.938c-2.407-3.018-4.654-6.163-6.923-9.286
			c-1.525-2.1-3.489-5.651-6.616-5.314c-2.235,0.241-4.198,1.351-4.821,3.671c-0.005,0.019-0.01,0.037-0.015,0.056
			c-1.675,6.237,7.972,8.88,9.643,2.658c0.005-0.019,0.01-0.037,0.015-0.056c-1.606,1.224-3.214,2.447-4.821,3.671
			c-2.691,0.29-4.178-2.429-2.847-0.786c-0.907-1.12,0.356,0.501,0.502,0.7c1.064,1.452,2.113,2.914,3.178,4.365
			c3.191,4.352,6.501,8.625,10.047,12.695c5.803,6.661,14.114,15.374,23.849,13.553c4.323-0.809,7.988-5.193,10.581-8.414
			c4.021-4.997,7.308-10.529,10.375-16.146c4.019-7.359,7.592-14.996,10.794-22.745C650.17,354.807,640.491,352.236,638.064,358.109
			L638.064,358.109z"/>
	</g>
</g>
<g>
	<g>
		<path fill="#F90606" d="M470.886,343.626c-0.779,16.94-5.257,34.767-11.259,51.341c-11.821,32.642-34.272,61.707-67.146,74.943
			c-5.903,2.377-3.328,12.053,2.658,9.643c35.6-14.333,59.539-44.046,73.111-79.201c6.883-17.829,11.754-37.545,12.636-56.727
			C481.183,337.177,471.181,337.206,470.886,343.626L470.886,343.626z"/>
	</g>
</g>
<g>
	<g>
		<path fill="#F90606" d="M563.592,329.034c11.058,18.986,22.577,37.721,34.442,56.21c8.761,13.653,17.74,27.204,27.474,40.188
			c5.881,7.846,12.688,18.407,21.702,23.056c1.523,0.786,3.265,1.39,5.006,1.302c6.416-0.324,6.448-10.326,0-10
			c-1.046,0.053,1.202,0.423-0.334-0.089c1.515,0.505-0.38-0.258-0.813-0.529c-1.005-0.631-2.321-1.798-3.925-3.367
			c-3.999-3.913-7.556-8.323-10.969-12.746c-9.764-12.653-18.611-26.026-27.295-39.433c-12.655-19.538-24.843-39.404-36.577-59.509
			c-0.025-0.043-0.051-0.087-0.076-0.131C568.983,318.419,560.34,323.451,563.592,329.034L563.592,329.034z"/>
	</g>
</g>
<g>
	<g>
		<path fill="#F90606" d="M535.359,424.474c-22.947,15.298-44.557,34.093-62.386,55.104c-17.479,20.598-43.575,60.342-16.298,83.507
			c9.045,7.681,20.623,11.966,31.838,15.349c13.161,3.97,26.726,6.51,40.204,9.129c11.758,2.284,23.707,4.354,35.082,8.192
			c3.115,1.051,7.757,3.146,9.513,4.539c0.555,0.44,1.062,0.934,1.551,1.445c0.85,0.892,0.036-0.186,0.795,1.176
			c0.604,1.082-0.337-1.008,0.067,0.148c0.119,0.342,0.192,0.699,0.264,1.054c-0.27-1.336-0.08,0.788-0.139,1.297
			c-0.738,6.399,9.27,6.328,10,0c1.13-9.798-8.766-15.171-16.427-18.219c-12.077-4.804-25.354-6.809-38.048-9.275
			c-14.909-2.897-29.901-5.737-44.371-10.433c-10.573-3.431-23.117-8.331-29.279-18.157c-5.934-9.46-1.768-22.596,2.464-32.201
			c6.862-15.58,17.961-29.091,29.622-41.312c15.146-15.875,32.313-30.521,50.595-42.708
			C545.743,429.551,540.742,420.885,535.359,424.474L535.359,424.474z"/>
	</g>
</g>
<g>
	<g>
		<path fill="#F90606" d="M575.473,421.417c4.929-0.021,6.246,0.371,11.068,1.4c9.491,2.026,18.034,5.633,26.142,10.929
			c30.068,19.641,37.985,57.882,37.883,91.445c-0.058,18.631-0.757,37.91-5.175,56.094c-1.061,4.369-2.394,8.668-4.557,12.573
			c-0.973,1.754-1.304,2.171-2.192,3.148c-0.43,0.471-0.903,0.898-1.391,1.308c1.025-0.861-0.591,0.318-0.951,0.509
			c0.753-0.397-1.936,0.37-0.823,0.267c-0.453,0.042-0.91,0.027-1.363,0.001c-0.504-0.03,1.171,0.251-0.265-0.07
			c-0.436-0.098-0.86-0.237-1.282-0.384c-1.288-0.448,0.949,0.468-0.275-0.125c-0.86-0.416-1.671-0.931-2.452-1.479
			c-1.152-0.808,0.196,0.177-0.165-0.114c-0.301-0.242-0.592-0.495-0.881-0.751c-0.544-0.482-1.063-0.993-1.567-1.519
			c-0.448-0.469-0.889-0.953-1.287-1.466c-3.948-5.091-10.972,2.042-7.07,7.07c6.017,7.757,16.781,12.004,25.174,5.354
			c8.802-6.975,11.227-21.089,12.962-31.392c4.045-24.016,5.122-49.722,2.167-73.9c-3.783-30.959-17.291-61.018-44.951-77.387
			c-11.279-6.676-25.462-11.567-38.747-11.511C569.025,411.444,569.022,421.444,575.473,421.417L575.473,421.417z"/>
	</g>
</g>
<g>
	<g>
		<path fill="#F90606" d="M506.244,518.18c-15.102,1.64-30.305,6.794-43.481,14.242c-11.001,6.219-20.672,14.859-27.284,25.686
			c-8.054,13.187-10.169,29.041-8.377,44.185c1.235,10.445,4.146,20.534,7.962,30.313c2.002,5.133,4.102,10.369,8.255,14.173
			c6.17,5.651,14.594,5.642,22.096,2.941c18.571-6.682,33.173-21.982,49.816-32.131c5.749-3.506,10.575-6.126,17.167-7.137
			c-1.206,0.185,0.608-0.02,0.83-0.032c0.7-0.041,1.402-0.024,2.102,0.009c1.475,0.071-0.323-0.137,1.113,0.142
			c0.667,0.129,1.318,0.325,1.963,0.539c0.529,0.202,0.513,0.184-0.05-0.055c0.383,0.162,0.751,0.354,1.119,0.547
			c0.631,0.329,1.225,0.727,1.806,1.136c-0.794-0.56,0.821,0.749,1.051,0.97c0.585,0.561,1.113,1.177,1.629,1.8
			c4.919,5.939,7.014,16.798,8.309,24.961c2.787,17.581,2.458,35.77,1.899,53.499c-0.203,6.452,9.798,6.433,10,0
			c0.673-21.367,0.916-43.454-3.831-64.433c-2.241-9.905-6.414-21.332-15.815-26.567c-16.554-9.22-36.835,7.104-49.506,16.316
			c-8.13,5.91-16.112,12.123-24.834,17.157c-3.912,2.259-6.393,3.5-10.417,4.58c-3.104,0.834-4.565,1.002-7.695-0.18
			c1.222,0.461-0.778-0.484-1.132-0.711c-0.977-0.625-0.005,0.118-1.147-0.986c-1.295-1.253-1.853-2.16-2.99-4.337
			c-4.502-8.618-7.2-18.782-9.016-28.29c-2.818-14.762-1.413-30.29,6.328-43.361c8.331-14.067,23.136-23.231,38.132-28.804
			c5.689-2.114,11.558-3.764,17.495-5.018c1.861-0.394,3.733-0.736,5.613-1.028c2.173-0.338-0.748,0.052,0.892-0.126
			C512.584,527.491,512.651,517.484,506.244,518.18L506.244,518.18z"/>
	</g>
</g>
<g>
	<g>
		<path fill="#F90606" d="M669.689,584.899c-13.81,12.79-25.865,32.359-22.295,51.755c1.166,6.336,10.803,3.645,9.643-2.658
			c-2.865-15.564,8.841-31.947,19.723-42.026C681.5,587.579,674.412,580.524,669.689,584.899L669.689,584.899z"/>
	</g>
</g>
<g>
	<g>
		<path fill="#F90606" d="M479.23,415.565c-8.771,18.597-19.415,36.462-30.639,53.658c-20.587,31.542-45.422,63.407-78.067,83.174
			c-5.507,3.334-0.484,11.984,5.047,8.635c33.181-20.091,58.42-51.888,79.669-83.751c12.05-18.067,23.349-37.002,32.625-56.669
			C490.6,414.815,481.98,409.736,479.23,415.565L479.23,415.565z"/>
	</g>
</g>
<g>
	<g>
		<path fill="#F90606" d="M394.727,476.062c3.729,11.242,8.749,22.199,14.38,32.599c8.872,16.382,21.126,34.069,39.388,40.618
			c6.085,2.183,8.682-7.482,2.658-9.643c-15.917-5.708-26.305-22.9-33.93-36.98c-5.052-9.329-9.51-19.169-12.854-29.252
			C402.35,467.313,392.69,469.923,394.727,476.062L394.727,476.062z"/>
	</g>
</g>
</svg>
