<?xml version="1.0" encoding="utf-8"?>
<svg xmlns="http://www.w3.org/2000/svg" xmlns:xlink="http://www.w3.org/1999/xlink" width="600" height="400" viewBox="0 0 2400 1600">
<defs>
  <clipPath id="clip600">
    <rect x="0" y="0" width="2400" height="1600"/>
  </clipPath>
</defs>
<path clip-path="url(#clip600)" d="
M0 1600 L2400 1600 L2400 0 L0 0  Z
  " fill="#ffffff" fill-rule="evenodd" fill-opacity="1"/>
<defs>
  <clipPath id="clip601">
    <rect x="480" y="0" width="1681" height="1600"/>
  </clipPath>
</defs>
<defs>
  <clipPath id="clip602">
    <rect x="175" y="47" width="2178" height="1377"/>
  </clipPath>
</defs>
<path clip-path="url(#clip600)" d="
M175.445 1423.18 L2352.76 1423.18 L2352.76 47.2441 L175.445 47.2441  Z
  " fill="#ffffff" fill-rule="evenodd" fill-opacity="1"/>
<polyline clip-path="url(#clip602)" style="stroke:#000000; stroke-linecap:butt; stroke-linejoin:round; stroke-width:2; stroke-opacity:0.1; fill:none" points="
  544.103,1423.18 544.103,47.2441 
  "/>
<polyline clip-path="url(#clip602)" style="stroke:#000000; stroke-linecap:butt; stroke-linejoin:round; stroke-width:2; stroke-opacity:0.1; fill:none" points="
  991.113,1423.18 991.113,47.2441 
  "/>
<polyline clip-path="url(#clip602)" style="stroke:#000000; stroke-linecap:butt; stroke-linejoin:round; stroke-width:2; stroke-opacity:0.1; fill:none" points="
  1438.12,1423.18 1438.12,47.2441 
  "/>
<polyline clip-path="url(#clip602)" style="stroke:#000000; stroke-linecap:butt; stroke-linejoin:round; stroke-width:2; stroke-opacity:0.1; fill:none" points="
  1885.13,1423.18 1885.13,47.2441 
  "/>
<polyline clip-path="url(#clip602)" style="stroke:#000000; stroke-linecap:butt; stroke-linejoin:round; stroke-width:2; stroke-opacity:0.1; fill:none" points="
  2332.14,1423.18 2332.14,47.2441 
  "/>
<polyline clip-path="url(#clip600)" style="stroke:#000000; stroke-linecap:butt; stroke-linejoin:round; stroke-width:4; stroke-opacity:1; fill:none" points="
  175.445,1423.18 2352.76,1423.18 
  "/>
<polyline clip-path="url(#clip600)" style="stroke:#000000; stroke-linecap:butt; stroke-linejoin:round; stroke-width:4; stroke-opacity:1; fill:none" points="
  544.103,1423.18 544.103,1404.28 
  "/>
<polyline clip-path="url(#clip600)" style="stroke:#000000; stroke-linecap:butt; stroke-linejoin:round; stroke-width:4; stroke-opacity:1; fill:none" points="
  991.113,1423.18 991.113,1404.28 
  "/>
<polyline clip-path="url(#clip600)" style="stroke:#000000; stroke-linecap:butt; stroke-linejoin:round; stroke-width:4; stroke-opacity:1; fill:none" points="
  1438.12,1423.18 1438.12,1404.28 
  "/>
<polyline clip-path="url(#clip600)" style="stroke:#000000; stroke-linecap:butt; stroke-linejoin:round; stroke-width:4; stroke-opacity:1; fill:none" points="
  1885.13,1423.18 1885.13,1404.28 
  "/>
<polyline clip-path="url(#clip600)" style="stroke:#000000; stroke-linecap:butt; stroke-linejoin:round; stroke-width:4; stroke-opacity:1; fill:none" points="
  2332.14,1423.18 2332.14,1404.28 
  "/>
<path clip-path="url(#clip600)" d="M548.351 1466.95 Q551.707 1467.66 553.582 1469.93 Q555.48 1472.2 555.48 1475.53 Q555.48 1480.65 551.962 1483.45 Q548.443 1486.25 541.962 1486.25 Q539.786 1486.25 537.471 1485.81 Q535.179 1485.39 532.726 1484.54 L532.726 1480.02 Q534.67 1481.16 536.985 1481.74 Q539.3 1482.32 541.823 1482.32 Q546.221 1482.32 548.513 1480.58 Q550.827 1478.84 550.827 1475.53 Q550.827 1472.48 548.675 1470.77 Q546.545 1469.03 542.726 1469.03 L538.698 1469.03 L538.698 1465.19 L542.911 1465.19 Q546.36 1465.19 548.189 1463.82 Q550.017 1462.43 550.017 1459.84 Q550.017 1457.18 548.119 1455.77 Q546.244 1454.33 542.726 1454.33 Q540.804 1454.33 538.605 1454.75 Q536.406 1455.16 533.767 1456.04 L533.767 1451.88 Q536.429 1451.14 538.744 1450.77 Q541.082 1450.39 543.142 1450.39 Q548.466 1450.39 551.568 1452.83 Q554.67 1455.23 554.67 1459.35 Q554.67 1462.22 553.026 1464.21 Q551.383 1466.18 548.351 1466.95 Z" fill="#000000" fill-rule="evenodd" fill-opacity="1" /><path clip-path="url(#clip600)" d="M994.123 1455.09 L982.317 1473.54 L994.123 1473.54 L994.123 1455.09 M992.896 1451.02 L998.775 1451.02 L998.775 1473.54 L1003.71 1473.54 L1003.71 1477.43 L998.775 1477.43 L998.775 1485.58 L994.123 1485.58 L994.123 1477.43 L978.521 1477.43 L978.521 1472.92 L992.896 1451.02 Z" fill="#000000" fill-rule="evenodd" fill-opacity="1" /><path clip-path="url(#clip600)" d="M1428.4 1451.02 L1446.76 1451.02 L1446.76 1454.96 L1432.68 1454.96 L1432.68 1463.43 Q1433.7 1463.08 1434.72 1462.92 Q1435.74 1462.73 1436.76 1462.73 Q1442.55 1462.73 1445.92 1465.9 Q1449.3 1469.08 1449.3 1474.49 Q1449.3 1480.07 1445.83 1483.17 Q1442.36 1486.25 1436.04 1486.25 Q1433.86 1486.25 1431.6 1485.88 Q1429.35 1485.51 1426.94 1484.77 L1426.94 1480.07 Q1429.03 1481.2 1431.25 1481.76 Q1433.47 1482.32 1435.95 1482.32 Q1439.95 1482.32 1442.29 1480.21 Q1444.63 1478.1 1444.63 1474.49 Q1444.63 1470.88 1442.29 1468.77 Q1439.95 1466.67 1435.95 1466.67 Q1434.07 1466.67 1432.2 1467.08 Q1430.35 1467.5 1428.4 1468.38 L1428.4 1451.02 Z" fill="#000000" fill-rule="evenodd" fill-opacity="1" /><path clip-path="url(#clip600)" d="M1885.54 1466.44 Q1882.39 1466.44 1880.54 1468.59 Q1878.71 1470.74 1878.71 1474.49 Q1878.71 1478.22 1880.54 1480.39 Q1882.39 1482.55 1885.54 1482.55 Q1888.69 1482.55 1890.52 1480.39 Q1892.37 1478.22 1892.37 1474.49 Q1892.37 1470.74 1890.52 1468.59 Q1888.69 1466.44 1885.54 1466.44 M1894.82 1451.78 L1894.82 1456.04 Q1893.06 1455.21 1891.26 1454.77 Q1889.47 1454.33 1887.72 1454.33 Q1883.09 1454.33 1880.63 1457.45 Q1878.2 1460.58 1877.85 1466.9 Q1879.22 1464.89 1881.28 1463.82 Q1883.34 1462.73 1885.82 1462.73 Q1891.03 1462.73 1894.03 1465.9 Q1897.07 1469.05 1897.07 1474.49 Q1897.07 1479.82 1893.92 1483.03 Q1890.77 1486.25 1885.54 1486.25 Q1879.54 1486.25 1876.37 1481.67 Q1873.2 1477.06 1873.2 1468.33 Q1873.2 1460.14 1877.09 1455.28 Q1880.98 1450.39 1887.53 1450.39 Q1889.29 1450.39 1891.07 1450.74 Q1892.88 1451.09 1894.82 1451.78 Z" fill="#000000" fill-rule="evenodd" fill-opacity="1" /><path clip-path="url(#clip600)" d="M2321.03 1451.02 L2343.26 1451.02 L2343.26 1453.01 L2330.71 1485.58 L2325.83 1485.58 L2337.63 1454.96 L2321.03 1454.96 L2321.03 1451.02 Z" fill="#000000" fill-rule="evenodd" fill-opacity="1" /><path clip-path="url(#clip600)" d="M1278.46 1508.2 Q1278.46 1508.78 1278.24 1509.1 Q1278.05 1509.39 1277.82 1509.46 Q1277.6 1509.49 1277.02 1509.52 Q1272.41 1509.75 1268.64 1512.87 Q1267.71 1513.68 1265.36 1516.19 Q1263.04 1518.7 1259.95 1522.05 Q1256.89 1525.4 1255.12 1527.2 L1263.62 1547.56 Q1263.97 1548.36 1264.1 1548.72 Q1264.26 1549.04 1264.58 1549.46 Q1264.94 1549.88 1265.2 1550.01 Q1265.49 1550.13 1266.1 1550.3 Q1266.74 1550.42 1267.39 1550.46 Q1268.06 1550.46 1269.29 1550.49 Q1269.67 1550.49 1269.83 1550.52 Q1270.03 1550.52 1270.25 1550.71 Q1270.48 1550.88 1270.48 1551.26 Q1270.48 1551.84 1270.22 1552.16 Q1269.99 1552.45 1269.77 1552.49 Q1269.58 1552.52 1269.22 1552.52 Q1268.38 1552.52 1265.55 1552.42 Q1262.72 1552.32 1261.91 1552.32 L1253.6 1552.52 Q1252.6 1552.52 1252.6 1551.71 Q1252.6 1551.29 1252.67 1551.07 Q1252.76 1550.81 1252.99 1550.71 Q1253.22 1550.59 1253.38 1550.55 Q1253.54 1550.52 1253.92 1550.49 Q1255.12 1550.36 1256.02 1550.01 Q1256.95 1549.62 1257.34 1549.23 Q1257.76 1548.85 1257.76 1548.56 L1257.43 1547.62 L1250.77 1531.87 L1244.81 1538.35 L1238.08 1545.46 Q1236.31 1547.36 1236.31 1548.43 Q1236.31 1550.2 1238.95 1550.49 Q1239.75 1550.55 1239.75 1551.2 Q1239.75 1551.81 1239.5 1552.13 Q1239.27 1552.42 1239.04 1552.49 Q1238.85 1552.52 1238.56 1552.52 Q1237.37 1552.52 1234.86 1552.42 Q1232.38 1552.32 1231.15 1552.32 Q1230.12 1552.32 1228.03 1552.42 Q1225.94 1552.52 1224.97 1552.52 Q1224.58 1552.52 1224.36 1552.32 Q1224.13 1552.13 1224.13 1551.94 L1224.1 1551.78 Q1224.1 1551.33 1224.17 1551.07 Q1224.26 1550.81 1224.52 1550.68 Q1224.81 1550.55 1224.94 1550.55 Q1225.07 1550.52 1225.55 1550.49 Q1228.29 1550.33 1230.61 1549.27 Q1232.96 1548.2 1235.24 1545.72 Q1235.44 1545.56 1235.66 1545.37 Q1235.92 1545.17 1236.11 1545.01 L1250.03 1530.04 L1242.23 1511.62 Q1241.88 1510.78 1241.56 1510.42 Q1241.23 1510.04 1240.24 1509.78 Q1239.24 1509.52 1237.31 1509.52 Q1236.76 1509.52 1236.5 1509.49 Q1236.24 1509.46 1236.02 1509.3 Q1235.79 1509.14 1235.79 1508.78 Q1235.79 1508.17 1236.02 1507.88 Q1236.27 1507.56 1236.47 1507.53 Q1236.69 1507.46 1236.98 1507.46 Q1237.79 1507.46 1240.65 1507.56 Q1243.52 1507.66 1244.36 1507.66 Q1245.74 1507.66 1248.51 1507.56 Q1251.32 1507.46 1252.67 1507.46 Q1253.67 1507.46 1253.67 1508.27 Q1253.67 1508.78 1253.44 1509.07 Q1253.22 1509.36 1252.99 1509.43 Q1252.76 1509.49 1252.35 1509.52 Q1251.09 1509.65 1250.12 1510.07 Q1249.19 1510.46 1248.8 1510.84 Q1248.45 1511.2 1248.45 1511.42 L1248.77 1512.29 L1254.31 1525.4 L1265 1513.94 Q1266.26 1512.52 1266.26 1511.55 Q1266.26 1509.81 1263.62 1509.52 Q1262.81 1509.39 1262.81 1508.78 Q1262.81 1508.17 1263.07 1507.88 Q1263.33 1507.56 1263.52 1507.53 Q1263.75 1507.46 1264.07 1507.46 Q1265.26 1507.46 1267.71 1507.56 Q1270.19 1507.66 1271.41 1507.66 Q1272.44 1507.66 1274.54 1507.56 Q1276.63 1507.46 1277.6 1507.46 Q1277.98 1507.46 1278.21 1507.66 Q1278.43 1507.82 1278.43 1508.01 L1278.46 1508.2 Z" fill="#000000" fill-rule="evenodd" fill-opacity="1" /><path clip-path="url(#clip600)" d="M1296.78 1541.8 Q1296.78 1542.79 1295.96 1543.54 Q1295.17 1544.26 1294.32 1544.26 Q1293.53 1544.26 1293.03 1543.78 Q1292.56 1543.29 1292.56 1542.59 Q1292.56 1541.66 1293.35 1540.9 Q1294.14 1540.13 1295.06 1540.13 Q1295.83 1540.13 1296.3 1540.61 Q1296.78 1541.08 1296.78 1541.8 M1297.18 1564.05 Q1297.18 1564.23 1296.98 1564.95 Q1296.78 1565.65 1296.28 1566.73 Q1295.81 1567.79 1295.15 1568.79 Q1294.5 1569.78 1293.42 1570.48 Q1292.36 1571.18 1291.14 1571.18 Q1289.49 1571.18 1288.41 1570.09 Q1287.35 1569.01 1287.35 1567.39 Q1287.35 1566.51 1288.41 1563.69 Q1291.48 1555.48 1291.59 1555.15 Q1292.11 1553.86 1292.11 1552.73 Q1292.11 1552.22 1292 1551.9 Q1291.88 1551.56 1291.66 1551.45 Q1291.43 1551.31 1291.3 1551.29 Q1291.18 1551.27 1290.96 1551.27 Q1289.63 1551.27 1288.39 1552.62 Q1287.15 1553.97 1286.29 1556.99 Q1286.11 1557.56 1286 1557.69 Q1285.89 1557.83 1285.55 1557.83 Q1284.98 1557.81 1284.98 1557.36 Q1284.98 1557.22 1285.14 1556.7 Q1285.3 1556.16 1285.59 1555.35 Q1285.89 1554.52 1286.41 1553.66 Q1286.92 1552.78 1287.55 1552.01 Q1288.21 1551.25 1289.13 1550.75 Q1290.06 1550.25 1291.09 1550.25 Q1292.79 1550.25 1293.82 1551.36 Q1294.88 1552.44 1294.88 1554.04 Q1294.88 1554.92 1294.27 1556.48 Q1293.53 1558.51 1293.26 1559.16 L1291.46 1564.01 Q1290.8 1565.76 1290.6 1566.31 Q1290.42 1566.82 1290.26 1567.46 Q1290.12 1568.06 1290.12 1568.63 Q1290.12 1569.42 1290.37 1569.78 Q1290.64 1570.14 1291.23 1570.14 Q1292.85 1570.14 1294.05 1568.54 Q1295.24 1566.91 1295.94 1564.43 Q1295.96 1564.37 1295.99 1564.25 Q1296.17 1563.69 1296.35 1563.62 Q1296.44 1563.6 1296.62 1563.6 Q1297.18 1563.6 1297.18 1564.05 Z" fill="#000000" fill-rule="evenodd" fill-opacity="1" /><polyline clip-path="url(#clip602)" style="stroke:#000000; stroke-linecap:butt; stroke-linejoin:round; stroke-width:2; stroke-opacity:0.1; fill:none" points="
  175.445,1376.13 2352.76,1376.13 
  "/>
<polyline clip-path="url(#clip602)" style="stroke:#000000; stroke-linecap:butt; stroke-linejoin:round; stroke-width:2; stroke-opacity:0.1; fill:none" points="
  175.445,1002.68 2352.76,1002.68 
  "/>
<polyline clip-path="url(#clip602)" style="stroke:#000000; stroke-linecap:butt; stroke-linejoin:round; stroke-width:2; stroke-opacity:0.1; fill:none" points="
  175.445,629.231 2352.76,629.231 
  "/>
<polyline clip-path="url(#clip602)" style="stroke:#000000; stroke-linecap:butt; stroke-linejoin:round; stroke-width:2; stroke-opacity:0.1; fill:none" points="
  175.445,255.78 2352.76,255.78 
  "/>
<polyline clip-path="url(#clip600)" style="stroke:#000000; stroke-linecap:butt; stroke-linejoin:round; stroke-width:4; stroke-opacity:1; fill:none" points="
  175.445,1423.18 175.445,47.2441 
  "/>
<polyline clip-path="url(#clip600)" style="stroke:#000000; stroke-linecap:butt; stroke-linejoin:round; stroke-width:4; stroke-opacity:1; fill:none" points="
  175.445,1376.13 194.343,1376.13 
  "/>
<polyline clip-path="url(#clip600)" style="stroke:#000000; stroke-linecap:butt; stroke-linejoin:round; stroke-width:4; stroke-opacity:1; fill:none" points="
  175.445,1002.68 194.343,1002.68 
  "/>
<polyline clip-path="url(#clip600)" style="stroke:#000000; stroke-linecap:butt; stroke-linejoin:round; stroke-width:4; stroke-opacity:1; fill:none" points="
  175.445,629.231 194.343,629.231 
  "/>
<polyline clip-path="url(#clip600)" style="stroke:#000000; stroke-linecap:butt; stroke-linejoin:round; stroke-width:4; stroke-opacity:1; fill:none" points="
  175.445,255.78 194.343,255.78 
  "/>
<path clip-path="url(#clip600)" d="M127.501 1361.93 Q123.89 1361.93 122.061 1365.5 Q120.255 1369.04 120.255 1376.17 Q120.255 1383.27 122.061 1386.84 Q123.89 1390.38 127.501 1390.38 Q131.135 1390.38 132.941 1386.84 Q134.769 1383.27 134.769 1376.17 Q134.769 1369.04 132.941 1365.5 Q131.135 1361.93 127.501 1361.93 M127.501 1358.23 Q133.311 1358.23 136.367 1362.83 Q139.445 1367.42 139.445 1376.17 Q139.445 1384.89 136.367 1389.5 Q133.311 1394.08 127.501 1394.08 Q121.691 1394.08 118.612 1389.5 Q115.556 1384.89 115.556 1376.17 Q115.556 1367.42 118.612 1362.83 Q121.691 1358.23 127.501 1358.23 Z" fill="#000000" fill-rule="evenodd" fill-opacity="1" /><path clip-path="url(#clip600)" d="M123.126 1016.03 L139.445 1016.03 L139.445 1019.96 L117.501 1019.96 L117.501 1016.03 Q120.163 1013.27 124.746 1008.64 Q129.353 1003.99 130.533 1002.65 Q132.779 1000.12 133.658 998.388 Q134.561 996.629 134.561 994.939 Q134.561 992.184 132.617 990.448 Q130.695 988.712 127.593 988.712 Q125.394 988.712 122.941 989.476 Q120.51 990.24 117.732 991.791 L117.732 987.069 Q120.556 985.934 123.01 985.356 Q125.464 984.777 127.501 984.777 Q132.871 984.777 136.066 987.462 Q139.26 990.147 139.26 994.638 Q139.26 996.768 138.45 998.689 Q137.663 1000.59 135.556 1003.18 Q134.978 1003.85 131.876 1007.07 Q128.774 1010.26 123.126 1016.03 Z" fill="#000000" fill-rule="evenodd" fill-opacity="1" /><path clip-path="url(#clip600)" d="M129.862 616.025 L118.056 634.474 L129.862 634.474 L129.862 616.025 M128.635 611.951 L134.515 611.951 L134.515 634.474 L139.445 634.474 L139.445 638.363 L134.515 638.363 L134.515 646.511 L129.862 646.511 L129.862 638.363 L114.26 638.363 L114.26 633.849 L128.635 611.951 Z" fill="#000000" fill-rule="evenodd" fill-opacity="1" /><path clip-path="url(#clip600)" d="M127.917 253.917 Q124.769 253.917 122.918 256.069 Q121.089 258.222 121.089 261.972 Q121.089 265.699 122.918 267.875 Q124.769 270.028 127.917 270.028 Q131.066 270.028 132.894 267.875 Q134.746 265.699 134.746 261.972 Q134.746 258.222 132.894 256.069 Q131.066 253.917 127.917 253.917 M137.2 239.264 L137.2 243.523 Q135.441 242.69 133.635 242.25 Q131.853 241.81 130.093 241.81 Q125.464 241.81 123.01 244.935 Q120.58 248.06 120.232 254.38 Q121.598 252.366 123.658 251.301 Q125.718 250.213 128.195 250.213 Q133.404 250.213 136.413 253.384 Q139.445 256.532 139.445 261.972 Q139.445 267.296 136.297 270.514 Q133.149 273.731 127.917 273.731 Q121.922 273.731 118.751 269.148 Q115.58 264.542 115.58 255.815 Q115.58 247.62 119.468 242.759 Q123.357 237.875 129.908 237.875 Q131.667 237.875 133.45 238.222 Q135.255 238.57 137.2 239.264 Z" fill="#000000" fill-rule="evenodd" fill-opacity="1" /><path clip-path="url(#clip600)" d="M18.4834 724.077 Q18.9021 724.077 19.1597 724.174 Q19.4174 724.238 19.5462 724.496 Q19.6428 724.721 19.675 724.882 Q19.7072 725.011 19.7394 725.398 Q19.8682 726.976 20.2869 728.296 Q20.6734 729.617 21.4463 730.744 Q22.2193 731.839 22.7346 732.451 Q23.2499 733.03 24.2805 734.061 L25.2144 734.963 L43.9904 751.323 Q44.6346 751.903 46.0516 752.257 L55.3591 754.576 Q59.2238 755.478 59.5137 755.478 Q60.0934 755.478 60.2866 755.156 Q60.4476 754.802 60.5443 753.707 L60.7053 751.194 Q60.7053 749.713 60.9629 749.488 Q61.124 749.359 61.4138 749.359 Q62.0257 749.359 62.3478 749.616 Q62.6376 749.842 62.702 750.067 Q62.7343 750.26 62.7343 750.615 L62.541 759.053 L62.7343 767.362 Q62.7343 768.296 61.9935 768.296 Q61.5104 768.296 61.2528 768.231 Q60.9629 768.135 60.8663 767.845 Q60.7375 767.555 60.7375 767.33 Q60.7053 767.104 60.7053 766.492 Q60.6731 765.011 60.6731 764.27 Q60.6409 763.497 60.4476 762.756 Q60.2544 762.016 60.1256 761.758 Q59.9645 761.468 59.417 761.146 Q58.8373 760.792 58.3865 760.695 Q57.9356 760.566 56.8084 760.309 Q55.81 760.051 50.3672 758.698 Q44.9244 757.346 44.7956 757.346 Q44.4413 757.346 43.6684 757.603 L21.9616 765.719 Q20.9955 766.074 20.609 766.363 Q20.2225 766.653 19.9971 767.619 Q19.7394 768.586 19.7394 770.518 Q19.7394 771.065 19.7072 771.323 Q19.675 771.581 19.514 771.806 Q19.353 772.032 18.9987 772.032 Q18.3868 772.032 18.0969 771.774 Q17.7749 771.516 17.7427 771.323 Q17.6783 771.098 17.6783 770.776 Q17.6783 769.97 17.7749 767.104 Q17.8715 764.238 17.8715 763.4 L17.6783 755.091 Q17.6783 754.093 18.419 754.093 Q19.3208 754.093 19.5462 754.447 Q19.7394 754.802 19.7394 755.671 Q19.7394 759.568 21.3175 759.568 Q21.5107 759.568 22.4447 759.182 L42.0259 751.935 L24.4093 736.637 L24.1516 736.412 Q23.894 736.219 23.7007 736.058 Q23.5075 735.897 23.1532 735.639 Q22.799 735.381 22.5091 735.253 Q22.2193 735.092 21.865 734.963 Q21.5107 734.834 21.2531 734.834 Q20.77 734.834 20.448 735.124 Q20.0937 735.414 19.9649 735.864 Q19.836 736.315 19.8038 736.637 Q19.7394 736.959 19.7394 737.217 Q19.7394 738.216 18.9343 738.216 Q18.3546 738.216 18.0647 737.958 Q17.7427 737.7 17.7105 737.507 Q17.6783 737.282 17.6783 736.959 Q17.6783 735.897 17.7749 733.674 Q17.8715 731.452 17.8715 730.357 Q17.8715 729.456 17.7749 727.62 Q17.6783 725.784 17.6783 724.947 Q17.6783 724.077 18.4834 724.077 Z" fill="#000000" fill-rule="evenodd" fill-opacity="1" /><path clip-path="url(#clip600)" d="M52.0165 705.717 Q53.0085 705.717 53.7524 706.528 Q54.4739 707.317 54.4739 708.174 Q54.4739 708.963 54.0004 709.459 Q53.5045 709.932 52.8056 709.932 Q51.8813 709.932 51.1148 709.143 Q50.3483 708.354 50.3483 707.43 Q50.3483 706.664 50.8217 706.19 Q51.2951 705.717 52.0165 705.717 M74.2676 705.311 Q74.4479 705.311 75.1693 705.514 Q75.8682 705.717 76.9503 706.213 Q78.0099 706.686 79.0018 707.34 Q79.9938 707.994 80.6926 709.076 Q81.3915 710.135 81.3915 711.353 Q81.3915 712.998 80.3094 714.081 Q79.2273 715.14 77.6041 715.14 Q76.7249 715.14 73.9069 714.081 Q65.7008 711.015 65.3627 710.902 Q64.0776 710.383 62.9504 710.383 Q62.4319 710.383 62.1163 710.496 Q61.7781 710.609 61.6654 710.834 Q61.5302 711.06 61.5076 711.195 Q61.4851 711.308 61.4851 711.533 Q61.4851 712.863 62.8377 714.103 Q64.1904 715.343 67.2113 716.2 Q67.7749 716.38 67.9101 716.493 Q68.0454 716.606 68.0454 716.944 Q68.0229 717.507 67.572 717.507 Q67.4367 717.507 66.9182 717.349 Q66.3771 717.192 65.5656 716.899 Q64.7314 716.606 63.8747 716.087 Q62.9955 715.568 62.229 714.937 Q61.4625 714.283 60.9666 713.359 Q60.4706 712.435 60.4706 711.398 Q60.4706 709.707 61.5752 708.67 Q62.6574 707.61 64.258 707.61 Q65.1372 707.61 66.6928 708.219 Q68.7217 708.963 69.3755 709.234 L74.2225 711.037 Q75.9809 711.691 76.522 711.894 Q77.0405 712.074 77.6717 712.232 Q78.2804 712.367 78.844 712.367 Q79.6331 712.367 79.9938 712.119 Q80.3545 711.849 80.3545 711.263 Q80.3545 709.639 78.7539 708.445 Q77.1307 707.25 74.6508 706.551 Q74.5832 706.528 74.4705 706.506 Q73.9069 706.325 73.8392 706.145 Q73.8167 706.055 73.8167 705.875 Q73.8167 705.311 74.2676 705.311 Z" fill="#000000" fill-rule="evenodd" fill-opacity="1" /><circle clip-path="url(#clip602)" cx="701.856" cy="739.073" r="14" fill="#009af9" fill-rule="evenodd" fill-opacity="1" stroke="#000000" stroke-opacity="1" stroke-width="3.2"/>
<circle clip-path="url(#clip602)" cx="337.945" cy="902.073" r="14" fill="#009af9" fill-rule="evenodd" fill-opacity="1" stroke="#000000" stroke-opacity="1" stroke-width="3.2"/>
<circle clip-path="url(#clip602)" cx="817.86" cy="944.212" r="14" fill="#009af9" fill-rule="evenodd" fill-opacity="1" stroke="#000000" stroke-opacity="1" stroke-width="3.2"/>
<circle clip-path="url(#clip602)" cx="756.106" cy="1157.95" r="14" fill="#009af9" fill-rule="evenodd" fill-opacity="1" stroke="#000000" stroke-opacity="1" stroke-width="3.2"/>
<circle clip-path="url(#clip602)" cx="570.078" cy="859.815" r="14" fill="#009af9" fill-rule="evenodd" fill-opacity="1" stroke="#000000" stroke-opacity="1" stroke-width="3.2"/>
<circle clip-path="url(#clip602)" cx="326.769" cy="1141.65" r="14" fill="#009af9" fill-rule="evenodd" fill-opacity="1" stroke="#000000" stroke-opacity="1" stroke-width="3.2"/>
<circle clip-path="url(#clip602)" cx="889.535" cy="1035.01" r="14" fill="#009af9" fill-rule="evenodd" fill-opacity="1" stroke="#000000" stroke-opacity="1" stroke-width="3.2"/>
<circle clip-path="url(#clip602)" cx="255.503" cy="958.722" r="14" fill="#009af9" fill-rule="evenodd" fill-opacity="1" stroke="#000000" stroke-opacity="1" stroke-width="3.2"/>
<circle clip-path="url(#clip602)" cx="483.848" cy="701.602" r="14" fill="#009af9" fill-rule="evenodd" fill-opacity="1" stroke="#000000" stroke-opacity="1" stroke-width="3.2"/>
<circle clip-path="url(#clip602)" cx="274.732" cy="932.538" r="14" fill="#009af9" fill-rule="evenodd" fill-opacity="1" stroke="#000000" stroke-opacity="1" stroke-width="3.2"/>
<circle clip-path="url(#clip602)" cx="468.432" cy="1129.47" r="14" fill="#009af9" fill-rule="evenodd" fill-opacity="1" stroke="#000000" stroke-opacity="1" stroke-width="3.2"/>
<circle clip-path="url(#clip602)" cx="294.826" cy="1025.5" r="14" fill="#009af9" fill-rule="evenodd" fill-opacity="1" stroke="#000000" stroke-opacity="1" stroke-width="3.2"/>
<circle clip-path="url(#clip602)" cx="1308.95" cy="86.1857" r="14" fill="#009af9" fill-rule="evenodd" fill-opacity="1" stroke="#000000" stroke-opacity="1" stroke-width="3.2"/>
<circle clip-path="url(#clip602)" cx="974.939" cy="714.946" r="14" fill="#009af9" fill-rule="evenodd" fill-opacity="1" stroke="#000000" stroke-opacity="1" stroke-width="3.2"/>
<circle clip-path="url(#clip602)" cx="677.016" cy="1044.07" r="14" fill="#009af9" fill-rule="evenodd" fill-opacity="1" stroke="#000000" stroke-opacity="1" stroke-width="3.2"/>
<circle clip-path="url(#clip602)" cx="373.254" cy="1004.87" r="14" fill="#009af9" fill-rule="evenodd" fill-opacity="1" stroke="#000000" stroke-opacity="1" stroke-width="3.2"/>
<circle clip-path="url(#clip602)" cx="785.917" cy="965.575" r="14" fill="#009af9" fill-rule="evenodd" fill-opacity="1" stroke="#000000" stroke-opacity="1" stroke-width="3.2"/>
<circle clip-path="url(#clip602)" cx="1421.29" cy="750.06" r="14" fill="#009af9" fill-rule="evenodd" fill-opacity="1" stroke="#000000" stroke-opacity="1" stroke-width="3.2"/>
<circle clip-path="url(#clip602)" cx="284.666" cy="820.358" r="14" fill="#009af9" fill-rule="evenodd" fill-opacity="1" stroke="#000000" stroke-opacity="1" stroke-width="3.2"/>
<circle clip-path="url(#clip602)" cx="398.444" cy="1145.54" r="14" fill="#009af9" fill-rule="evenodd" fill-opacity="1" stroke="#000000" stroke-opacity="1" stroke-width="3.2"/>
<circle clip-path="url(#clip602)" cx="361.172" cy="924.328" r="14" fill="#009af9" fill-rule="evenodd" fill-opacity="1" stroke="#000000" stroke-opacity="1" stroke-width="3.2"/>
<circle clip-path="url(#clip602)" cx="305.222" cy="882.137" r="14" fill="#009af9" fill-rule="evenodd" fill-opacity="1" stroke="#000000" stroke-opacity="1" stroke-width="3.2"/>
<circle clip-path="url(#clip602)" cx="1571.7" cy="654.676" r="14" fill="#009af9" fill-rule="evenodd" fill-opacity="1" stroke="#000000" stroke-opacity="1" stroke-width="3.2"/>
<circle clip-path="url(#clip602)" cx="631.128" cy="779.604" r="14" fill="#009af9" fill-rule="evenodd" fill-opacity="1" stroke="#000000" stroke-opacity="1" stroke-width="3.2"/>
<circle clip-path="url(#clip602)" cx="411.592" cy="1283.44" r="14" fill="#009af9" fill-rule="evenodd" fill-opacity="1" stroke="#000000" stroke-opacity="1" stroke-width="3.2"/>
<circle clip-path="url(#clip602)" cx="1144.57" cy="496.464" r="14" fill="#009af9" fill-rule="evenodd" fill-opacity="1" stroke="#000000" stroke-opacity="1" stroke-width="3.2"/>
<circle clip-path="url(#clip602)" cx="728.158" cy="1259.25" r="14" fill="#009af9" fill-rule="evenodd" fill-opacity="1" stroke="#000000" stroke-opacity="1" stroke-width="3.2"/>
<circle clip-path="url(#clip602)" cx="439.109" cy="999.339" r="14" fill="#009af9" fill-rule="evenodd" fill-opacity="1" stroke="#000000" stroke-opacity="1" stroke-width="3.2"/>
<circle clip-path="url(#clip602)" cx="852.263" cy="892.371" r="14" fill="#009af9" fill-rule="evenodd" fill-opacity="1" stroke="#000000" stroke-opacity="1" stroke-width="3.2"/>
<circle clip-path="url(#clip602)" cx="349.407" cy="865.65" r="14" fill="#009af9" fill-rule="evenodd" fill-opacity="1" stroke="#000000" stroke-opacity="1" stroke-width="3.2"/>
<circle clip-path="url(#clip602)" cx="1219.25" cy="760.436" r="14" fill="#009af9" fill-rule="evenodd" fill-opacity="1" stroke="#000000" stroke-opacity="1" stroke-width="3.2"/>
<circle clip-path="url(#clip602)" cx="609.838" cy="841.126" r="14" fill="#009af9" fill-rule="evenodd" fill-opacity="1" stroke="#000000" stroke-opacity="1" stroke-width="3.2"/>
<circle clip-path="url(#clip602)" cx="453.53" cy="1046.27" r="14" fill="#009af9" fill-rule="evenodd" fill-opacity="1" stroke="#000000" stroke-opacity="1" stroke-width="3.2"/>
<circle clip-path="url(#clip602)" cx="516.372" cy="671.662" r="14" fill="#009af9" fill-rule="evenodd" fill-opacity="1" stroke="#000000" stroke-opacity="1" stroke-width="3.2"/>
<circle clip-path="url(#clip602)" cx="2291.13" cy="887.324" r="14" fill="#009af9" fill-rule="evenodd" fill-opacity="1" stroke="#000000" stroke-opacity="1" stroke-width="3.2"/>
<circle clip-path="url(#clip602)" cx="930.2" cy="876.801" r="14" fill="#009af9" fill-rule="evenodd" fill-opacity="1" stroke="#000000" stroke-opacity="1" stroke-width="3.2"/>
<circle clip-path="url(#clip602)" cx="315.866" cy="1039.6" r="14" fill="#009af9" fill-rule="evenodd" fill-opacity="1" stroke="#000000" stroke-opacity="1" stroke-width="3.2"/>
<circle clip-path="url(#clip602)" cx="1080.61" cy="565.127" r="14" fill="#009af9" fill-rule="evenodd" fill-opacity="1" stroke="#000000" stroke-opacity="1" stroke-width="3.2"/>
<circle clip-path="url(#clip602)" cx="499.814" cy="1015.47" r="14" fill="#009af9" fill-rule="evenodd" fill-opacity="1" stroke="#000000" stroke-opacity="1" stroke-width="3.2"/>
<circle clip-path="url(#clip602)" cx="589.516" cy="1134.98" r="14" fill="#009af9" fill-rule="evenodd" fill-opacity="1" stroke="#000000" stroke-opacity="1" stroke-width="3.2"/>
<circle clip-path="url(#clip602)" cx="265.014" cy="1384.24" r="14" fill="#009af9" fill-rule="evenodd" fill-opacity="1" stroke="#000000" stroke-opacity="1" stroke-width="3.2"/>
<circle clip-path="url(#clip602)" cx="237.067" cy="906.741" r="14" fill="#009af9" fill-rule="evenodd" fill-opacity="1" stroke="#000000" stroke-opacity="1" stroke-width="3.2"/>
<circle clip-path="url(#clip602)" cx="1800.04" cy="635.987" r="14" fill="#009af9" fill-rule="evenodd" fill-opacity="1" stroke="#000000" stroke-opacity="1" stroke-width="3.2"/>
<circle clip-path="url(#clip602)" cx="246.19" cy="1105.63" r="14" fill="#009af9" fill-rule="evenodd" fill-opacity="1" stroke="#000000" stroke-opacity="1" stroke-width="3.2"/>
<circle clip-path="url(#clip602)" cx="1024.66" cy="591.848" r="14" fill="#009af9" fill-rule="evenodd" fill-opacity="1" stroke="#000000" stroke-opacity="1" stroke-width="3.2"/>
<circle clip-path="url(#clip602)" cx="551.449" cy="1066.92" r="14" fill="#009af9" fill-rule="evenodd" fill-opacity="1" stroke="#000000" stroke-opacity="1" stroke-width="3.2"/>
<circle clip-path="url(#clip602)" cx="533.567" cy="788.498" r="14" fill="#009af9" fill-rule="evenodd" fill-opacity="1" stroke="#000000" stroke-opacity="1" stroke-width="3.2"/>
<circle clip-path="url(#clip602)" cx="653.483" cy="1139.01" r="14" fill="#009af9" fill-rule="evenodd" fill-opacity="1" stroke="#000000" stroke-opacity="1" stroke-width="3.2"/>
<circle clip-path="url(#clip602)" cx="385.671" cy="1238.6" r="14" fill="#009af9" fill-rule="evenodd" fill-opacity="1" stroke="#000000" stroke-opacity="1" stroke-width="3.2"/>
<circle clip-path="url(#clip602)" cx="425.139" cy="1177.32" r="14" fill="#009af9" fill-rule="evenodd" fill-opacity="1" stroke="#000000" stroke-opacity="1" stroke-width="3.2"/>
</svg>
