<?xml version="1.0" encoding="utf-8"?>
<svg xmlns="http://www.w3.org/2000/svg" xmlns:xlink="http://www.w3.org/1999/xlink" width="600" height="400" viewBox="0 0 2400 1600">
<defs>
  <clipPath id="clip110">
    <rect x="0" y="0" width="2400" height="1600"/>
  </clipPath>
</defs>
<path clip-path="url(#clip110)" d="
M0 1600 L2400 1600 L2400 0 L0 0  Z
  " fill="#ffffff" fill-rule="evenodd" fill-opacity="1"/>
<defs>
  <clipPath id="clip111">
    <rect x="480" y="0" width="1681" height="1600"/>
  </clipPath>
</defs>
<defs>
  <clipPath id="clip112">
    <rect x="186" y="123" width="2167" height="1364"/>
  </clipPath>
</defs>
<path clip-path="url(#clip110)" d="
M175.445 1423.18 L2352.76 1423.18 L2352.76 123.472 L175.445 123.472  Z
  " fill="#ffffff" fill-rule="evenodd" fill-opacity="1"/>
<defs>
  <clipPath id="clip113">
    <rect x="175" y="123" width="2178" height="1301"/>
  </clipPath>
</defs>
<polyline clip-path="url(#clip113)" style="stroke:#000000; stroke-linecap:butt; stroke-linejoin:round; stroke-width:2; stroke-opacity:0.1; fill:none" points="
  232.951,1423.18 232.951,123.472 
  "/>
<polyline clip-path="url(#clip113)" style="stroke:#000000; stroke-linecap:butt; stroke-linejoin:round; stroke-width:2; stroke-opacity:0.1; fill:none" points="
  644.587,1423.18 644.587,123.472 
  "/>
<polyline clip-path="url(#clip113)" style="stroke:#000000; stroke-linecap:butt; stroke-linejoin:round; stroke-width:2; stroke-opacity:0.1; fill:none" points="
  1056.22,1423.18 1056.22,123.472 
  "/>
<polyline clip-path="url(#clip113)" style="stroke:#000000; stroke-linecap:butt; stroke-linejoin:round; stroke-width:2; stroke-opacity:0.1; fill:none" points="
  1467.86,1423.18 1467.86,123.472 
  "/>
<polyline clip-path="url(#clip113)" style="stroke:#000000; stroke-linecap:butt; stroke-linejoin:round; stroke-width:2; stroke-opacity:0.1; fill:none" points="
  1879.5,1423.18 1879.5,123.472 
  "/>
<polyline clip-path="url(#clip113)" style="stroke:#000000; stroke-linecap:butt; stroke-linejoin:round; stroke-width:2; stroke-opacity:0.1; fill:none" points="
  2291.13,1423.18 2291.13,123.472 
  "/>
<polyline clip-path="url(#clip110)" style="stroke:#000000; stroke-linecap:butt; stroke-linejoin:round; stroke-width:4; stroke-opacity:1; fill:none" points="
  175.445,1423.18 2352.76,1423.18 
  "/>
<polyline clip-path="url(#clip110)" style="stroke:#000000; stroke-linecap:butt; stroke-linejoin:round; stroke-width:4; stroke-opacity:1; fill:none" points="
  232.951,1423.18 232.951,1404.28 
  "/>
<polyline clip-path="url(#clip110)" style="stroke:#000000; stroke-linecap:butt; stroke-linejoin:round; stroke-width:4; stroke-opacity:1; fill:none" points="
  644.587,1423.18 644.587,1404.28 
  "/>
<polyline clip-path="url(#clip110)" style="stroke:#000000; stroke-linecap:butt; stroke-linejoin:round; stroke-width:4; stroke-opacity:1; fill:none" points="
  1056.22,1423.18 1056.22,1404.28 
  "/>
<polyline clip-path="url(#clip110)" style="stroke:#000000; stroke-linecap:butt; stroke-linejoin:round; stroke-width:4; stroke-opacity:1; fill:none" points="
  1467.86,1423.18 1467.86,1404.28 
  "/>
<polyline clip-path="url(#clip110)" style="stroke:#000000; stroke-linecap:butt; stroke-linejoin:round; stroke-width:4; stroke-opacity:1; fill:none" points="
  1879.5,1423.18 1879.5,1404.28 
  "/>
<polyline clip-path="url(#clip110)" style="stroke:#000000; stroke-linecap:butt; stroke-linejoin:round; stroke-width:4; stroke-opacity:1; fill:none" points="
  2291.13,1423.18 2291.13,1404.28 
  "/>
<path clip-path="url(#clip110)" d="M232.951 1454.1 Q229.34 1454.1 227.511 1457.66 Q225.706 1461.2 225.706 1468.33 Q225.706 1475.44 227.511 1479.01 Q229.34 1482.55 232.951 1482.55 Q236.585 1482.55 238.391 1479.01 Q240.219 1475.44 240.219 1468.33 Q240.219 1461.2 238.391 1457.66 Q236.585 1454.1 232.951 1454.1 M232.951 1450.39 Q238.761 1450.39 241.817 1455 Q244.895 1459.58 244.895 1468.33 Q244.895 1477.06 241.817 1481.67 Q238.761 1486.25 232.951 1486.25 Q227.141 1486.25 224.062 1481.67 Q221.006 1477.06 221.006 1468.33 Q221.006 1459.58 224.062 1455 Q227.141 1450.39 232.951 1450.39 Z" fill="#000000" fill-rule="evenodd" fill-opacity="1" /><path clip-path="url(#clip110)" d="M604.194 1481.64 L611.833 1481.64 L611.833 1455.28 L603.523 1456.95 L603.523 1452.69 L611.787 1451.02 L616.463 1451.02 L616.463 1481.64 L624.101 1481.64 L624.101 1485.58 L604.194 1485.58 L604.194 1481.64 Z" fill="#000000" fill-rule="evenodd" fill-opacity="1" /><path clip-path="url(#clip110)" d="M643.546 1454.1 Q639.935 1454.1 638.106 1457.66 Q636.3 1461.2 636.3 1468.33 Q636.3 1475.44 638.106 1479.01 Q639.935 1482.55 643.546 1482.55 Q647.18 1482.55 648.986 1479.01 Q650.814 1475.44 650.814 1468.33 Q650.814 1461.2 648.986 1457.66 Q647.18 1454.1 643.546 1454.1 M643.546 1450.39 Q649.356 1450.39 652.411 1455 Q655.49 1459.58 655.49 1468.33 Q655.49 1477.06 652.411 1481.67 Q649.356 1486.25 643.546 1486.25 Q637.736 1486.25 634.657 1481.67 Q631.601 1477.06 631.601 1468.33 Q631.601 1459.58 634.657 1455 Q637.736 1450.39 643.546 1450.39 Z" fill="#000000" fill-rule="evenodd" fill-opacity="1" /><path clip-path="url(#clip110)" d="M673.708 1454.1 Q670.097 1454.1 668.268 1457.66 Q666.462 1461.2 666.462 1468.33 Q666.462 1475.44 668.268 1479.01 Q670.097 1482.55 673.708 1482.55 Q677.342 1482.55 679.147 1479.01 Q680.976 1475.44 680.976 1468.33 Q680.976 1461.2 679.147 1457.66 Q677.342 1454.1 673.708 1454.1 M673.708 1450.39 Q679.518 1450.39 682.573 1455 Q685.652 1459.58 685.652 1468.33 Q685.652 1477.06 682.573 1481.67 Q679.518 1486.25 673.708 1486.25 Q667.898 1486.25 664.819 1481.67 Q661.763 1477.06 661.763 1468.33 Q661.763 1459.58 664.819 1455 Q667.898 1450.39 673.708 1450.39 Z" fill="#000000" fill-rule="evenodd" fill-opacity="1" /><path clip-path="url(#clip110)" d="M1019.92 1481.64 L1036.24 1481.64 L1036.24 1485.58 L1014.29 1485.58 L1014.29 1481.64 Q1016.95 1478.89 1021.54 1474.26 Q1026.14 1469.61 1027.32 1468.27 Q1029.57 1465.74 1030.45 1464.01 Q1031.35 1462.25 1031.35 1460.56 Q1031.35 1457.8 1029.41 1456.07 Q1027.49 1454.33 1024.38 1454.33 Q1022.18 1454.33 1019.73 1455.09 Q1017.3 1455.86 1014.52 1457.41 L1014.52 1452.69 Q1017.35 1451.55 1019.8 1450.97 Q1022.25 1450.39 1024.29 1450.39 Q1029.66 1450.39 1032.86 1453.08 Q1036.05 1455.77 1036.05 1460.26 Q1036.05 1462.39 1035.24 1464.31 Q1034.45 1466.2 1032.35 1468.8 Q1031.77 1469.47 1028.67 1472.69 Q1025.56 1475.88 1019.92 1481.64 Z" fill="#000000" fill-rule="evenodd" fill-opacity="1" /><path clip-path="url(#clip110)" d="M1056.05 1454.1 Q1052.44 1454.1 1050.61 1457.66 Q1048.81 1461.2 1048.81 1468.33 Q1048.81 1475.44 1050.61 1479.01 Q1052.44 1482.55 1056.05 1482.55 Q1059.68 1482.55 1061.49 1479.01 Q1063.32 1475.44 1063.32 1468.33 Q1063.32 1461.2 1061.49 1457.66 Q1059.68 1454.1 1056.05 1454.1 M1056.05 1450.39 Q1061.86 1450.39 1064.92 1455 Q1067.99 1459.58 1067.99 1468.33 Q1067.99 1477.06 1064.92 1481.67 Q1061.86 1486.25 1056.05 1486.25 Q1050.24 1486.25 1047.16 1481.67 Q1044.11 1477.06 1044.11 1468.33 Q1044.11 1459.58 1047.16 1455 Q1050.24 1450.39 1056.05 1450.39 Z" fill="#000000" fill-rule="evenodd" fill-opacity="1" /><path clip-path="url(#clip110)" d="M1086.21 1454.1 Q1082.6 1454.1 1080.77 1457.66 Q1078.97 1461.2 1078.97 1468.33 Q1078.97 1475.44 1080.77 1479.01 Q1082.6 1482.55 1086.21 1482.55 Q1089.85 1482.55 1091.65 1479.01 Q1093.48 1475.44 1093.48 1468.33 Q1093.48 1461.2 1091.65 1457.66 Q1089.85 1454.1 1086.21 1454.1 M1086.21 1450.39 Q1092.02 1450.39 1095.08 1455 Q1098.16 1459.58 1098.16 1468.33 Q1098.16 1477.06 1095.08 1481.67 Q1092.02 1486.25 1086.21 1486.25 Q1080.4 1486.25 1077.32 1481.67 Q1074.27 1477.06 1074.27 1468.33 Q1074.27 1459.58 1077.32 1455 Q1080.4 1450.39 1086.21 1450.39 Z" fill="#000000" fill-rule="evenodd" fill-opacity="1" /><path clip-path="url(#clip110)" d="M1441.62 1466.95 Q1444.98 1467.66 1446.85 1469.93 Q1448.75 1472.2 1448.75 1475.53 Q1448.75 1480.65 1445.23 1483.45 Q1441.71 1486.25 1435.23 1486.25 Q1433.06 1486.25 1430.74 1485.81 Q1428.45 1485.39 1426 1484.54 L1426 1480.02 Q1427.94 1481.16 1430.26 1481.74 Q1432.57 1482.32 1435.09 1482.32 Q1439.49 1482.32 1441.78 1480.58 Q1444.1 1478.84 1444.1 1475.53 Q1444.1 1472.48 1441.95 1470.77 Q1439.82 1469.03 1436 1469.03 L1431.97 1469.03 L1431.97 1465.19 L1436.18 1465.19 Q1439.63 1465.19 1441.46 1463.82 Q1443.29 1462.43 1443.29 1459.84 Q1443.29 1457.18 1441.39 1455.77 Q1439.52 1454.33 1436 1454.33 Q1434.08 1454.33 1431.88 1454.75 Q1429.68 1455.16 1427.04 1456.04 L1427.04 1451.88 Q1429.7 1451.14 1432.02 1450.77 Q1434.35 1450.39 1436.41 1450.39 Q1441.74 1450.39 1444.84 1452.83 Q1447.94 1455.23 1447.94 1459.35 Q1447.94 1462.22 1446.3 1464.21 Q1444.65 1466.18 1441.62 1466.95 Z" fill="#000000" fill-rule="evenodd" fill-opacity="1" /><path clip-path="url(#clip110)" d="M1467.62 1454.1 Q1464.01 1454.1 1462.18 1457.66 Q1460.37 1461.2 1460.37 1468.33 Q1460.37 1475.44 1462.18 1479.01 Q1464.01 1482.55 1467.62 1482.55 Q1471.25 1482.55 1473.06 1479.01 Q1474.89 1475.44 1474.89 1468.33 Q1474.89 1461.2 1473.06 1457.66 Q1471.25 1454.1 1467.62 1454.1 M1467.62 1450.39 Q1473.43 1450.39 1476.48 1455 Q1479.56 1459.58 1479.56 1468.33 Q1479.56 1477.06 1476.48 1481.67 Q1473.43 1486.25 1467.62 1486.25 Q1461.81 1486.25 1458.73 1481.67 Q1455.67 1477.06 1455.67 1468.33 Q1455.67 1459.58 1458.73 1455 Q1461.81 1450.39 1467.62 1450.39 Z" fill="#000000" fill-rule="evenodd" fill-opacity="1" /><path clip-path="url(#clip110)" d="M1497.78 1454.1 Q1494.17 1454.1 1492.34 1457.66 Q1490.53 1461.2 1490.53 1468.33 Q1490.53 1475.44 1492.34 1479.01 Q1494.17 1482.55 1497.78 1482.55 Q1501.41 1482.55 1503.22 1479.01 Q1505.05 1475.44 1505.05 1468.33 Q1505.05 1461.2 1503.22 1457.66 Q1501.41 1454.1 1497.78 1454.1 M1497.78 1450.39 Q1503.59 1450.39 1506.65 1455 Q1509.72 1459.58 1509.72 1468.33 Q1509.72 1477.06 1506.65 1481.67 Q1503.59 1486.25 1497.78 1486.25 Q1491.97 1486.25 1488.89 1481.67 Q1485.84 1477.06 1485.84 1468.33 Q1485.84 1459.58 1488.89 1455 Q1491.97 1450.39 1497.78 1450.39 Z" fill="#000000" fill-rule="evenodd" fill-opacity="1" /><path clip-path="url(#clip110)" d="M1852.59 1455.09 L1840.78 1473.54 L1852.59 1473.54 L1852.59 1455.09 M1851.36 1451.02 L1857.24 1451.02 L1857.24 1473.54 L1862.17 1473.54 L1862.17 1477.43 L1857.24 1477.43 L1857.24 1485.58 L1852.59 1485.58 L1852.59 1477.43 L1836.99 1477.43 L1836.99 1472.92 L1851.36 1451.02 Z" fill="#000000" fill-rule="evenodd" fill-opacity="1" /><path clip-path="url(#clip110)" d="M1879.9 1454.1 Q1876.29 1454.1 1874.46 1457.66 Q1872.66 1461.2 1872.66 1468.33 Q1872.66 1475.44 1874.46 1479.01 Q1876.29 1482.55 1879.9 1482.55 Q1883.54 1482.55 1885.34 1479.01 Q1887.17 1475.44 1887.17 1468.33 Q1887.17 1461.2 1885.34 1457.66 Q1883.54 1454.1 1879.9 1454.1 M1879.9 1450.39 Q1885.71 1450.39 1888.77 1455 Q1891.85 1459.58 1891.85 1468.33 Q1891.85 1477.06 1888.77 1481.67 Q1885.71 1486.25 1879.9 1486.25 Q1874.09 1486.25 1871.01 1481.67 Q1867.96 1477.06 1867.96 1468.33 Q1867.96 1459.58 1871.01 1455 Q1874.09 1450.39 1879.9 1450.39 Z" fill="#000000" fill-rule="evenodd" fill-opacity="1" /><path clip-path="url(#clip110)" d="M1910.06 1454.1 Q1906.45 1454.1 1904.62 1457.66 Q1902.82 1461.2 1902.82 1468.33 Q1902.82 1475.44 1904.62 1479.01 Q1906.45 1482.55 1910.06 1482.55 Q1913.7 1482.55 1915.5 1479.01 Q1917.33 1475.44 1917.33 1468.33 Q1917.33 1461.2 1915.5 1457.66 Q1913.7 1454.1 1910.06 1454.1 M1910.06 1450.39 Q1915.87 1450.39 1918.93 1455 Q1922.01 1459.58 1922.01 1468.33 Q1922.01 1477.06 1918.93 1481.67 Q1915.87 1486.25 1910.06 1486.25 Q1904.25 1486.25 1901.18 1481.67 Q1898.12 1477.06 1898.12 1468.33 Q1898.12 1459.58 1901.18 1455 Q1904.25 1450.39 1910.06 1450.39 Z" fill="#000000" fill-rule="evenodd" fill-opacity="1" /><path clip-path="url(#clip110)" d="M2250.75 1451.02 L2269.11 1451.02 L2269.11 1454.96 L2255.03 1454.96 L2255.03 1463.43 Q2256.05 1463.08 2257.07 1462.92 Q2258.09 1462.73 2259.11 1462.73 Q2264.9 1462.73 2268.28 1465.9 Q2271.65 1469.08 2271.65 1474.49 Q2271.65 1480.07 2268.18 1483.17 Q2264.71 1486.25 2258.39 1486.25 Q2256.22 1486.25 2253.95 1485.88 Q2251.7 1485.51 2249.29 1484.77 L2249.29 1480.07 Q2251.38 1481.2 2253.6 1481.76 Q2255.82 1482.32 2258.3 1482.32 Q2262.3 1482.32 2264.64 1480.21 Q2266.98 1478.1 2266.98 1474.49 Q2266.98 1470.88 2264.64 1468.77 Q2262.3 1466.67 2258.3 1466.67 Q2256.42 1466.67 2254.55 1467.08 Q2252.7 1467.5 2250.75 1468.38 L2250.75 1451.02 Z" fill="#000000" fill-rule="evenodd" fill-opacity="1" /><path clip-path="url(#clip110)" d="M2290.87 1454.1 Q2287.26 1454.1 2285.43 1457.66 Q2283.62 1461.2 2283.62 1468.33 Q2283.62 1475.44 2285.43 1479.01 Q2287.26 1482.55 2290.87 1482.55 Q2294.5 1482.55 2296.31 1479.01 Q2298.14 1475.44 2298.14 1468.33 Q2298.14 1461.2 2296.31 1457.66 Q2294.5 1454.1 2290.87 1454.1 M2290.87 1450.39 Q2296.68 1450.39 2299.73 1455 Q2302.81 1459.58 2302.81 1468.33 Q2302.81 1477.06 2299.73 1481.67 Q2296.68 1486.25 2290.87 1486.25 Q2285.06 1486.25 2281.98 1481.67 Q2278.92 1477.06 2278.92 1468.33 Q2278.92 1459.58 2281.98 1455 Q2285.06 1450.39 2290.87 1450.39 Z" fill="#000000" fill-rule="evenodd" fill-opacity="1" /><path clip-path="url(#clip110)" d="M2321.03 1454.1 Q2317.42 1454.1 2315.59 1457.66 Q2313.78 1461.2 2313.78 1468.33 Q2313.78 1475.44 2315.59 1479.01 Q2317.42 1482.55 2321.03 1482.55 Q2324.66 1482.55 2326.47 1479.01 Q2328.3 1475.44 2328.3 1468.33 Q2328.3 1461.2 2326.47 1457.66 Q2324.66 1454.1 2321.03 1454.1 M2321.03 1450.39 Q2326.84 1450.39 2329.9 1455 Q2332.97 1459.58 2332.97 1468.33 Q2332.97 1477.06 2329.9 1481.67 Q2326.84 1486.25 2321.03 1486.25 Q2315.22 1486.25 2312.14 1481.67 Q2309.09 1477.06 2309.09 1468.33 Q2309.09 1459.58 2312.14 1455 Q2315.22 1450.39 2321.03 1450.39 Z" fill="#000000" fill-rule="evenodd" fill-opacity="1" /><path clip-path="url(#clip110)" d="M1272.57 1548.54 Q1272.57 1549.45 1272.15 1549.67 Q1271.73 1549.87 1270.57 1549.87 L1264.39 1549.87 L1259.5 1569.32 Q1259.11 1571.02 1259.11 1572.47 Q1259.11 1574.08 1259.59 1574.79 Q1260.11 1575.5 1261.17 1575.5 Q1263.26 1575.5 1265.52 1573.6 Q1267.81 1571.7 1269.74 1567.06 Q1270 1566.45 1270.12 1566.32 Q1270.28 1566.16 1270.7 1566.16 Q1271.51 1566.16 1271.51 1566.81 Q1271.51 1567.03 1271.06 1568.06 Q1270.64 1569.09 1269.71 1570.61 Q1268.8 1572.12 1267.61 1573.54 Q1266.45 1574.95 1264.68 1575.98 Q1262.91 1576.98 1261.01 1576.98 Q1258.34 1576.98 1256.63 1575.28 Q1254.95 1573.57 1254.95 1570.9 Q1254.95 1570.03 1255.63 1567.26 Q1256.31 1564.45 1259.98 1549.87 L1254.15 1549.87 Q1253.34 1549.87 1253.02 1549.83 Q1252.73 1549.8 1252.51 1549.64 Q1252.31 1549.45 1252.31 1549.06 Q1252.31 1548.45 1252.57 1548.19 Q1252.83 1547.9 1253.15 1547.87 Q1253.51 1547.8 1254.31 1547.8 L1260.49 1547.8 L1263.07 1537.34 Q1263.33 1536.31 1263.97 1535.73 Q1264.65 1535.12 1265.04 1535.05 Q1265.42 1534.95 1265.71 1534.95 Q1266.58 1534.95 1267.1 1535.44 Q1267.61 1535.89 1267.61 1536.73 Q1267.61 1537.18 1264.91 1547.8 L1270.7 1547.8 Q1271.44 1547.8 1271.73 1547.84 Q1272.06 1547.87 1272.31 1548.03 Q1272.57 1548.19 1272.57 1548.54 Z" fill="#000000" fill-rule="evenodd" fill-opacity="1" /><polyline clip-path="url(#clip113)" style="stroke:#000000; stroke-linecap:butt; stroke-linejoin:round; stroke-width:2; stroke-opacity:0.1; fill:none" points="
  175.445,1386.42 2352.76,1386.42 
  "/>
<polyline clip-path="url(#clip113)" style="stroke:#000000; stroke-linecap:butt; stroke-linejoin:round; stroke-width:2; stroke-opacity:0.1; fill:none" points="
  175.445,1188.76 2352.76,1188.76 
  "/>
<polyline clip-path="url(#clip113)" style="stroke:#000000; stroke-linecap:butt; stroke-linejoin:round; stroke-width:2; stroke-opacity:0.1; fill:none" points="
  175.445,991.09 2352.76,991.09 
  "/>
<polyline clip-path="url(#clip113)" style="stroke:#000000; stroke-linecap:butt; stroke-linejoin:round; stroke-width:2; stroke-opacity:0.1; fill:none" points="
  175.445,793.424 2352.76,793.424 
  "/>
<polyline clip-path="url(#clip113)" style="stroke:#000000; stroke-linecap:butt; stroke-linejoin:round; stroke-width:2; stroke-opacity:0.1; fill:none" points="
  175.445,595.758 2352.76,595.758 
  "/>
<polyline clip-path="url(#clip113)" style="stroke:#000000; stroke-linecap:butt; stroke-linejoin:round; stroke-width:2; stroke-opacity:0.1; fill:none" points="
  175.445,398.093 2352.76,398.093 
  "/>
<polyline clip-path="url(#clip113)" style="stroke:#000000; stroke-linecap:butt; stroke-linejoin:round; stroke-width:2; stroke-opacity:0.1; fill:none" points="
  175.445,200.427 2352.76,200.427 
  "/>
<polyline clip-path="url(#clip110)" style="stroke:#000000; stroke-linecap:butt; stroke-linejoin:round; stroke-width:4; stroke-opacity:1; fill:none" points="
  175.445,1423.18 175.445,123.472 
  "/>
<polyline clip-path="url(#clip110)" style="stroke:#000000; stroke-linecap:butt; stroke-linejoin:round; stroke-width:4; stroke-opacity:1; fill:none" points="
  175.445,1386.42 194.343,1386.42 
  "/>
<polyline clip-path="url(#clip110)" style="stroke:#000000; stroke-linecap:butt; stroke-linejoin:round; stroke-width:4; stroke-opacity:1; fill:none" points="
  175.445,1188.76 194.343,1188.76 
  "/>
<polyline clip-path="url(#clip110)" style="stroke:#000000; stroke-linecap:butt; stroke-linejoin:round; stroke-width:4; stroke-opacity:1; fill:none" points="
  175.445,991.09 194.343,991.09 
  "/>
<polyline clip-path="url(#clip110)" style="stroke:#000000; stroke-linecap:butt; stroke-linejoin:round; stroke-width:4; stroke-opacity:1; fill:none" points="
  175.445,793.424 194.343,793.424 
  "/>
<polyline clip-path="url(#clip110)" style="stroke:#000000; stroke-linecap:butt; stroke-linejoin:round; stroke-width:4; stroke-opacity:1; fill:none" points="
  175.445,595.758 194.343,595.758 
  "/>
<polyline clip-path="url(#clip110)" style="stroke:#000000; stroke-linecap:butt; stroke-linejoin:round; stroke-width:4; stroke-opacity:1; fill:none" points="
  175.445,398.093 194.343,398.093 
  "/>
<polyline clip-path="url(#clip110)" style="stroke:#000000; stroke-linecap:butt; stroke-linejoin:round; stroke-width:4; stroke-opacity:1; fill:none" points="
  175.445,200.427 194.343,200.427 
  "/>
<path clip-path="url(#clip110)" d="M127.501 1372.22 Q123.89 1372.22 122.061 1375.78 Q120.255 1379.33 120.255 1386.46 Q120.255 1393.56 122.061 1397.13 Q123.89 1400.67 127.501 1400.67 Q131.135 1400.67 132.941 1397.13 Q134.769 1393.56 134.769 1386.46 Q134.769 1379.33 132.941 1375.78 Q131.135 1372.22 127.501 1372.22 M127.501 1368.52 Q133.311 1368.52 136.367 1373.12 Q139.445 1377.71 139.445 1386.46 Q139.445 1395.18 136.367 1399.79 Q133.311 1404.37 127.501 1404.37 Q121.691 1404.37 118.612 1399.79 Q115.556 1395.18 115.556 1386.46 Q115.556 1377.71 118.612 1373.12 Q121.691 1368.52 127.501 1368.52 Z" fill="#000000" fill-rule="evenodd" fill-opacity="1" /><path clip-path="url(#clip110)" d="M119.538 1202.1 L127.177 1202.1 L127.177 1175.73 L118.867 1177.4 L118.867 1173.14 L127.13 1171.48 L131.806 1171.48 L131.806 1202.1 L139.445 1202.1 L139.445 1206.04 L119.538 1206.04 L119.538 1202.1 Z" fill="#000000" fill-rule="evenodd" fill-opacity="1" /><path clip-path="url(#clip110)" d="M123.126 1004.43 L139.445 1004.43 L139.445 1008.37 L117.501 1008.37 L117.501 1004.43 Q120.163 1001.68 124.746 997.05 Q129.353 992.398 130.533 991.055 Q132.779 988.532 133.658 986.796 Q134.561 985.037 134.561 983.347 Q134.561 980.592 132.617 978.856 Q130.695 977.12 127.593 977.12 Q125.394 977.12 122.941 977.884 Q120.51 978.648 117.732 980.199 L117.732 975.477 Q120.556 974.342 123.01 973.764 Q125.464 973.185 127.501 973.185 Q132.871 973.185 136.066 975.87 Q139.26 978.555 139.26 983.046 Q139.26 985.176 138.45 987.097 Q137.663 988.995 135.556 991.588 Q134.978 992.259 131.876 995.476 Q128.774 998.671 123.126 1004.43 Z" fill="#000000" fill-rule="evenodd" fill-opacity="1" /><path clip-path="url(#clip110)" d="M132.316 792.07 Q135.672 792.788 137.547 795.056 Q139.445 797.325 139.445 800.658 Q139.445 805.774 135.927 808.575 Q132.408 811.375 125.927 811.375 Q123.751 811.375 121.436 810.936 Q119.144 810.519 116.691 809.662 L116.691 805.149 Q118.635 806.283 120.95 806.862 Q123.265 807.44 125.788 807.44 Q130.186 807.44 132.478 805.704 Q134.792 803.968 134.792 800.658 Q134.792 797.602 132.64 795.889 Q130.51 794.153 126.691 794.153 L122.663 794.153 L122.663 790.311 L126.876 790.311 Q130.325 790.311 132.154 788.945 Q133.982 787.556 133.982 784.964 Q133.982 782.302 132.084 780.889 Q130.209 779.454 126.691 779.454 Q124.769 779.454 122.57 779.871 Q120.371 780.288 117.732 781.167 L117.732 777.001 Q120.394 776.26 122.709 775.889 Q125.047 775.519 127.107 775.519 Q132.431 775.519 135.533 777.95 Q138.635 780.357 138.635 784.477 Q138.635 787.348 136.992 789.339 Q135.348 791.306 132.316 792.07 Z" fill="#000000" fill-rule="evenodd" fill-opacity="1" /><path clip-path="url(#clip110)" d="M129.862 582.552 L118.056 601.001 L129.862 601.001 L129.862 582.552 M128.635 578.478 L134.515 578.478 L134.515 601.001 L139.445 601.001 L139.445 604.89 L134.515 604.89 L134.515 613.038 L129.862 613.038 L129.862 604.89 L114.26 604.89 L114.26 600.376 L128.635 578.478 Z" fill="#000000" fill-rule="evenodd" fill-opacity="1" /><path clip-path="url(#clip110)" d="M118.543 380.813 L136.899 380.813 L136.899 384.748 L122.825 384.748 L122.825 393.22 Q123.843 392.873 124.862 392.711 Q125.88 392.526 126.899 392.526 Q132.686 392.526 136.066 395.697 Q139.445 398.868 139.445 404.285 Q139.445 409.863 135.973 412.965 Q132.501 416.044 126.181 416.044 Q124.005 416.044 121.737 415.674 Q119.492 415.303 117.084 414.562 L117.084 409.863 Q119.168 410.998 121.39 411.553 Q123.612 412.109 126.089 412.109 Q130.093 412.109 132.431 410.002 Q134.769 407.896 134.769 404.285 Q134.769 400.674 132.431 398.567 Q130.093 396.461 126.089 396.461 Q124.214 396.461 122.339 396.877 Q120.487 397.294 118.543 398.174 L118.543 380.813 Z" fill="#000000" fill-rule="evenodd" fill-opacity="1" /><path clip-path="url(#clip110)" d="M127.917 198.563 Q124.769 198.563 122.918 200.716 Q121.089 202.869 121.089 206.619 Q121.089 210.346 122.918 212.522 Q124.769 214.675 127.917 214.675 Q131.066 214.675 132.894 212.522 Q134.746 210.346 134.746 206.619 Q134.746 202.869 132.894 200.716 Q131.066 198.563 127.917 198.563 M137.2 183.911 L137.2 188.17 Q135.441 187.337 133.635 186.897 Q131.853 186.457 130.093 186.457 Q125.464 186.457 123.01 189.582 Q120.58 192.707 120.232 199.026 Q121.598 197.013 123.658 195.948 Q125.718 194.86 128.195 194.86 Q133.404 194.86 136.413 198.031 Q139.445 201.179 139.445 206.619 Q139.445 211.943 136.297 215.161 Q133.149 218.378 127.917 218.378 Q121.922 218.378 118.751 213.795 Q115.58 209.188 115.58 200.462 Q115.58 192.267 119.468 187.406 Q123.357 182.522 129.908 182.522 Q131.667 182.522 133.45 182.869 Q135.255 183.216 137.2 183.911 Z" fill="#000000" fill-rule="evenodd" fill-opacity="1" /><path clip-path="url(#clip110)" d="M21.3417 763.176 Q21.7604 763.176 22.0181 763.272 Q22.2757 763.337 22.4045 763.594 Q22.5012 763.82 22.5334 763.981 Q22.5656 764.109 22.5978 764.496 Q22.7266 766.074 23.1453 767.394 Q23.5317 768.715 24.3047 769.842 Q25.0776 770.937 25.5929 771.549 Q26.1082 772.129 27.1388 773.159 L28.0728 774.061 L46.8488 790.422 Q47.4929 791.001 48.91 791.356 L58.2175 793.674 Q62.0822 794.576 62.372 794.576 Q62.9517 794.576 63.1449 794.254 Q63.306 793.9 63.4026 792.805 L63.5636 790.293 Q63.5636 788.811 63.8213 788.586 Q63.9823 788.457 64.2722 788.457 Q64.8841 788.457 65.2061 788.715 Q65.496 788.94 65.5604 789.166 Q65.5926 789.359 65.5926 789.713 L65.3994 798.151 L65.5926 806.46 Q65.5926 807.394 64.8519 807.394 Q64.3688 807.394 64.1111 807.33 Q63.8213 807.233 63.7247 806.943 Q63.5958 806.653 63.5958 806.428 Q63.5636 806.203 63.5636 805.591 Q63.5314 804.109 63.5314 803.368 Q63.4992 802.595 63.306 801.855 Q63.1127 801.114 62.9839 800.856 Q62.8229 800.567 62.2754 800.244 Q61.6957 799.89 61.2448 799.794 Q60.7939 799.665 59.6667 799.407 Q58.6683 799.149 53.2255 797.797 Q47.7828 796.444 47.6539 796.444 Q47.2997 796.444 46.5267 796.702 L24.82 804.818 Q23.8538 805.172 23.4673 805.462 Q23.0809 805.752 22.8554 806.718 Q22.5978 807.684 22.5978 809.616 Q22.5978 810.164 22.5656 810.422 Q22.5334 810.679 22.3723 810.905 Q22.2113 811.13 21.857 811.13 Q21.2451 811.13 20.9553 810.872 Q20.6332 810.615 20.601 810.422 Q20.5366 810.196 20.5366 809.874 Q20.5366 809.069 20.6332 806.203 Q20.7298 803.336 20.7298 802.499 L20.5366 794.19 Q20.5366 793.191 21.2773 793.191 Q22.1791 793.191 22.4045 793.546 Q22.5978 793.9 22.5978 794.769 Q22.5978 798.666 24.1759 798.666 Q24.3691 798.666 25.3031 798.28 L44.8842 791.034 L27.2676 775.736 L27.01 775.51 Q26.7523 775.317 26.5591 775.156 Q26.3659 774.995 26.0116 774.737 Q25.6573 774.48 25.3675 774.351 Q25.0776 774.19 24.7234 774.061 Q24.3691 773.932 24.1114 773.932 Q23.6284 773.932 23.3063 774.222 Q22.952 774.512 22.8232 774.963 Q22.6944 775.414 22.6622 775.736 Q22.5978 776.058 22.5978 776.316 Q22.5978 777.314 21.7926 777.314 Q21.2129 777.314 20.9231 777.056 Q20.601 776.799 20.5688 776.605 Q20.5366 776.38 20.5366 776.058 Q20.5366 774.995 20.6332 772.773 Q20.7298 770.551 20.7298 769.456 Q20.7298 768.554 20.6332 766.718 Q20.5366 764.882 20.5366 764.045 Q20.5366 763.176 21.3417 763.176 Z" fill="#000000" fill-rule="evenodd" fill-opacity="1" /><path clip-path="url(#clip110)" d="M63.3787 742.425 Q64.01 742.425 64.1678 742.719 Q64.303 743.012 64.303 743.823 L64.303 748.152 L77.9197 751.578 Q79.1145 751.849 80.129 751.849 Q81.2562 751.849 81.7522 751.511 Q82.2481 751.15 82.2481 750.406 Q82.2481 748.941 80.918 747.363 Q79.5879 745.762 76.3416 744.409 Q75.9133 744.229 75.8231 744.139 Q75.7104 744.026 75.7104 743.733 Q75.7104 743.169 76.1612 743.169 Q76.319 743.169 77.0405 743.485 Q77.7619 743.778 78.8214 744.432 Q79.881 745.063 80.873 745.897 Q81.8649 746.709 82.5863 747.949 Q83.2852 749.189 83.2852 750.519 Q83.2852 752.39 82.0903 753.585 Q80.8955 754.757 79.0243 754.757 Q78.4156 754.757 76.4769 754.284 Q74.5155 753.81 64.303 751.24 L64.303 755.321 Q64.303 755.884 64.2805 756.11 Q64.2579 756.313 64.1452 756.47 Q64.01 756.606 63.7394 756.606 Q63.3111 756.606 63.1307 756.425 Q62.9278 756.245 62.9053 756.02 Q62.8602 755.772 62.8602 755.208 L62.8602 750.879 L55.5334 749.076 Q54.812 748.896 54.4062 748.445 Q53.9778 747.971 53.9327 747.701 Q53.8651 747.43 53.8651 747.227 Q53.8651 746.619 54.2033 746.258 Q54.5189 745.897 55.105 745.897 Q55.4207 745.897 62.8602 747.791 L62.8602 743.733 Q62.8602 743.214 62.8828 743.012 Q62.9053 742.786 63.018 742.606 Q63.1307 742.425 63.3787 742.425 Z" fill="#000000" fill-rule="evenodd" fill-opacity="1" /><path clip-path="url(#clip110)" d="M811.351 12.096 L862.514 12.096 L862.514 18.9825 L841.044 18.9825 L841.044 72.576 L832.821 72.576 L832.821 18.9825 L811.351 18.9825 L811.351 12.096 Z" fill="#000000" fill-rule="evenodd" fill-opacity="1" /><path clip-path="url(#clip110)" d="M884.187 34.1734 Q882.931 33.4443 881.432 33.1202 Q879.974 32.7556 878.191 32.7556 Q871.872 32.7556 868.469 36.8875 Q865.107 40.9789 865.107 48.6757 L865.107 72.576 L857.613 72.576 L857.613 27.2059 L865.107 27.2059 L865.107 34.2544 Q867.456 30.1225 871.224 28.1376 Q874.991 26.1121 880.379 26.1121 Q881.148 26.1121 882.08 26.2337 Q883.012 26.3147 884.146 26.5172 L884.187 34.1734 Z" fill="#000000" fill-rule="evenodd" fill-opacity="1" /><path clip-path="url(#clip110)" d="M912.624 49.7694 Q903.59 49.7694 900.107 51.8354 Q896.623 53.9013 896.623 58.8839 Q896.623 62.8538 899.215 65.2034 Q901.848 67.5124 906.345 67.5124 Q912.543 67.5124 916.27 63.1374 Q920.037 58.7219 920.037 51.4303 L920.037 49.7694 L912.624 49.7694 M927.491 46.6907 L927.491 72.576 L920.037 72.576 L920.037 65.6895 Q917.485 69.8214 913.677 71.8063 Q909.869 73.7508 904.36 73.7508 Q897.392 73.7508 893.261 69.8619 Q889.169 65.9325 889.169 59.3701 Q889.169 51.7138 894.273 47.825 Q899.418 43.9361 909.586 43.9361 L920.037 43.9361 L920.037 43.2069 Q920.037 38.0623 916.634 35.2672 Q913.272 32.4315 907.155 32.4315 Q903.266 32.4315 899.58 33.3632 Q895.894 34.295 892.491 36.1584 L892.491 29.2718 Q896.582 27.692 900.431 26.9223 Q904.279 26.1121 907.925 26.1121 Q917.769 26.1121 922.63 31.2163 Q927.491 36.3204 927.491 46.6907 Z" fill="#000000" fill-rule="evenodd" fill-opacity="1" /><path clip-path="url(#clip110)" d="M980.558 45.1919 L980.558 72.576 L973.104 72.576 L973.104 45.4349 Q973.104 38.994 970.592 35.7938 Q968.081 32.5936 963.058 32.5936 Q957.022 32.5936 953.538 36.4419 Q950.054 40.2903 950.054 46.9338 L950.054 72.576 L942.56 72.576 L942.56 27.2059 L950.054 27.2059 L950.054 34.2544 Q952.728 30.163 956.333 28.1376 Q959.979 26.1121 964.718 26.1121 Q972.537 26.1121 976.547 30.9732 Q980.558 35.7938 980.558 45.1919 Z" fill="#000000" fill-rule="evenodd" fill-opacity="1" /><path clip-path="url(#clip110)" d="M1024.35 28.5427 L1024.35 35.5912 Q1021.19 33.9709 1017.79 33.1607 Q1014.38 32.3505 1010.74 32.3505 Q1005.19 32.3505 1002.39 34.0519 Q999.637 35.7533 999.637 39.156 Q999.637 41.7486 1001.62 43.2475 Q1003.61 44.7058 1009.6 46.0426 L1012.15 46.6097 Q1020.09 48.3111 1023.42 51.4303 Q1026.78 54.509 1026.78 60.0587 Q1026.78 66.3781 1021.76 70.0644 Q1016.77 73.7508 1008.02 73.7508 Q1004.38 73.7508 1000.41 73.0216 Q996.478 72.3329 992.103 70.9151 L992.103 63.2184 Q996.235 65.3654 1000.24 66.4591 Q1004.26 67.5124 1008.18 67.5124 Q1013.45 67.5124 1016.29 65.73 Q1019.12 63.9071 1019.12 60.6258 Q1019.12 57.5877 1017.06 55.9673 Q1015.03 54.3469 1008.1 52.8481 L1005.51 52.2405 Q998.584 50.7821 995.505 47.7845 Q992.427 44.7463 992.427 39.4801 Q992.427 33.0797 996.964 29.5959 Q1001.5 26.1121 1009.85 26.1121 Q1013.98 26.1121 1017.62 26.7198 Q1021.27 27.3274 1024.35 28.5427 Z" fill="#000000" fill-rule="evenodd" fill-opacity="1" /><path clip-path="url(#clip110)" d="M1061.62 9.54393 L1061.62 15.7418 L1054.49 15.7418 Q1050.48 15.7418 1048.9 17.3622 Q1047.36 18.9825 1047.36 23.1955 L1047.36 27.2059 L1059.63 27.2059 L1059.63 32.9987 L1047.36 32.9987 L1047.36 72.576 L1039.86 72.576 L1039.86 32.9987 L1032.73 32.9987 L1032.73 27.2059 L1039.86 27.2059 L1039.86 24.0462 Q1039.86 16.471 1043.39 13.0277 Q1046.91 9.54393 1054.57 9.54393 L1061.62 9.54393 Z" fill="#000000" fill-rule="evenodd" fill-opacity="1" /><path clip-path="url(#clip110)" d="M1085.44 32.4315 Q1079.44 32.4315 1075.96 37.1306 Q1072.47 41.7891 1072.47 49.9314 Q1072.47 58.0738 1075.92 62.7728 Q1079.4 67.4314 1085.44 67.4314 Q1091.39 67.4314 1094.87 62.7323 Q1098.36 58.0333 1098.36 49.9314 Q1098.36 41.8701 1094.87 37.1711 Q1091.39 32.4315 1085.44 32.4315 M1085.44 26.1121 Q1095.16 26.1121 1100.71 32.4315 Q1106.26 38.7509 1106.26 49.9314 Q1106.26 61.0714 1100.71 67.4314 Q1095.16 73.7508 1085.44 73.7508 Q1075.67 73.7508 1070.12 67.4314 Q1064.61 61.0714 1064.61 49.9314 Q1064.61 38.7509 1070.12 32.4315 Q1075.67 26.1121 1085.44 26.1121 Z" fill="#000000" fill-rule="evenodd" fill-opacity="1" /><path clip-path="url(#clip110)" d="M1144.9 34.1734 Q1143.65 33.4443 1142.15 33.1202 Q1140.69 32.7556 1138.91 32.7556 Q1132.59 32.7556 1129.19 36.8875 Q1125.82 40.9789 1125.82 48.6757 L1125.82 72.576 L1118.33 72.576 L1118.33 27.2059 L1125.82 27.2059 L1125.82 34.2544 Q1128.17 30.1225 1131.94 28.1376 Q1135.71 26.1121 1141.09 26.1121 Q1141.86 26.1121 1142.8 26.2337 Q1143.73 26.3147 1144.86 26.5172 L1144.9 34.1734 Z" fill="#000000" fill-rule="evenodd" fill-opacity="1" /><path clip-path="url(#clip110)" d="M1186.59 35.9153 Q1189.38 30.8922 1193.27 28.5022 Q1197.16 26.1121 1202.43 26.1121 Q1209.51 26.1121 1213.36 31.0947 Q1217.21 36.0368 1217.21 45.1919 L1217.21 72.576 L1209.72 72.576 L1209.72 45.4349 Q1209.72 38.913 1207.41 35.7533 Q1205.1 32.5936 1200.36 32.5936 Q1194.57 32.5936 1191.2 36.4419 Q1187.84 40.2903 1187.84 46.9338 L1187.84 72.576 L1180.35 72.576 L1180.35 45.4349 Q1180.35 38.8725 1178.04 35.7533 Q1175.73 32.5936 1170.91 32.5936 Q1165.2 32.5936 1161.84 36.4824 Q1158.47 40.3308 1158.47 46.9338 L1158.47 72.576 L1150.98 72.576 L1150.98 27.2059 L1158.47 27.2059 L1158.47 34.2544 Q1161.03 30.082 1164.59 28.0971 Q1168.15 26.1121 1173.06 26.1121 Q1178 26.1121 1181.44 28.6237 Q1184.93 31.1352 1186.59 35.9153 Z" fill="#000000" fill-rule="evenodd" fill-opacity="1" /><path clip-path="url(#clip110)" d="M1252.7 49.7694 Q1243.66 49.7694 1240.18 51.8354 Q1236.7 53.9013 1236.7 58.8839 Q1236.7 62.8538 1239.29 65.2034 Q1241.92 67.5124 1246.42 67.5124 Q1252.62 67.5124 1256.34 63.1374 Q1260.11 58.7219 1260.11 51.4303 L1260.11 49.7694 L1252.7 49.7694 M1267.56 46.6907 L1267.56 72.576 L1260.11 72.576 L1260.11 65.6895 Q1257.56 69.8214 1253.75 71.8063 Q1249.94 73.7508 1244.43 73.7508 Q1237.47 73.7508 1233.33 69.8619 Q1229.24 65.9325 1229.24 59.3701 Q1229.24 51.7138 1234.35 47.825 Q1239.49 43.9361 1249.66 43.9361 L1260.11 43.9361 L1260.11 43.2069 Q1260.11 38.0623 1256.71 35.2672 Q1253.35 32.4315 1247.23 32.4315 Q1243.34 32.4315 1239.65 33.3632 Q1235.97 34.295 1232.56 36.1584 L1232.56 29.2718 Q1236.66 27.692 1240.5 26.9223 Q1244.35 26.1121 1248 26.1121 Q1257.84 26.1121 1262.7 31.2163 Q1267.56 36.3204 1267.56 46.6907 Z" fill="#000000" fill-rule="evenodd" fill-opacity="1" /><path clip-path="url(#clip110)" d="M1290.29 14.324 L1290.29 27.2059 L1305.64 27.2059 L1305.64 32.9987 L1290.29 32.9987 L1290.29 57.6282 Q1290.29 63.1779 1291.79 64.7578 Q1293.33 66.3376 1297.99 66.3376 L1305.64 66.3376 L1305.64 72.576 L1297.99 72.576 Q1289.36 72.576 1286.08 69.3758 Q1282.8 66.1351 1282.8 57.6282 L1282.8 32.9987 L1277.33 32.9987 L1277.33 27.2059 L1282.8 27.2059 L1282.8 14.324 L1290.29 14.324 Z" fill="#000000" fill-rule="evenodd" fill-opacity="1" /><path clip-path="url(#clip110)" d="M1315.45 27.2059 L1322.9 27.2059 L1322.9 72.576 L1315.45 72.576 L1315.45 27.2059 M1315.45 9.54393 L1322.9 9.54393 L1322.9 18.9825 L1315.45 18.9825 L1315.45 9.54393 Z" fill="#000000" fill-rule="evenodd" fill-opacity="1" /><path clip-path="url(#clip110)" d="M1356.08 32.4315 Q1350.08 32.4315 1346.6 37.1306 Q1343.11 41.7891 1343.11 49.9314 Q1343.11 58.0738 1346.56 62.7728 Q1350.04 67.4314 1356.08 67.4314 Q1362.03 67.4314 1365.51 62.7323 Q1369 58.0333 1369 49.9314 Q1369 41.8701 1365.51 37.1711 Q1362.03 32.4315 1356.08 32.4315 M1356.08 26.1121 Q1365.8 26.1121 1371.35 32.4315 Q1376.9 38.7509 1376.9 49.9314 Q1376.9 61.0714 1371.35 67.4314 Q1365.8 73.7508 1356.08 73.7508 Q1346.31 73.7508 1340.76 67.4314 Q1335.25 61.0714 1335.25 49.9314 Q1335.25 38.7509 1340.76 32.4315 Q1346.31 26.1121 1356.08 26.1121 Z" fill="#000000" fill-rule="evenodd" fill-opacity="1" /><path clip-path="url(#clip110)" d="M1426.97 45.1919 L1426.97 72.576 L1419.51 72.576 L1419.51 45.4349 Q1419.51 38.994 1417 35.7938 Q1414.49 32.5936 1409.47 32.5936 Q1403.43 32.5936 1399.95 36.4419 Q1396.46 40.2903 1396.46 46.9338 L1396.46 72.576 L1388.97 72.576 L1388.97 27.2059 L1396.46 27.2059 L1396.46 34.2544 Q1399.14 30.163 1402.74 28.1376 Q1406.39 26.1121 1411.13 26.1121 Q1418.95 26.1121 1422.96 30.9732 Q1426.97 35.7938 1426.97 45.1919 Z" fill="#000000" fill-rule="evenodd" fill-opacity="1" /><path clip-path="url(#clip110)" d="M1475.58 14.324 L1475.58 27.2059 L1490.93 27.2059 L1490.93 32.9987 L1475.58 32.9987 L1475.58 57.6282 Q1475.58 63.1779 1477.08 64.7578 Q1478.62 66.3376 1483.27 66.3376 L1490.93 66.3376 L1490.93 72.576 L1483.27 72.576 Q1474.65 72.576 1471.37 69.3758 Q1468.08 66.1351 1468.08 57.6282 L1468.08 32.9987 L1462.62 32.9987 L1462.62 27.2059 L1468.08 27.2059 L1468.08 14.324 L1475.58 14.324 Z" fill="#000000" fill-rule="evenodd" fill-opacity="1" /><path clip-path="url(#clip110)" d="M1518.32 32.4315 Q1512.32 32.4315 1508.84 37.1306 Q1505.35 41.7891 1505.35 49.9314 Q1505.35 58.0738 1508.8 62.7728 Q1512.28 67.4314 1518.32 67.4314 Q1524.27 67.4314 1527.75 62.7323 Q1531.24 58.0333 1531.24 49.9314 Q1531.24 41.8701 1527.75 37.1711 Q1524.27 32.4315 1518.32 32.4315 M1518.32 26.1121 Q1528.04 26.1121 1533.59 32.4315 Q1539.14 38.7509 1539.14 49.9314 Q1539.14 61.0714 1533.59 67.4314 Q1528.04 73.7508 1518.32 73.7508 Q1508.55 73.7508 1503 67.4314 Q1497.49 61.0714 1497.49 49.9314 Q1497.49 38.7509 1503 32.4315 Q1508.55 26.1121 1518.32 26.1121 Z" fill="#000000" fill-rule="evenodd" fill-opacity="1" /><path clip-path="url(#clip110)" d="M1616.67 48.0275 L1616.67 51.6733 L1582.4 51.6733 Q1582.89 59.3701 1587.02 63.421 Q1591.19 67.4314 1598.6 67.4314 Q1602.9 67.4314 1606.91 66.3781 Q1610.96 65.3249 1614.93 63.2184 L1614.93 70.267 Q1610.92 71.9684 1606.71 72.8596 Q1602.49 73.7508 1598.16 73.7508 Q1587.3 73.7508 1580.94 67.4314 Q1574.62 61.1119 1574.62 50.3365 Q1574.62 39.1965 1580.62 32.6746 Q1586.65 26.1121 1596.86 26.1121 Q1606.02 26.1121 1611.32 32.0264 Q1616.67 37.9003 1616.67 48.0275 M1609.22 45.84 Q1609.14 39.7232 1605.77 36.0774 Q1602.45 32.4315 1596.94 32.4315 Q1590.7 32.4315 1586.94 35.9558 Q1583.21 39.4801 1582.64 45.8805 L1609.22 45.84 Z" fill="#000000" fill-rule="evenodd" fill-opacity="1" /><path clip-path="url(#clip110)" d="M1665.16 27.2059 L1648.75 49.2833 L1666.01 72.576 L1657.22 72.576 L1644.01 54.752 L1630.81 72.576 L1622.02 72.576 L1639.64 48.8377 L1623.52 27.2059 L1632.31 27.2059 L1644.34 43.369 L1656.37 27.2059 L1665.16 27.2059 Z" fill="#000000" fill-rule="evenodd" fill-opacity="1" /><path clip-path="url(#clip110)" d="M1683.75 65.7705 L1683.75 89.8329 L1676.26 89.8329 L1676.26 27.2059 L1683.75 27.2059 L1683.75 34.0924 Q1686.1 30.0415 1689.67 28.0971 Q1693.27 26.1121 1698.26 26.1121 Q1706.52 26.1121 1711.66 32.6746 Q1716.85 39.2371 1716.85 49.9314 Q1716.85 60.6258 1711.66 67.1883 Q1706.52 73.7508 1698.26 73.7508 Q1693.27 73.7508 1689.67 71.8063 Q1686.1 69.8214 1683.75 65.7705 M1709.11 49.9314 Q1709.11 41.7081 1705.71 37.0496 Q1702.35 32.3505 1696.43 32.3505 Q1690.52 32.3505 1687.12 37.0496 Q1683.75 41.7081 1683.75 49.9314 Q1683.75 58.1548 1687.12 62.8538 Q1690.52 67.5124 1696.43 67.5124 Q1702.35 67.5124 1705.71 62.8538 Q1709.11 58.1548 1709.11 49.9314 Z" fill="#000000" fill-rule="evenodd" fill-opacity="1" /><polyline clip-path="url(#clip113)" style="stroke:#009af9; stroke-linecap:butt; stroke-linejoin:round; stroke-width:4; stroke-opacity:1; fill:none" points="
  237.067,933.439 241.184,1133.32 245.3,1300.5 249.416,1334.63 253.533,1298.32 257.649,961.715 261.765,1228.63 265.882,999.479 269.998,1276.02 274.115,1321.59 
  278.231,1157 282.347,1229.9 286.464,1143.29 290.58,1286.95 294.696,1245.36 298.813,783.671 302.929,1381.11 307.045,1372.41 311.162,1022.81 315.278,1164.01 
  319.395,1369.33 323.511,1194.38 327.627,1204.65 331.744,1316.16 335.86,1153.37 339.976,1206.53 344.093,1372.63 348.209,1202.62 352.325,1290.64 356.442,1340.84 
  360.558,1206.09 364.675,819.443 368.791,1221.59 372.907,1350.77 377.024,1373.15 381.14,1057.93 385.256,1160.77 389.373,1024.28 393.489,1372.86 397.605,1374.41 
  401.722,1369.09 405.838,1017.16 409.955,1255.67 414.071,963.208 418.187,1294.75 422.304,1317.7 426.42,1358.44 430.536,920.606 434.653,1376.97 438.769,1355.28 
  442.886,1226.85 447.002,1083.67 451.118,1353.97 455.235,1327.01 459.351,1326.51 463.467,1285.34 467.584,1262.92 471.7,1325.93 475.816,1200.11 479.933,1281.55 
  484.049,1360.13 488.166,1384.01 492.282,1163.93 496.398,1336.9 500.515,1134.98 504.631,1297.95 508.747,1115.49 512.864,1384.7 516.98,1379.41 521.096,1072.36 
  525.213,891.023 529.329,1360.49 533.446,1342.62 537.562,1172.48 541.678,1204.76 545.795,1330.68 549.911,1204.83 554.027,981.843 558.144,1100.98 562.26,749.42 
  566.376,1177.98 570.493,1266.17 574.609,1299.5 578.726,1238.04 582.842,1343.9 586.958,1254.77 591.075,1059.41 595.191,910.391 599.307,1368.3 603.424,1382.57 
  607.54,1352.43 611.657,1342.53 615.773,1365.98 619.889,1293.23 624.006,1178.23 628.122,1241.25 632.238,1309.52 636.355,1167.08 640.471,1374.64 644.587,1206.43 
  648.704,1025.43 652.82,771.769 656.937,1193.27 661.053,771.091 665.169,1297.31 669.286,1172.35 673.402,1279.02 677.518,1383.27 681.635,1307.27 685.751,1332.22 
  689.867,958.912 693.984,1355.15 698.1,1176.95 702.217,1374.23 706.333,1362.55 710.449,1270.19 714.566,1242.48 718.682,1327.04 722.798,1383.55 726.915,958.695 
  731.031,934.445 735.148,916.967 739.264,1349.75 743.38,1281.35 747.497,1296.83 751.613,1373.22 755.729,1379.48 759.846,991.196 763.962,1235.05 768.078,1192.63 
  772.195,1383.03 776.311,1210.99 780.428,1185.69 784.544,1310.29 788.66,1079.05 792.777,1074.02 796.893,1227.56 801.009,1378.98 805.126,1141.07 809.242,1314.95 
  813.358,1236.69 817.475,930.26 821.591,871.698 825.708,1102.81 829.824,1272.59 833.94,1094.98 838.057,920.753 842.173,1354.58 846.289,1111.84 850.406,1034.01 
  854.522,1241.71 858.638,1148.07 862.755,1208.39 866.871,1364.72 870.988,1221.89 875.104,1211.32 879.22,1108.7 883.337,957.899 887.453,701.919 891.569,1308.13 
  895.686,1008.69 899.802,937.226 903.919,1017.84 908.035,193.79 912.151,1357.99 916.268,989.748 920.384,1303.51 924.5,1034.34 928.617,1341.72 932.733,1311.75 
  936.849,1318.37 940.966,1178.16 945.082,1312.67 949.199,638.228 953.315,920.557 957.431,1376.95 961.548,1031.1 965.664,1164.98 969.78,1228.02 973.897,1364.28 
  978.013,1286.33 982.129,1255.01 986.246,419.278 990.362,1317.16 994.479,1241.29 998.595,1303.32 1002.71,1144.91 1006.83,1366.93 1010.94,1262.94 1015.06,1272.72 
  1019.18,1372.04 1023.29,1293.03 1027.41,656.344 1031.53,798.388 1035.64,1363.14 1039.76,1350.3 1043.87,1257.01 1047.99,1325.8 1052.11,1248.86 1056.22,1208.36 
  1060.34,1257.77 1064.46,1253.59 1068.57,1168.29 1072.69,849.281 1076.81,1208.69 1080.92,1159.83 1085.04,1191.05 1089.15,1350.53 1093.27,1182.19 1097.39,1226.83 
  1101.5,1189.23 1105.62,1357.11 1109.74,1285.56 1113.85,1253.41 1117.97,1228.13 1122.09,1265.6 1126.2,1292.31 1130.32,1192.65 1134.44,1214.66 1138.55,1292.11 
  1142.67,1377.23 1146.78,1193.95 1150.9,1316.82 1155.02,1340.7 1159.13,1120.48 1163.25,1306.09 1167.37,1280.53 1171.48,992.682 1175.6,1298.9 1179.72,1267.75 
  1183.83,1275.21 1187.95,908.78 1192.06,1129.29 1196.18,1126.27 1200.3,1293.28 1204.41,1187.53 1208.53,1146.79 1212.65,1233.15 1216.76,1293.82 1220.88,1373.63 
  1225,1375.17 1229.11,1244.91 1233.23,1225.2 1237.34,1372.13 1241.46,1369 1245.58,1282.24 1249.69,1338.82 1253.81,976.194 1257.93,1212.51 1262.04,1364.15 
  1266.16,1337.54 1270.28,1290.94 1274.39,1324.47 1278.51,1082.21 1282.62,1353.05 1286.74,1138.28 1290.86,1382.44 1294.97,1336.2 1299.09,1358.6 1303.21,1205.04 
  1307.32,1133.57 1311.44,1250.9 1315.56,1327.06 1319.67,1066.9 1323.79,1083.32 1327.9,1239.18 1332.02,1177.79 1336.14,1257.7 1340.25,1039.7 1344.37,1131.39 
  1348.49,1344.63 1352.6,1262.65 1356.72,1331.53 1360.84,1269.79 1364.95,1259.14 1369.07,1382.67 1373.18,1202.75 1377.3,1135.83 1381.42,1285.74 1385.53,1377.97 
  1389.65,1346.01 1393.77,1348.67 1397.88,998.086 1402,1353.13 1406.12,1325.53 1410.23,1378.15 1414.35,1145.53 1418.46,1269.88 1422.58,1185.63 1426.7,1144.72 
  1430.81,1368.2 1434.93,1197.87 1439.05,941.76 1443.16,902.655 1447.28,1182.99 1451.4,1371.78 1455.51,1189.47 1459.63,1383.53 1463.74,1006.3 1467.86,627.298 
  1471.98,1225.27 1476.09,1029.35 1480.21,1369.89 1484.33,1181.64 1488.44,1121.47 1492.56,1299.32 1496.68,915.982 1500.79,1237.76 1504.91,1357.36 1509.02,1352.44 
  1513.14,1289.96 1517.26,1178.88 1521.37,1183.64 1525.49,1360.07 1529.61,1236.46 1533.72,1281.14 1537.84,1370.39 1541.96,1157.31 1546.07,1001.24 1550.19,1292.46 
  1554.3,571.06 1558.42,1212.87 1562.54,1285.55 1566.65,1331.54 1570.77,1151.58 1574.89,1299.81 1579,1314.86 1583.12,1369.87 1587.24,1067.09 1591.35,1055.35 
  1595.47,1336.92 1599.58,1252.84 1603.7,1303.33 1607.82,821.747 1611.93,917.951 1616.05,1305.32 1620.17,925.482 1624.28,1373.23 1628.4,1164.75 1632.52,1340.09 
  1636.63,1265.79 1640.75,1159.06 1644.86,1298.81 1648.98,1171.52 1653.1,1275.75 1657.21,935.505 1661.33,1223.67 1665.45,1047.55 1669.56,1380.39 1673.68,1380.79 
  1677.8,1308.37 1681.91,1218.18 1686.03,1361.51 1690.14,1134.94 1694.26,1339.15 1698.38,1156.05 1702.49,1123.29 1706.61,1335.13 1710.73,1066.99 1714.84,160.256 
  1718.96,1218.13 1723.08,1188.08 1727.19,1367.55 1731.31,1278.84 1735.42,1262.01 1739.54,1349.52 1743.66,1125.92 1747.77,1345.22 1751.89,1134.64 1756.01,1161.03 
  1760.12,1372.74 1764.24,1324.05 1768.36,1159.26 1772.47,963.458 1776.59,1257.82 1780.7,1329.65 1784.82,1276.44 1788.94,1257.89 1793.05,1205.4 1797.17,1110.25 
  1801.29,1288.69 1805.4,1253 1809.52,1336.19 1813.64,1349.43 1817.75,717.929 1821.87,1371.07 1825.98,737.909 1830.1,1134.28 1834.22,479.317 1838.33,1371.5 
  1842.45,507.862 1846.57,1147.78 1850.68,1337.16 1854.8,1075.64 1858.92,1196.45 1863.03,1037.8 1867.15,1127.43 1871.26,1350.96 1875.38,1385.63 1879.5,1345.01 
  1883.61,1227.29 1887.73,1362.03 1891.85,1386.4 1895.96,1378.19 1900.08,1364.1 1904.2,1237.27 1908.31,1059.5 1912.43,1325.92 1916.54,1363.97 1920.66,1160.4 
  1924.78,1246.97 1928.89,1278.49 1933.01,644.99 1937.13,1312.46 1941.24,1322.4 1945.36,1107 1949.48,1017.3 1953.59,1152.44 1957.71,1055.29 1961.82,961.031 
  1965.94,1358.69 1970.06,1231.9 1974.17,1353.76 1978.29,1378.62 1982.41,1099.05 1986.52,1092.36 1990.64,705.335 1994.76,1310.31 1998.87,1376.2 2002.99,1130.29 
  2007.1,1379.56 2011.22,1191.22 2015.34,1115.53 2019.45,1197.12 2023.57,1268.46 2027.69,1190.64 2031.8,1020.49 2035.92,1373.42 2040.04,1329.28 2044.15,1342.46 
  2048.27,1360.72 2052.38,882.288 2056.5,1333.15 2060.62,878.583 2064.73,963.225 2068.85,1255.2 2072.97,1317.27 2077.08,979.134 2081.2,1038.4 2085.32,1240.91 
  2089.43,1086.45 2093.55,1311.96 2097.66,1046.76 2101.78,1377.06 2105.9,1373.27 2110.01,621.023 2114.13,1275.13 2118.25,1188.8 2122.36,1345.33 2126.48,1364.5 
  2130.6,1204.34 2134.71,913.256 2138.83,1053.35 2142.94,1286.47 2147.06,1061.02 2151.18,1269.31 2155.29,1374.7 2159.41,962.3 2163.53,1144.83 2167.64,1366.8 
  2171.76,1234.93 2175.88,1279.21 2179.99,1346.71 2184.11,1028.46 2188.22,1249.41 2192.34,1262.2 2196.46,1338.21 2200.57,1032.33 2204.69,1370.6 2208.81,1159.08 
  2212.92,1346.64 2217.04,1312.43 2221.16,614.66 2225.27,1323.77 2229.39,1260.89 2233.5,1033.58 2237.62,1365.28 2241.74,1367.61 2245.85,997.902 2249.97,1285.65 
  2254.09,1337.71 2258.2,1316 2262.32,558.239 2266.44,1298.2 2270.55,1370.75 2274.67,1243.58 2278.78,1241.32 2282.9,973.96 2287.02,1214.72 2291.13,1215.1 
  
  "/>
</svg>
