<?xml version="1.0" encoding="utf-8"?>
<svg xmlns="http://www.w3.org/2000/svg" xmlns:xlink="http://www.w3.org/1999/xlink" width="600" height="400" viewBox="0 0 2400 1600">
<defs>
  <clipPath id="clip140">
    <rect x="0" y="0" width="2400" height="1600"/>
  </clipPath>
</defs>
<path clip-path="url(#clip140)" d="
M0 1600 L2400 1600 L2400 0 L0 0  Z
  " fill="#ffffff" fill-rule="evenodd" fill-opacity="1"/>
<defs>
  <clipPath id="clip141">
    <rect x="480" y="0" width="1681" height="1600"/>
  </clipPath>
</defs>
<defs>
  <clipPath id="clip142">
    <rect x="186" y="123" width="2167" height="1364"/>
  </clipPath>
</defs>
<path clip-path="url(#clip140)" d="
M186.274 1486.45 L2352.76 1486.45 L2352.76 123.472 L186.274 123.472  Z
  " fill="#ffffff" fill-rule="evenodd" fill-opacity="1"/>
<polyline clip-path="url(#clip142)" style="stroke:#000000; stroke-linecap:butt; stroke-linejoin:round; stroke-width:2; stroke-opacity:0.1; fill:none" points="
  289.964,1486.45 289.964,123.472 
  "/>
<polyline clip-path="url(#clip142)" style="stroke:#000000; stroke-linecap:butt; stroke-linejoin:round; stroke-width:2; stroke-opacity:0.1; fill:none" points="
  724.579,1486.45 724.579,123.472 
  "/>
<polyline clip-path="url(#clip142)" style="stroke:#000000; stroke-linecap:butt; stroke-linejoin:round; stroke-width:2; stroke-opacity:0.1; fill:none" points="
  1159.19,1486.45 1159.19,123.472 
  "/>
<polyline clip-path="url(#clip142)" style="stroke:#000000; stroke-linecap:butt; stroke-linejoin:round; stroke-width:2; stroke-opacity:0.1; fill:none" points="
  1593.81,1486.45 1593.81,123.472 
  "/>
<polyline clip-path="url(#clip142)" style="stroke:#000000; stroke-linecap:butt; stroke-linejoin:round; stroke-width:2; stroke-opacity:0.1; fill:none" points="
  2028.42,1486.45 2028.42,123.472 
  "/>
<polyline clip-path="url(#clip140)" style="stroke:#000000; stroke-linecap:butt; stroke-linejoin:round; stroke-width:4; stroke-opacity:1; fill:none" points="
  186.274,1486.45 2352.76,1486.45 
  "/>
<polyline clip-path="url(#clip140)" style="stroke:#000000; stroke-linecap:butt; stroke-linejoin:round; stroke-width:4; stroke-opacity:1; fill:none" points="
  289.964,1486.45 289.964,1467.55 
  "/>
<polyline clip-path="url(#clip140)" style="stroke:#000000; stroke-linecap:butt; stroke-linejoin:round; stroke-width:4; stroke-opacity:1; fill:none" points="
  724.579,1486.45 724.579,1467.55 
  "/>
<polyline clip-path="url(#clip140)" style="stroke:#000000; stroke-linecap:butt; stroke-linejoin:round; stroke-width:4; stroke-opacity:1; fill:none" points="
  1159.19,1486.45 1159.19,1467.55 
  "/>
<polyline clip-path="url(#clip140)" style="stroke:#000000; stroke-linecap:butt; stroke-linejoin:round; stroke-width:4; stroke-opacity:1; fill:none" points="
  1593.81,1486.45 1593.81,1467.55 
  "/>
<polyline clip-path="url(#clip140)" style="stroke:#000000; stroke-linecap:butt; stroke-linejoin:round; stroke-width:4; stroke-opacity:1; fill:none" points="
  2028.42,1486.45 2028.42,1467.55 
  "/>
<path clip-path="url(#clip140)" d="M289.964 1517.37 Q286.353 1517.37 284.525 1520.93 Q282.719 1524.47 282.719 1531.6 Q282.719 1538.71 284.525 1542.27 Q286.353 1545.82 289.964 1545.82 Q293.599 1545.82 295.404 1542.27 Q297.233 1538.71 297.233 1531.6 Q297.233 1524.47 295.404 1520.93 Q293.599 1517.37 289.964 1517.37 M289.964 1513.66 Q295.775 1513.66 298.83 1518.27 Q301.909 1522.85 301.909 1531.6 Q301.909 1540.33 298.83 1544.94 Q295.775 1549.52 289.964 1549.52 Q284.154 1549.52 281.076 1544.94 Q278.02 1540.33 278.02 1531.6 Q278.02 1522.85 281.076 1518.27 Q284.154 1513.66 289.964 1513.66 Z" fill="#000000" fill-rule="evenodd" fill-opacity="1" /><path clip-path="url(#clip140)" d="M719.232 1544.91 L735.552 1544.91 L735.552 1548.85 L713.607 1548.85 L713.607 1544.91 Q716.269 1542.16 720.853 1537.53 Q725.459 1532.88 726.64 1531.53 Q728.885 1529.01 729.765 1527.27 Q730.667 1525.51 730.667 1523.82 Q730.667 1521.07 728.723 1519.33 Q726.802 1517.6 723.7 1517.6 Q721.501 1517.6 719.047 1518.36 Q716.617 1519.13 713.839 1520.68 L713.839 1515.95 Q716.663 1514.82 719.117 1514.24 Q721.57 1513.66 723.607 1513.66 Q728.978 1513.66 732.172 1516.35 Q735.366 1519.03 735.366 1523.52 Q735.366 1525.65 734.556 1527.57 Q733.769 1529.47 731.663 1532.07 Q731.084 1532.74 727.982 1535.95 Q724.88 1539.15 719.232 1544.91 Z" fill="#000000" fill-rule="evenodd" fill-opacity="1" /><path clip-path="url(#clip140)" d="M1162.2 1518.36 L1150.4 1536.81 L1162.2 1536.81 L1162.2 1518.36 M1160.98 1514.29 L1166.86 1514.29 L1166.86 1536.81 L1171.79 1536.81 L1171.79 1540.7 L1166.86 1540.7 L1166.86 1548.85 L1162.2 1548.85 L1162.2 1540.7 L1146.6 1540.7 L1146.6 1536.19 L1160.98 1514.29 Z" fill="#000000" fill-rule="evenodd" fill-opacity="1" /><path clip-path="url(#clip140)" d="M1594.21 1529.7 Q1591.07 1529.7 1589.21 1531.86 Q1587.39 1534.01 1587.39 1537.76 Q1587.39 1541.49 1589.21 1543.66 Q1591.07 1545.82 1594.21 1545.82 Q1597.36 1545.82 1599.19 1543.66 Q1601.04 1541.49 1601.04 1537.76 Q1601.04 1534.01 1599.19 1531.86 Q1597.36 1529.7 1594.21 1529.7 M1603.5 1515.05 L1603.5 1519.31 Q1601.74 1518.48 1599.93 1518.04 Q1598.15 1517.6 1596.39 1517.6 Q1591.76 1517.6 1589.31 1520.72 Q1586.88 1523.85 1586.53 1530.17 Q1587.9 1528.15 1589.96 1527.09 Q1592.02 1526 1594.49 1526 Q1599.7 1526 1602.71 1529.17 Q1605.74 1532.32 1605.74 1537.76 Q1605.74 1543.08 1602.59 1546.3 Q1599.45 1549.52 1594.21 1549.52 Q1588.22 1549.52 1585.05 1544.94 Q1581.88 1540.33 1581.88 1531.6 Q1581.88 1523.41 1585.77 1518.55 Q1589.65 1513.66 1596.21 1513.66 Q1597.96 1513.66 1599.75 1514.01 Q1601.55 1514.36 1603.5 1515.05 Z" fill="#000000" fill-rule="evenodd" fill-opacity="1" /><path clip-path="url(#clip140)" d="M2028.42 1532.44 Q2025.09 1532.44 2023.17 1534.22 Q2021.27 1536 2021.27 1539.13 Q2021.27 1542.25 2023.17 1544.03 Q2025.09 1545.82 2028.42 1545.82 Q2031.76 1545.82 2033.68 1544.03 Q2035.6 1542.23 2035.6 1539.13 Q2035.6 1536 2033.68 1534.22 Q2031.78 1532.44 2028.42 1532.44 M2023.75 1530.45 Q2020.74 1529.7 2019.05 1527.64 Q2017.38 1525.58 2017.38 1522.62 Q2017.38 1518.48 2020.32 1516.07 Q2023.29 1513.66 2028.42 1513.66 Q2033.59 1513.66 2036.53 1516.07 Q2039.47 1518.48 2039.47 1522.62 Q2039.47 1525.58 2037.78 1527.64 Q2036.11 1529.7 2033.12 1530.45 Q2036.5 1531.23 2038.38 1533.52 Q2040.28 1535.82 2040.28 1539.13 Q2040.28 1544.15 2037.2 1546.83 Q2034.14 1549.52 2028.42 1549.52 Q2022.71 1549.52 2019.63 1546.83 Q2016.57 1544.15 2016.57 1539.13 Q2016.57 1535.82 2018.47 1533.52 Q2020.37 1531.23 2023.75 1530.45 M2022.04 1523.06 Q2022.04 1525.75 2023.7 1527.25 Q2025.39 1528.76 2028.42 1528.76 Q2031.43 1528.76 2033.12 1527.25 Q2034.84 1525.75 2034.84 1523.06 Q2034.84 1520.38 2033.12 1518.87 Q2031.43 1517.37 2028.42 1517.37 Q2025.39 1517.37 2023.7 1518.87 Q2022.04 1520.38 2022.04 1523.06 Z" fill="#000000" fill-rule="evenodd" fill-opacity="1" /><polyline clip-path="url(#clip142)" style="stroke:#000000; stroke-linecap:butt; stroke-linejoin:round; stroke-width:2; stroke-opacity:0.1; fill:none" points="
  186.274,1447.87 2352.76,1447.87 
  "/>
<polyline clip-path="url(#clip142)" style="stroke:#000000; stroke-linecap:butt; stroke-linejoin:round; stroke-width:2; stroke-opacity:0.1; fill:none" points="
  186.274,1126.42 2352.76,1126.42 
  "/>
<polyline clip-path="url(#clip142)" style="stroke:#000000; stroke-linecap:butt; stroke-linejoin:round; stroke-width:2; stroke-opacity:0.1; fill:none" points="
  186.274,804.96 2352.76,804.96 
  "/>
<polyline clip-path="url(#clip142)" style="stroke:#000000; stroke-linecap:butt; stroke-linejoin:round; stroke-width:2; stroke-opacity:0.1; fill:none" points="
  186.274,483.503 2352.76,483.503 
  "/>
<polyline clip-path="url(#clip142)" style="stroke:#000000; stroke-linecap:butt; stroke-linejoin:round; stroke-width:2; stroke-opacity:0.1; fill:none" points="
  186.274,162.047 2352.76,162.047 
  "/>
<polyline clip-path="url(#clip140)" style="stroke:#000000; stroke-linecap:butt; stroke-linejoin:round; stroke-width:4; stroke-opacity:1; fill:none" points="
  186.274,1486.45 186.274,123.472 
  "/>
<polyline clip-path="url(#clip140)" style="stroke:#000000; stroke-linecap:butt; stroke-linejoin:round; stroke-width:4; stroke-opacity:1; fill:none" points="
  186.274,1447.87 205.172,1447.87 
  "/>
<polyline clip-path="url(#clip140)" style="stroke:#000000; stroke-linecap:butt; stroke-linejoin:round; stroke-width:4; stroke-opacity:1; fill:none" points="
  186.274,1126.42 205.172,1126.42 
  "/>
<polyline clip-path="url(#clip140)" style="stroke:#000000; stroke-linecap:butt; stroke-linejoin:round; stroke-width:4; stroke-opacity:1; fill:none" points="
  186.274,804.96 205.172,804.96 
  "/>
<polyline clip-path="url(#clip140)" style="stroke:#000000; stroke-linecap:butt; stroke-linejoin:round; stroke-width:4; stroke-opacity:1; fill:none" points="
  186.274,483.503 205.172,483.503 
  "/>
<polyline clip-path="url(#clip140)" style="stroke:#000000; stroke-linecap:butt; stroke-linejoin:round; stroke-width:4; stroke-opacity:1; fill:none" points="
  186.274,162.047 205.172,162.047 
  "/>
<path clip-path="url(#clip140)" d="M62.9365 1433.67 Q59.3254 1433.67 57.4967 1437.24 Q55.6912 1440.78 55.6912 1447.91 Q55.6912 1455.01 57.4967 1458.58 Q59.3254 1462.12 62.9365 1462.12 Q66.5707 1462.12 68.3763 1458.58 Q70.205 1455.01 70.205 1447.91 Q70.205 1440.78 68.3763 1437.24 Q66.5707 1433.67 62.9365 1433.67 M62.9365 1429.97 Q68.7467 1429.97 71.8022 1434.57 Q74.8809 1439.16 74.8809 1447.91 Q74.8809 1456.63 71.8022 1461.24 Q68.7467 1465.82 62.9365 1465.82 Q57.1264 1465.82 54.0477 1461.24 Q50.9921 1456.63 50.9921 1447.91 Q50.9921 1439.16 54.0477 1434.57 Q57.1264 1429.97 62.9365 1429.97 Z" fill="#000000" fill-rule="evenodd" fill-opacity="1" /><path clip-path="url(#clip140)" d="M83.0984 1459.27 L87.9827 1459.27 L87.9827 1465.15 L83.0984 1465.15 L83.0984 1459.27 Z" fill="#000000" fill-rule="evenodd" fill-opacity="1" /><path clip-path="url(#clip140)" d="M108.168 1433.67 Q104.557 1433.67 102.728 1437.24 Q100.922 1440.78 100.922 1447.91 Q100.922 1455.01 102.728 1458.58 Q104.557 1462.12 108.168 1462.12 Q111.802 1462.12 113.608 1458.58 Q115.436 1455.01 115.436 1447.91 Q115.436 1440.78 113.608 1437.24 Q111.802 1433.67 108.168 1433.67 M108.168 1429.97 Q113.978 1429.97 117.033 1434.57 Q120.112 1439.16 120.112 1447.91 Q120.112 1456.63 117.033 1461.24 Q113.978 1465.82 108.168 1465.82 Q102.358 1465.82 99.2789 1461.24 Q96.2234 1456.63 96.2234 1447.91 Q96.2234 1439.16 99.2789 1434.57 Q102.358 1429.97 108.168 1429.97 Z" fill="#000000" fill-rule="evenodd" fill-opacity="1" /><path clip-path="url(#clip140)" d="M138.33 1433.67 Q134.719 1433.67 132.89 1437.24 Q131.084 1440.78 131.084 1447.91 Q131.084 1455.01 132.89 1458.58 Q134.719 1462.12 138.33 1462.12 Q141.964 1462.12 143.769 1458.58 Q145.598 1455.01 145.598 1447.91 Q145.598 1440.78 143.769 1437.24 Q141.964 1433.67 138.33 1433.67 M138.33 1429.97 Q144.14 1429.97 147.195 1434.57 Q150.274 1439.16 150.274 1447.91 Q150.274 1456.63 147.195 1461.24 Q144.14 1465.82 138.33 1465.82 Q132.519 1465.82 129.441 1461.24 Q126.385 1456.63 126.385 1447.91 Q126.385 1439.16 129.441 1434.57 Q132.519 1429.97 138.33 1429.97 Z" fill="#000000" fill-rule="evenodd" fill-opacity="1" /><path clip-path="url(#clip140)" d="M63.9319 1112.22 Q60.3208 1112.22 58.4921 1115.78 Q56.6865 1119.32 56.6865 1126.45 Q56.6865 1133.56 58.4921 1137.12 Q60.3208 1140.66 63.9319 1140.66 Q67.5661 1140.66 69.3717 1137.12 Q71.2004 1133.56 71.2004 1126.45 Q71.2004 1119.32 69.3717 1115.78 Q67.5661 1112.22 63.9319 1112.22 M63.9319 1108.51 Q69.742 1108.51 72.7976 1113.12 Q75.8763 1117.7 75.8763 1126.45 Q75.8763 1135.18 72.7976 1139.78 Q69.742 1144.37 63.9319 1144.37 Q58.1217 1144.37 55.043 1139.78 Q51.9875 1135.18 51.9875 1126.45 Q51.9875 1117.7 55.043 1113.12 Q58.1217 1108.51 63.9319 1108.51 Z" fill="#000000" fill-rule="evenodd" fill-opacity="1" /><path clip-path="url(#clip140)" d="M84.0938 1137.82 L88.978 1137.82 L88.978 1143.7 L84.0938 1143.7 L84.0938 1137.82 Z" fill="#000000" fill-rule="evenodd" fill-opacity="1" /><path clip-path="url(#clip140)" d="M103.191 1139.76 L119.51 1139.76 L119.51 1143.7 L97.566 1143.7 L97.566 1139.76 Q100.228 1137.01 104.811 1132.38 Q109.418 1127.72 110.598 1126.38 Q112.844 1123.86 113.723 1122.12 Q114.626 1120.36 114.626 1118.67 Q114.626 1115.92 112.682 1114.18 Q110.76 1112.45 107.658 1112.45 Q105.459 1112.45 103.006 1113.21 Q100.575 1113.97 97.7974 1115.53 L97.7974 1110.8 Q100.621 1109.67 103.075 1109.09 Q105.529 1108.51 107.566 1108.51 Q112.936 1108.51 116.131 1111.2 Q119.325 1113.88 119.325 1118.37 Q119.325 1120.5 118.515 1122.42 Q117.728 1124.32 115.621 1126.91 Q115.043 1127.59 111.941 1130.8 Q108.839 1134 103.191 1139.76 Z" fill="#000000" fill-rule="evenodd" fill-opacity="1" /><path clip-path="url(#clip140)" d="M129.371 1109.14 L147.728 1109.14 L147.728 1113.07 L133.654 1113.07 L133.654 1121.54 Q134.672 1121.2 135.691 1121.03 Q136.709 1120.85 137.728 1120.85 Q143.515 1120.85 146.894 1124.02 Q150.274 1127.19 150.274 1132.61 Q150.274 1138.19 146.802 1141.29 Q143.33 1144.37 137.01 1144.37 Q134.834 1144.37 132.566 1144 Q130.32 1143.63 127.913 1142.89 L127.913 1138.19 Q129.996 1139.32 132.219 1139.88 Q134.441 1140.43 136.918 1140.43 Q140.922 1140.43 143.26 1138.33 Q145.598 1136.22 145.598 1132.61 Q145.598 1129 143.26 1126.89 Q140.922 1124.78 136.918 1124.78 Q135.043 1124.78 133.168 1125.2 Q131.316 1125.62 129.371 1126.5 L129.371 1109.14 Z" fill="#000000" fill-rule="evenodd" fill-opacity="1" /><path clip-path="url(#clip140)" d="M62.9365 790.759 Q59.3254 790.759 57.4967 794.323 Q55.6912 797.865 55.6912 804.995 Q55.6912 812.101 57.4967 815.666 Q59.3254 819.208 62.9365 819.208 Q66.5707 819.208 68.3763 815.666 Q70.205 812.101 70.205 804.995 Q70.205 797.865 68.3763 794.323 Q66.5707 790.759 62.9365 790.759 M62.9365 787.055 Q68.7467 787.055 71.8022 791.661 Q74.8809 796.245 74.8809 804.995 Q74.8809 813.722 71.8022 818.328 Q68.7467 822.911 62.9365 822.911 Q57.1264 822.911 54.0477 818.328 Q50.9921 813.722 50.9921 804.995 Q50.9921 796.245 54.0477 791.661 Q57.1264 787.055 62.9365 787.055 Z" fill="#000000" fill-rule="evenodd" fill-opacity="1" /><path clip-path="url(#clip140)" d="M83.0984 816.36 L87.9827 816.36 L87.9827 822.24 L83.0984 822.24 L83.0984 816.36 Z" fill="#000000" fill-rule="evenodd" fill-opacity="1" /><path clip-path="url(#clip140)" d="M98.2141 787.68 L116.57 787.68 L116.57 791.615 L102.496 791.615 L102.496 800.087 Q103.515 799.74 104.534 799.578 Q105.552 799.393 106.571 799.393 Q112.358 799.393 115.737 802.564 Q119.117 805.735 119.117 811.152 Q119.117 816.731 115.645 819.833 Q112.172 822.911 105.853 822.911 Q103.677 822.911 101.409 822.541 Q99.1632 822.171 96.7558 821.43 L96.7558 816.731 Q98.8391 817.865 101.061 818.421 Q103.284 818.976 105.76 818.976 Q109.765 818.976 112.103 816.87 Q114.441 814.763 114.441 811.152 Q114.441 807.541 112.103 805.435 Q109.765 803.328 105.76 803.328 Q103.885 803.328 102.01 803.745 Q100.159 804.161 98.2141 805.041 L98.2141 787.68 Z" fill="#000000" fill-rule="evenodd" fill-opacity="1" /><path clip-path="url(#clip140)" d="M138.33 790.759 Q134.719 790.759 132.89 794.323 Q131.084 797.865 131.084 804.995 Q131.084 812.101 132.89 815.666 Q134.719 819.208 138.33 819.208 Q141.964 819.208 143.769 815.666 Q145.598 812.101 145.598 804.995 Q145.598 797.865 143.769 794.323 Q141.964 790.759 138.33 790.759 M138.33 787.055 Q144.14 787.055 147.195 791.661 Q150.274 796.245 150.274 804.995 Q150.274 813.722 147.195 818.328 Q144.14 822.911 138.33 822.911 Q132.519 822.911 129.441 818.328 Q126.385 813.722 126.385 804.995 Q126.385 796.245 129.441 791.661 Q132.519 787.055 138.33 787.055 Z" fill="#000000" fill-rule="evenodd" fill-opacity="1" /><path clip-path="url(#clip140)" d="M63.9319 469.302 Q60.3208 469.302 58.4921 472.867 Q56.6865 476.409 56.6865 483.538 Q56.6865 490.645 58.4921 494.209 Q60.3208 497.751 63.9319 497.751 Q67.5661 497.751 69.3717 494.209 Q71.2004 490.645 71.2004 483.538 Q71.2004 476.409 69.3717 472.867 Q67.5661 469.302 63.9319 469.302 M63.9319 465.598 Q69.742 465.598 72.7976 470.205 Q75.8763 474.788 75.8763 483.538 Q75.8763 492.265 72.7976 496.871 Q69.742 501.455 63.9319 501.455 Q58.1217 501.455 55.043 496.871 Q51.9875 492.265 51.9875 483.538 Q51.9875 474.788 55.043 470.205 Q58.1217 465.598 63.9319 465.598 Z" fill="#000000" fill-rule="evenodd" fill-opacity="1" /><path clip-path="url(#clip140)" d="M84.0938 494.904 L88.978 494.904 L88.978 500.783 L84.0938 500.783 L84.0938 494.904 Z" fill="#000000" fill-rule="evenodd" fill-opacity="1" /><path clip-path="url(#clip140)" d="M97.9826 466.223 L120.205 466.223 L120.205 468.214 L107.658 500.783 L102.774 500.783 L114.58 470.159 L97.9826 470.159 L97.9826 466.223 Z" fill="#000000" fill-rule="evenodd" fill-opacity="1" /><path clip-path="url(#clip140)" d="M129.371 466.223 L147.728 466.223 L147.728 470.159 L133.654 470.159 L133.654 478.631 Q134.672 478.284 135.691 478.122 Q136.709 477.936 137.728 477.936 Q143.515 477.936 146.894 481.108 Q150.274 484.279 150.274 489.696 Q150.274 495.274 146.802 498.376 Q143.33 501.455 137.01 501.455 Q134.834 501.455 132.566 501.084 Q130.32 500.714 127.913 499.973 L127.913 495.274 Q129.996 496.408 132.219 496.964 Q134.441 497.52 136.918 497.52 Q140.922 497.52 143.26 495.413 Q145.598 493.307 145.598 489.696 Q145.598 486.084 143.26 483.978 Q140.922 481.872 136.918 481.872 Q135.043 481.872 133.168 482.288 Q131.316 482.705 129.371 483.584 L129.371 466.223 Z" fill="#000000" fill-rule="evenodd" fill-opacity="1" /><path clip-path="url(#clip140)" d="M53.7467 175.392 L61.3856 175.392 L61.3856 149.026 L53.0754 150.693 L53.0754 146.434 L61.3393 144.767 L66.0152 144.767 L66.0152 175.392 L73.654 175.392 L73.654 179.327 L53.7467 179.327 L53.7467 175.392 Z" fill="#000000" fill-rule="evenodd" fill-opacity="1" /><path clip-path="url(#clip140)" d="M83.0984 173.447 L87.9827 173.447 L87.9827 179.327 L83.0984 179.327 L83.0984 173.447 Z" fill="#000000" fill-rule="evenodd" fill-opacity="1" /><path clip-path="url(#clip140)" d="M108.168 147.846 Q104.557 147.846 102.728 151.41 Q100.922 154.952 100.922 162.082 Q100.922 169.188 102.728 172.753 Q104.557 176.295 108.168 176.295 Q111.802 176.295 113.608 172.753 Q115.436 169.188 115.436 162.082 Q115.436 154.952 113.608 151.41 Q111.802 147.846 108.168 147.846 M108.168 144.142 Q113.978 144.142 117.033 148.748 Q120.112 153.332 120.112 162.082 Q120.112 170.808 117.033 175.415 Q113.978 179.998 108.168 179.998 Q102.358 179.998 99.2789 175.415 Q96.2234 170.808 96.2234 162.082 Q96.2234 153.332 99.2789 148.748 Q102.358 144.142 108.168 144.142 Z" fill="#000000" fill-rule="evenodd" fill-opacity="1" /><path clip-path="url(#clip140)" d="M138.33 147.846 Q134.719 147.846 132.89 151.41 Q131.084 154.952 131.084 162.082 Q131.084 169.188 132.89 172.753 Q134.719 176.295 138.33 176.295 Q141.964 176.295 143.769 172.753 Q145.598 169.188 145.598 162.082 Q145.598 154.952 143.769 151.41 Q141.964 147.846 138.33 147.846 M138.33 144.142 Q144.14 144.142 147.195 148.748 Q150.274 153.332 150.274 162.082 Q150.274 170.808 147.195 175.415 Q144.14 179.998 138.33 179.998 Q132.519 179.998 129.441 175.415 Q126.385 170.808 126.385 162.082 Q126.385 153.332 129.441 148.748 Q132.519 144.142 138.33 144.142 Z" fill="#000000" fill-rule="evenodd" fill-opacity="1" /><path clip-path="url(#clip140)" d="M572.769 14.1165 L580.952 14.1165 L580.952 38.908 L610.686 38.908 L610.686 14.1165 L618.869 14.1165 L618.869 74.5965 L610.686 74.5965 L610.686 45.7945 L580.952 45.7945 L580.952 74.5965 L572.769 74.5965 L572.769 14.1165 Z" fill="#000000" fill-rule="evenodd" fill-opacity="1" /><path clip-path="url(#clip140)" d="M634.829 29.2263 L642.283 29.2263 L642.283 74.5965 L634.829 74.5965 L634.829 29.2263 M634.829 11.5644 L642.283 11.5644 L642.283 21.003 L634.829 21.003 L634.829 11.5644 Z" fill="#000000" fill-rule="evenodd" fill-opacity="1" /><path clip-path="url(#clip140)" d="M686.802 30.5631 L686.802 37.6117 Q683.643 35.9914 680.24 35.1812 Q676.837 34.371 673.191 34.371 Q667.642 34.371 664.847 36.0724 Q662.092 37.7737 662.092 41.1765 Q662.092 43.7691 664.077 45.2679 Q666.062 46.7262 672.057 48.063 L674.609 48.6302 Q682.549 50.3316 685.871 53.4507 Q689.233 56.5294 689.233 62.0792 Q689.233 68.3986 684.21 72.0849 Q679.227 75.7712 670.477 75.7712 Q666.831 75.7712 662.862 75.0421 Q658.932 74.3534 654.557 72.9356 L654.557 65.2389 Q658.689 67.3859 662.7 68.4796 Q666.71 69.5328 670.639 69.5328 Q675.906 69.5328 678.741 67.7504 Q681.577 65.9275 681.577 62.6463 Q681.577 59.6081 679.511 57.9878 Q677.485 56.3674 670.558 54.8686 L667.966 54.2609 Q661.039 52.8026 657.96 49.8049 Q654.881 46.7668 654.881 41.5006 Q654.881 35.1002 659.418 31.6164 Q663.955 28.1326 672.3 28.1326 Q676.432 28.1326 680.078 28.7402 Q683.724 29.3479 686.802 30.5631 Z" fill="#000000" fill-rule="evenodd" fill-opacity="1" /><path clip-path="url(#clip140)" d="M708.475 16.3445 L708.475 29.2263 L723.828 29.2263 L723.828 35.0191 L708.475 35.0191 L708.475 59.6486 Q708.475 65.1984 709.974 66.7782 Q711.513 68.3581 716.171 68.3581 L723.828 68.3581 L723.828 74.5965 L716.171 74.5965 Q707.543 74.5965 704.262 71.3963 Q700.981 68.1555 700.981 59.6486 L700.981 35.0191 L695.512 35.0191 L695.512 29.2263 L700.981 29.2263 L700.981 16.3445 L708.475 16.3445 Z" fill="#000000" fill-rule="evenodd" fill-opacity="1" /><path clip-path="url(#clip140)" d="M751.212 34.452 Q745.216 34.452 741.733 39.1511 Q738.249 43.8096 738.249 51.9519 Q738.249 60.0942 741.692 64.7933 Q745.176 69.4518 751.212 69.4518 Q757.167 69.4518 760.65 64.7528 Q764.134 60.0537 764.134 51.9519 Q764.134 43.8906 760.65 39.1916 Q757.167 34.452 751.212 34.452 M751.212 28.1326 Q760.934 28.1326 766.484 34.452 Q772.033 40.7714 772.033 51.9519 Q772.033 63.0919 766.484 69.4518 Q760.934 75.7712 751.212 75.7712 Q741.449 75.7712 735.899 69.4518 Q730.39 63.0919 730.39 51.9519 Q730.39 40.7714 735.899 34.452 Q741.449 28.1326 751.212 28.1326 Z" fill="#000000" fill-rule="evenodd" fill-opacity="1" /><path clip-path="url(#clip140)" d="M814.244 51.3848 Q814.244 43.283 810.882 38.827 Q807.56 34.371 801.524 34.371 Q795.529 34.371 792.166 38.827 Q788.845 43.283 788.845 51.3848 Q788.845 59.4461 792.166 63.9021 Q795.529 68.3581 801.524 68.3581 Q807.56 68.3581 810.882 63.9021 Q814.244 59.4461 814.244 51.3848 M821.698 68.9657 Q821.698 80.5513 816.553 86.1821 Q811.408 91.8533 800.795 91.8533 Q796.866 91.8533 793.382 91.2457 Q789.898 90.6786 786.617 89.4633 L786.617 82.2122 Q789.898 83.9946 793.098 84.8453 Q796.298 85.6959 799.62 85.6959 Q806.952 85.6959 810.598 81.8476 Q814.244 78.0397 814.244 70.3025 L814.244 66.6162 Q811.935 70.6266 808.33 72.6115 Q804.724 74.5965 799.701 74.5965 Q791.356 74.5965 786.252 68.2365 Q781.148 61.8766 781.148 51.3848 Q781.148 40.8524 786.252 34.4925 Q791.356 28.1326 799.701 28.1326 Q804.724 28.1326 808.33 30.1175 Q811.935 32.1025 814.244 36.1129 L814.244 29.2263 L821.698 29.2263 L821.698 68.9657 Z" fill="#000000" fill-rule="evenodd" fill-opacity="1" /><path clip-path="url(#clip140)" d="M863.341 36.1939 Q862.085 35.4647 860.586 35.1407 Q859.128 34.7761 857.346 34.7761 Q851.026 34.7761 847.623 38.908 Q844.261 42.9994 844.261 50.6961 L844.261 74.5965 L836.767 74.5965 L836.767 29.2263 L844.261 29.2263 L844.261 36.2749 Q846.611 32.143 850.378 30.158 Q854.145 28.1326 859.533 28.1326 Q860.303 28.1326 861.234 28.2541 Q862.166 28.3351 863.3 28.5377 L863.341 36.1939 Z" fill="#000000" fill-rule="evenodd" fill-opacity="1" /><path clip-path="url(#clip140)" d="M891.778 51.7899 Q882.745 51.7899 879.261 53.8558 Q875.777 55.9218 875.777 60.9044 Q875.777 64.8743 878.37 67.2238 Q881.003 69.5328 885.499 69.5328 Q891.697 69.5328 895.424 65.1579 Q899.191 60.7424 899.191 53.4507 L899.191 51.7899 L891.778 51.7899 M906.645 48.7112 L906.645 74.5965 L899.191 74.5965 L899.191 67.7099 Q896.639 71.8419 892.831 73.8268 Q889.024 75.7712 883.514 75.7712 Q876.547 75.7712 872.415 71.8824 Q868.323 67.953 868.323 61.3905 Q868.323 53.7343 873.428 49.8454 Q878.572 45.9566 888.74 45.9566 L899.191 45.9566 L899.191 45.2274 Q899.191 40.0828 895.789 37.2876 Q892.426 34.452 886.309 34.452 Q882.421 34.452 878.734 35.3837 Q875.048 36.3154 871.645 38.1788 L871.645 31.2923 Q875.737 29.7124 879.585 28.9428 Q883.433 28.1326 887.079 28.1326 Q896.923 28.1326 901.784 33.2367 Q906.645 38.3409 906.645 48.7112 Z" fill="#000000" fill-rule="evenodd" fill-opacity="1" /><path clip-path="url(#clip140)" d="M957.322 37.9358 Q960.117 32.9127 964.006 30.5226 Q967.895 28.1326 973.161 28.1326 Q980.25 28.1326 984.098 33.1152 Q987.947 38.0573 987.947 47.2124 L987.947 74.5965 L980.452 74.5965 L980.452 47.4554 Q980.452 40.9335 978.143 37.7737 Q975.834 34.614 971.095 34.614 Q965.302 34.614 961.94 38.4624 Q958.578 42.3108 958.578 48.9542 L958.578 74.5965 L951.083 74.5965 L951.083 47.4554 Q951.083 40.8929 948.774 37.7737 Q946.465 34.614 941.645 34.614 Q935.933 34.614 932.571 38.5029 Q929.209 42.3513 929.209 48.9542 L929.209 74.5965 L921.714 74.5965 L921.714 29.2263 L929.209 29.2263 L929.209 36.2749 Q931.761 32.1025 935.325 30.1175 Q938.89 28.1326 943.792 28.1326 Q948.734 28.1326 952.177 30.6442 Q955.661 33.1557 957.322 37.9358 Z" fill="#000000" fill-rule="evenodd" fill-opacity="1" /><path clip-path="url(#clip140)" d="M1052.15 11.5644 L1052.15 17.7623 L1045.02 17.7623 Q1041.01 17.7623 1039.43 19.3826 Q1037.89 21.003 1037.89 25.2159 L1037.89 29.2263 L1050.17 29.2263 L1050.17 35.0191 L1037.89 35.0191 L1037.89 74.5965 L1030.4 74.5965 L1030.4 35.0191 L1023.27 35.0191 L1023.27 29.2263 L1030.4 29.2263 L1030.4 26.0666 Q1030.4 18.4914 1033.92 15.0482 Q1037.45 11.5644 1045.1 11.5644 L1052.15 11.5644 Z" fill="#000000" fill-rule="evenodd" fill-opacity="1" /><path clip-path="url(#clip140)" d="M1075.97 34.452 Q1069.98 34.452 1066.49 39.1511 Q1063.01 43.8096 1063.01 51.9519 Q1063.01 60.0942 1066.45 64.7933 Q1069.94 69.4518 1075.97 69.4518 Q1081.93 69.4518 1085.41 64.7528 Q1088.9 60.0537 1088.9 51.9519 Q1088.9 43.8906 1085.41 39.1916 Q1081.93 34.452 1075.97 34.452 M1075.97 28.1326 Q1085.69 28.1326 1091.24 34.452 Q1096.79 40.7714 1096.79 51.9519 Q1096.79 63.0919 1091.24 69.4518 Q1085.69 75.7712 1075.97 75.7712 Q1066.21 75.7712 1060.66 69.4518 Q1055.15 63.0919 1055.15 51.9519 Q1055.15 40.7714 1060.66 34.452 Q1066.21 28.1326 1075.97 28.1326 Z" fill="#000000" fill-rule="evenodd" fill-opacity="1" /><path clip-path="url(#clip140)" d="M1135.44 36.1939 Q1134.18 35.4647 1132.69 35.1407 Q1131.23 34.7761 1129.44 34.7761 Q1123.13 34.7761 1119.72 38.908 Q1116.36 42.9994 1116.36 50.6961 L1116.36 74.5965 L1108.87 74.5965 L1108.87 29.2263 L1116.36 29.2263 L1116.36 36.2749 Q1118.71 32.143 1122.48 30.158 Q1126.24 28.1326 1131.63 28.1326 Q1132.4 28.1326 1133.33 28.2541 Q1134.27 28.3351 1135.4 28.5377 L1135.44 36.1939 Z" fill="#000000" fill-rule="evenodd" fill-opacity="1" /><path clip-path="url(#clip140)" d="M1222.84 18.2772 Q1222.84 18.8101 1222.72 19.138 Q1222.64 19.4659 1222.31 19.6298 Q1222.02 19.7528 1221.82 19.7938 Q1221.66 19.8348 1221.16 19.8758 Q1219.16 20.0397 1217.47 20.5726 Q1215.79 21.0645 1214.36 22.0482 Q1212.97 23.032 1212.19 23.6878 Q1211.45 24.3436 1210.14 25.6553 L1208.99 26.844 L1188.17 50.7407 Q1187.43 51.5605 1186.98 53.364 L1184.03 65.2099 Q1182.88 70.1286 1182.88 70.4975 Q1182.88 71.2353 1183.29 71.4813 Q1183.74 71.6862 1185.13 71.8092 L1188.33 72.0141 Q1190.22 72.0141 1190.5 72.3421 Q1190.67 72.547 1190.67 72.9159 Q1190.67 73.6947 1190.34 74.1046 Q1190.05 74.4735 1189.77 74.5555 Q1189.52 74.5965 1189.07 74.5965 L1178.33 74.3505 L1167.75 74.5965 Q1166.57 74.5965 1166.57 73.6537 Q1166.57 73.0389 1166.65 72.711 Q1166.77 72.3421 1167.14 72.2191 Q1167.51 72.0551 1167.8 72.0551 Q1168.08 72.0141 1168.86 72.0141 Q1170.75 71.9732 1171.69 71.9732 Q1172.67 71.9322 1173.62 71.6862 Q1174.56 71.4403 1174.89 71.2763 Q1175.26 71.0714 1175.67 70.3746 Q1176.12 69.6368 1176.24 69.0629 Q1176.4 68.4891 1176.73 67.0544 Q1177.06 65.7838 1178.78 58.8566 Q1180.5 51.9294 1180.5 51.7654 Q1180.5 51.3146 1180.17 50.3308 L1169.85 22.704 Q1169.39 21.4744 1169.03 20.9825 Q1168.66 20.4906 1167.43 20.2037 Q1166.2 19.8758 1163.74 19.8758 Q1163.04 19.8758 1162.71 19.8348 Q1162.39 19.7938 1162.1 19.5889 Q1161.81 19.3839 1161.81 18.933 Q1161.81 18.1542 1162.14 17.7853 Q1162.47 17.3754 1162.71 17.3344 Q1163 17.2525 1163.41 17.2525 Q1164.43 17.2525 1168.08 17.3754 Q1171.73 17.4984 1172.8 17.4984 L1183.37 17.2525 Q1184.64 17.2525 1184.64 18.1952 Q1184.64 19.3429 1184.19 19.6298 Q1183.74 19.8758 1182.63 19.8758 Q1177.67 19.8758 1177.67 21.8843 Q1177.67 22.1302 1178.17 23.3189 L1187.39 48.2404 L1206.86 25.8192 L1207.15 25.4913 Q1207.39 25.1634 1207.6 24.9175 Q1207.8 24.6715 1208.13 24.2206 Q1208.46 23.7698 1208.62 23.4009 Q1208.83 23.032 1208.99 22.5811 Q1209.15 22.1302 1209.15 21.8023 Q1209.15 21.1874 1208.79 20.7775 Q1208.42 20.3267 1207.84 20.1627 Q1207.27 19.9988 1206.86 19.9578 Q1206.45 19.8758 1206.12 19.8758 Q1204.85 19.8758 1204.85 18.8511 Q1204.85 18.1132 1205.18 17.7443 Q1205.51 17.3344 1205.75 17.2935 Q1206.04 17.2525 1206.45 17.2525 Q1207.8 17.2525 1210.63 17.3754 Q1213.46 17.4984 1214.85 17.4984 Q1216 17.4984 1218.34 17.3754 Q1220.67 17.2525 1221.74 17.2525 Q1222.84 17.2525 1222.84 18.2772 Z" fill="#000000" fill-rule="evenodd" fill-opacity="1" /><path clip-path="url(#clip140)" d="M1249.26 71.7806 Q1249.26 72.584 1248.88 72.7848 Q1248.51 72.957 1247.48 72.957 L1241.97 72.957 L1237.61 90.2873 Q1237.26 91.808 1237.26 93.0991 Q1237.26 94.5338 1237.69 95.165 Q1238.15 95.7962 1239.1 95.7962 Q1240.96 95.7962 1242.97 94.1034 Q1245.01 92.4105 1246.73 88.2788 Q1246.96 87.7336 1247.08 87.6189 Q1247.22 87.4754 1247.59 87.4754 Q1248.31 87.4754 1248.31 88.0493 Q1248.31 88.2501 1247.91 89.1683 Q1247.53 90.0864 1246.7 91.435 Q1245.9 92.7835 1244.84 94.046 Q1243.8 95.3085 1242.23 96.2266 Q1240.65 97.1161 1238.96 97.1161 Q1236.57 97.1161 1235.05 95.5954 Q1233.56 94.0747 1233.56 91.6932 Q1233.56 90.9185 1234.16 88.451 Q1234.77 85.9547 1238.04 72.957 L1232.84 72.957 Q1232.13 72.957 1231.84 72.9283 Q1231.58 72.8996 1231.38 72.7562 Q1231.21 72.584 1231.21 72.2397 Q1231.21 71.6945 1231.44 71.465 Q1231.67 71.2068 1231.95 71.1781 Q1232.27 71.1207 1232.99 71.1207 L1238.5 71.1207 L1240.79 61.7956 Q1241.02 60.8775 1241.6 60.361 Q1242.2 59.8158 1242.54 59.7585 Q1242.89 59.6724 1243.15 59.6724 Q1243.92 59.6724 1244.38 60.1028 Q1244.84 60.5045 1244.84 61.2505 Q1244.84 61.6522 1242.43 71.1207 L1247.59 71.1207 Q1248.25 71.1207 1248.51 71.1494 Q1248.8 71.1781 1249.03 71.3215 Q1249.26 71.465 1249.26 71.7806 Z" fill="#000000" fill-rule="evenodd" fill-opacity="1" /><path clip-path="url(#clip140)" d="M1261.36 64.3072 L1269.91 64.3072 L1269.91 71.2747 L1263.27 84.2376 L1258.04 84.2376 L1261.36 71.2747 L1261.36 64.3072 Z" fill="#000000" fill-rule="evenodd" fill-opacity="1" /><path clip-path="url(#clip140)" d="M1332.82 51.7899 Q1323.79 51.7899 1320.3 53.8558 Q1316.82 55.9218 1316.82 60.9044 Q1316.82 64.8743 1319.41 67.2238 Q1322.05 69.5328 1326.54 69.5328 Q1332.74 69.5328 1336.47 65.1579 Q1340.23 60.7424 1340.23 53.4507 L1340.23 51.7899 L1332.82 51.7899 M1347.69 48.7112 L1347.69 74.5965 L1340.23 74.5965 L1340.23 67.7099 Q1337.68 71.8419 1333.87 73.8268 Q1330.07 75.7712 1324.56 75.7712 Q1317.59 75.7712 1313.46 71.8824 Q1309.37 67.953 1309.37 61.3905 Q1309.37 53.7343 1314.47 49.8454 Q1319.61 45.9566 1329.78 45.9566 L1340.23 45.9566 L1340.23 45.2274 Q1340.23 40.0828 1336.83 37.2876 Q1333.47 34.452 1327.35 34.452 Q1323.46 34.452 1319.78 35.3837 Q1316.09 36.3154 1312.69 38.1788 L1312.69 31.2923 Q1316.78 29.7124 1320.63 28.9428 Q1324.48 28.1326 1328.12 28.1326 Q1337.97 28.1326 1342.83 33.2367 Q1347.69 38.3409 1347.69 48.7112 Z" fill="#000000" fill-rule="evenodd" fill-opacity="1" /><path clip-path="url(#clip140)" d="M1400.75 47.2124 L1400.75 74.5965 L1393.3 74.5965 L1393.3 47.4554 Q1393.3 41.0145 1390.79 37.8143 Q1388.28 34.614 1383.25 34.614 Q1377.22 34.614 1373.73 38.4624 Q1370.25 42.3108 1370.25 48.9542 L1370.25 74.5965 L1362.76 74.5965 L1362.76 29.2263 L1370.25 29.2263 L1370.25 36.2749 Q1372.92 32.1835 1376.53 30.158 Q1380.18 28.1326 1384.92 28.1326 Q1392.73 28.1326 1396.74 32.9937 Q1400.75 37.8143 1400.75 47.2124 Z" fill="#000000" fill-rule="evenodd" fill-opacity="1" /><path clip-path="url(#clip140)" d="M1445.48 36.1129 L1445.48 11.5644 L1452.93 11.5644 L1452.93 74.5965 L1445.48 74.5965 L1445.48 67.7909 Q1443.13 71.8419 1439.52 73.8268 Q1435.96 75.7712 1430.93 75.7712 Q1422.71 75.7712 1417.52 69.2088 Q1412.38 62.6463 1412.38 51.9519 Q1412.38 41.2575 1417.52 34.6951 Q1422.71 28.1326 1430.93 28.1326 Q1435.96 28.1326 1439.52 30.1175 Q1443.13 32.062 1445.48 36.1129 M1420.08 51.9519 Q1420.08 60.1752 1423.44 64.8743 Q1426.84 69.5328 1432.76 69.5328 Q1438.67 69.5328 1442.07 64.8743 Q1445.48 60.1752 1445.48 51.9519 Q1445.48 43.7286 1442.07 39.07 Q1438.67 34.371 1432.76 34.371 Q1426.84 34.371 1423.44 39.07 Q1420.08 43.7286 1420.08 51.9519 Z" fill="#000000" fill-rule="evenodd" fill-opacity="1" /><path clip-path="url(#clip140)" d="M1533.46 50.048 L1533.46 53.6938 L1499.19 53.6938 Q1499.68 61.3905 1503.81 65.4414 Q1507.98 69.4518 1515.39 69.4518 Q1519.69 69.4518 1523.7 68.3986 Q1527.75 67.3454 1531.72 65.2389 L1531.72 72.2875 Q1527.71 73.9888 1523.5 74.88 Q1519.28 75.7712 1514.95 75.7712 Q1504.09 75.7712 1497.73 69.4518 Q1491.41 63.1324 1491.41 52.357 Q1491.41 41.217 1497.41 34.6951 Q1503.44 28.1326 1513.65 28.1326 Q1522.81 28.1326 1528.11 34.0469 Q1533.46 39.9207 1533.46 50.048 M1526.01 47.8605 Q1525.93 41.7436 1522.56 38.0978 Q1519.24 34.452 1513.73 34.452 Q1507.5 34.452 1503.73 37.9763 Q1500 41.5006 1499.43 47.901 L1526.01 47.8605 Z" fill="#000000" fill-rule="evenodd" fill-opacity="1" /><path clip-path="url(#clip140)" d="M1581.95 29.2263 L1565.54 51.3038 L1582.8 74.5965 L1574.01 74.5965 L1560.81 56.7725 L1547.6 74.5965 L1538.81 74.5965 L1556.43 50.8582 L1540.31 29.2263 L1549.1 29.2263 L1561.13 45.3894 L1573.16 29.2263 L1581.95 29.2263 Z" fill="#000000" fill-rule="evenodd" fill-opacity="1" /><path clip-path="url(#clip140)" d="M1600.54 67.7909 L1600.54 91.8533 L1593.05 91.8533 L1593.05 29.2263 L1600.54 29.2263 L1600.54 36.1129 Q1602.89 32.062 1606.46 30.1175 Q1610.06 28.1326 1615.05 28.1326 Q1623.31 28.1326 1628.46 34.6951 Q1633.64 41.2575 1633.64 51.9519 Q1633.64 62.6463 1628.46 69.2088 Q1623.31 75.7712 1615.05 75.7712 Q1610.06 75.7712 1606.46 73.8268 Q1602.89 71.8419 1600.54 67.7909 M1625.9 51.9519 Q1625.9 43.7286 1622.5 39.07 Q1619.14 34.371 1613.22 34.371 Q1607.31 34.371 1603.91 39.07 Q1600.54 43.7286 1600.54 51.9519 Q1600.54 60.1752 1603.91 64.8743 Q1607.31 69.5328 1613.22 69.5328 Q1619.14 69.5328 1622.5 64.8743 Q1625.9 60.1752 1625.9 51.9519 Z" fill="#000000" fill-rule="evenodd" fill-opacity="1" /><path clip-path="url(#clip140)" d="M1702.22 36.1129 L1702.22 11.5644 L1709.68 11.5644 L1709.68 74.5965 L1702.22 74.5965 L1702.22 67.7909 Q1699.87 71.8419 1696.27 73.8268 Q1692.7 75.7712 1687.68 75.7712 Q1679.46 75.7712 1674.27 69.2088 Q1669.13 62.6463 1669.13 51.9519 Q1669.13 41.2575 1674.27 34.6951 Q1679.46 28.1326 1687.68 28.1326 Q1692.7 28.1326 1696.27 30.1175 Q1699.87 32.062 1702.22 36.1129 M1676.82 51.9519 Q1676.82 60.1752 1680.19 64.8743 Q1683.59 69.5328 1689.5 69.5328 Q1695.42 69.5328 1698.82 64.8743 Q1702.22 60.1752 1702.22 51.9519 Q1702.22 43.7286 1698.82 39.07 Q1695.42 34.371 1689.5 34.371 Q1683.59 34.371 1680.19 39.07 Q1676.82 43.7286 1676.82 51.9519 Z" fill="#000000" fill-rule="evenodd" fill-opacity="1" /><path clip-path="url(#clip140)" d="M1763.84 50.048 L1763.84 53.6938 L1729.57 53.6938 Q1730.05 61.3905 1734.18 65.4414 Q1738.36 69.4518 1745.77 69.4518 Q1750.06 69.4518 1754.07 68.3986 Q1758.12 67.3454 1762.09 65.2389 L1762.09 72.2875 Q1758.08 73.9888 1753.87 74.88 Q1749.66 75.7712 1745.32 75.7712 Q1734.47 75.7712 1728.11 69.4518 Q1721.79 63.1324 1721.79 52.357 Q1721.79 41.217 1727.78 34.6951 Q1733.82 28.1326 1744.03 28.1326 Q1753.18 28.1326 1758.49 34.0469 Q1763.84 39.9207 1763.84 50.048 M1756.38 47.8605 Q1756.3 41.7436 1752.94 38.0978 Q1749.62 34.452 1744.11 34.452 Q1737.87 34.452 1734.1 37.9763 Q1730.38 41.5006 1729.81 47.901 L1756.38 47.8605 Z" fill="#000000" fill-rule="evenodd" fill-opacity="1" /><path clip-path="url(#clip140)" d="M1813.78 47.2124 L1813.78 74.5965 L1806.33 74.5965 L1806.33 47.4554 Q1806.33 41.0145 1803.82 37.8143 Q1801.31 34.614 1796.28 34.614 Q1790.25 34.614 1786.76 38.4624 Q1783.28 42.3108 1783.28 48.9542 L1783.28 74.5965 L1775.79 74.5965 L1775.79 29.2263 L1783.28 29.2263 L1783.28 36.2749 Q1785.95 32.1835 1789.56 30.158 Q1793.21 28.1326 1797.95 28.1326 Q1805.76 28.1326 1809.77 32.9937 Q1813.78 37.8143 1813.78 47.2124 Z" fill="#000000" fill-rule="evenodd" fill-opacity="1" /><path clip-path="url(#clip140)" d="M1857.57 30.5631 L1857.57 37.6117 Q1854.41 35.9914 1851.01 35.1812 Q1847.61 34.371 1843.96 34.371 Q1838.41 34.371 1835.62 36.0724 Q1832.86 37.7737 1832.86 41.1765 Q1832.86 43.7691 1834.85 45.2679 Q1836.83 46.7262 1842.83 48.063 L1845.38 48.6302 Q1853.32 50.3316 1856.64 53.4507 Q1860.01 56.5294 1860.01 62.0792 Q1860.01 68.3986 1854.98 72.0849 Q1850 75.7712 1841.25 75.7712 Q1837.6 75.7712 1833.63 75.0421 Q1829.7 74.3534 1825.33 72.9356 L1825.33 65.2389 Q1829.46 67.3859 1833.47 68.4796 Q1837.48 69.5328 1841.41 69.5328 Q1846.68 69.5328 1849.51 67.7504 Q1852.35 65.9275 1852.35 62.6463 Q1852.35 59.6081 1850.28 57.9878 Q1848.26 56.3674 1841.33 54.8686 L1838.74 54.2609 Q1831.81 52.8026 1828.73 49.8049 Q1825.65 46.7668 1825.65 41.5006 Q1825.65 35.1002 1830.19 31.6164 Q1834.73 28.1326 1843.07 28.1326 Q1847.2 28.1326 1850.85 28.7402 Q1854.5 29.3479 1857.57 30.5631 Z" fill="#000000" fill-rule="evenodd" fill-opacity="1" /><path clip-path="url(#clip140)" d="M1871.87 29.2263 L1879.33 29.2263 L1879.33 74.5965 L1871.87 74.5965 L1871.87 29.2263 M1871.87 11.5644 L1879.33 11.5644 L1879.33 21.003 L1871.87 21.003 L1871.87 11.5644 Z" fill="#000000" fill-rule="evenodd" fill-opacity="1" /><path clip-path="url(#clip140)" d="M1902.3 16.3445 L1902.3 29.2263 L1917.65 29.2263 L1917.65 35.0191 L1902.3 35.0191 L1902.3 59.6486 Q1902.3 65.1984 1903.8 66.7782 Q1905.33 68.3581 1909.99 68.3581 L1917.65 68.3581 L1917.65 74.5965 L1909.99 74.5965 Q1901.36 74.5965 1898.08 71.3963 Q1894.8 68.1555 1894.8 59.6486 L1894.8 35.0191 L1889.33 35.0191 L1889.33 29.2263 L1894.8 29.2263 L1894.8 16.3445 L1902.3 16.3445 Z" fill="#000000" fill-rule="evenodd" fill-opacity="1" /><path clip-path="url(#clip140)" d="M1946.33 78.8094 Q1943.17 86.9112 1940.17 89.3823 Q1937.17 91.8533 1932.15 91.8533 L1926.2 91.8533 L1926.2 85.6149 L1930.57 85.6149 Q1933.65 85.6149 1935.35 84.1566 Q1937.05 82.6983 1939.12 77.2701 L1940.46 73.8673 L1922.11 29.2263 L1930 29.2263 L1944.18 64.7123 L1958.36 29.2263 L1966.26 29.2263 L1946.33 78.8094 Z" fill="#000000" fill-rule="evenodd" fill-opacity="1" /><path clip-path="url(#clip142)" d="
M289.964 444.929 L289.964 1447.87 L398.618 1447.87 L398.618 444.929 L289.964 444.929 L289.964 444.929  Z
  " fill="#009af9" fill-rule="evenodd" fill-opacity="1"/>
<polyline clip-path="url(#clip142)" style="stroke:#000000; stroke-linecap:butt; stroke-linejoin:round; stroke-width:4; stroke-opacity:1; fill:none" points="
  289.964,444.929 289.964,1447.87 398.618,1447.87 398.618,444.929 289.964,444.929 
  "/>
<path clip-path="url(#clip142)" d="
M398.618 794.673 L398.618 1447.87 L507.272 1447.87 L507.272 794.673 L398.618 794.673 L398.618 794.673  Z
  " fill="#009af9" fill-rule="evenodd" fill-opacity="1"/>
<polyline clip-path="url(#clip142)" style="stroke:#000000; stroke-linecap:butt; stroke-linejoin:round; stroke-width:4; stroke-opacity:1; fill:none" points="
  398.618,794.673 398.618,1447.87 507.272,1447.87 507.272,794.673 398.618,794.673 
  "/>
<path clip-path="url(#clip142)" d="
M507.272 1072.41 L507.272 1447.87 L615.926 1447.87 L615.926 1072.41 L507.272 1072.41 L507.272 1072.41  Z
  " fill="#009af9" fill-rule="evenodd" fill-opacity="1"/>
<polyline clip-path="url(#clip142)" style="stroke:#000000; stroke-linecap:butt; stroke-linejoin:round; stroke-width:4; stroke-opacity:1; fill:none" points="
  507.272,1072.41 507.272,1447.87 615.926,1447.87 615.926,1072.41 507.272,1072.41 
  "/>
<path clip-path="url(#clip142)" d="
M615.926 1216.42 L615.926 1447.87 L724.579 1447.87 L724.579 1216.42 L615.926 1216.42 L615.926 1216.42  Z
  " fill="#009af9" fill-rule="evenodd" fill-opacity="1"/>
<polyline clip-path="url(#clip142)" style="stroke:#000000; stroke-linecap:butt; stroke-linejoin:round; stroke-width:4; stroke-opacity:1; fill:none" points="
  615.926,1216.42 615.926,1447.87 724.579,1447.87 724.579,1216.42 615.926,1216.42 
  "/>
<path clip-path="url(#clip142)" d="
M724.579 1288.43 L724.579 1447.87 L833.233 1447.87 L833.233 1288.43 L724.579 1288.43 L724.579 1288.43  Z
  " fill="#009af9" fill-rule="evenodd" fill-opacity="1"/>
<polyline clip-path="url(#clip142)" style="stroke:#000000; stroke-linecap:butt; stroke-linejoin:round; stroke-width:4; stroke-opacity:1; fill:none" points="
  724.579,1288.43 724.579,1447.87 833.233,1447.87 833.233,1288.43 724.579,1288.43 
  "/>
<path clip-path="url(#clip142)" d="
M833.233 1406.73 L833.233 1447.87 L941.887 1447.87 L941.887 1406.73 L833.233 1406.73 L833.233 1406.73  Z
  " fill="#009af9" fill-rule="evenodd" fill-opacity="1"/>
<polyline clip-path="url(#clip142)" style="stroke:#000000; stroke-linecap:butt; stroke-linejoin:round; stroke-width:4; stroke-opacity:1; fill:none" points="
  833.233,1406.73 833.233,1447.87 941.887,1447.87 941.887,1406.73 833.233,1406.73 
  "/>
<path clip-path="url(#clip142)" d="
M941.887 1406.73 L941.887 1447.87 L1050.54 1447.87 L1050.54 1406.73 L941.887 1406.73 L941.887 1406.73  Z
  " fill="#009af9" fill-rule="evenodd" fill-opacity="1"/>
<polyline clip-path="url(#clip142)" style="stroke:#000000; stroke-linecap:butt; stroke-linejoin:round; stroke-width:4; stroke-opacity:1; fill:none" points="
  941.887,1406.73 941.887,1447.87 1050.54,1447.87 1050.54,1406.73 941.887,1406.73 
  "/>
<path clip-path="url(#clip142)" d="
M1050.54 1417.01 L1050.54 1447.87 L1159.19 1447.87 L1159.19 1417.01 L1050.54 1417.01 L1050.54 1417.01  Z
  " fill="#009af9" fill-rule="evenodd" fill-opacity="1"/>
<polyline clip-path="url(#clip142)" style="stroke:#000000; stroke-linecap:butt; stroke-linejoin:round; stroke-width:4; stroke-opacity:1; fill:none" points="
  1050.54,1417.01 1050.54,1447.87 1159.19,1447.87 1159.19,1417.01 1050.54,1417.01 
  "/>
<path clip-path="url(#clip142)" d="
M1159.19 1432.44 L1159.19 1447.87 L1267.85 1447.87 L1267.85 1432.44 L1159.19 1432.44 L1159.19 1432.44  Z
  " fill="#009af9" fill-rule="evenodd" fill-opacity="1"/>
<polyline clip-path="url(#clip142)" style="stroke:#000000; stroke-linecap:butt; stroke-linejoin:round; stroke-width:4; stroke-opacity:1; fill:none" points="
  1159.19,1432.44 1159.19,1447.87 1267.85,1447.87 1267.85,1432.44 1159.19,1432.44 
  "/>
<path clip-path="url(#clip142)" d="
M1267.85 1437.59 L1267.85 1447.87 L1376.5 1447.87 L1376.5 1437.59 L1267.85 1437.59 L1267.85 1437.59  Z
  " fill="#009af9" fill-rule="evenodd" fill-opacity="1"/>
<polyline clip-path="url(#clip142)" style="stroke:#000000; stroke-linecap:butt; stroke-linejoin:round; stroke-width:4; stroke-opacity:1; fill:none" points="
  1267.85,1437.59 1267.85,1447.87 1376.5,1447.87 1376.5,1437.59 1267.85,1437.59 
  "/>
<path clip-path="url(#clip142)" d="
M1376.5 1447.87 L1376.5 1447.87 L1485.16 1447.87 L1485.16 1447.87 L1376.5 1447.87 L1376.5 1447.87  Z
  " fill="#009af9" fill-rule="evenodd" fill-opacity="1"/>
<polyline clip-path="url(#clip142)" style="stroke:#000000; stroke-linecap:butt; stroke-linejoin:round; stroke-width:4; stroke-opacity:1; fill:none" points="
  1376.5,1447.87 1376.5,1447.87 1485.16,1447.87 1376.5,1447.87 
  "/>
<path clip-path="url(#clip142)" d="
M1485.16 1447.87 L1485.16 1447.87 L1593.81 1447.87 L1593.81 1447.87 L1485.16 1447.87 L1485.16 1447.87  Z
  " fill="#009af9" fill-rule="evenodd" fill-opacity="1"/>
<polyline clip-path="url(#clip142)" style="stroke:#000000; stroke-linecap:butt; stroke-linejoin:round; stroke-width:4; stroke-opacity:1; fill:none" points="
  1485.16,1447.87 1485.16,1447.87 1593.81,1447.87 1485.16,1447.87 
  "/>
<path clip-path="url(#clip142)" d="
M1593.81 1437.59 L1593.81 1447.87 L1702.46 1447.87 L1702.46 1437.59 L1593.81 1437.59 L1593.81 1437.59  Z
  " fill="#009af9" fill-rule="evenodd" fill-opacity="1"/>
<polyline clip-path="url(#clip142)" style="stroke:#000000; stroke-linecap:butt; stroke-linejoin:round; stroke-width:4; stroke-opacity:1; fill:none" points="
  1593.81,1437.59 1593.81,1447.87 1702.46,1447.87 1702.46,1437.59 1593.81,1437.59 
  "/>
<circle clip-path="url(#clip142)" style="fill:#009af9; stroke:none; fill-opacity:0" cx="344.291" cy="444.929" r="2"/>
<circle clip-path="url(#clip142)" style="fill:#009af9; stroke:none; fill-opacity:0" cx="452.945" cy="794.673" r="2"/>
<circle clip-path="url(#clip142)" style="fill:#009af9; stroke:none; fill-opacity:0" cx="561.599" cy="1072.41" r="2"/>
<circle clip-path="url(#clip142)" style="fill:#009af9; stroke:none; fill-opacity:0" cx="670.253" cy="1216.42" r="2"/>
<circle clip-path="url(#clip142)" style="fill:#009af9; stroke:none; fill-opacity:0" cx="778.906" cy="1288.43" r="2"/>
<circle clip-path="url(#clip142)" style="fill:#009af9; stroke:none; fill-opacity:0" cx="887.56" cy="1406.73" r="2"/>
<circle clip-path="url(#clip142)" style="fill:#009af9; stroke:none; fill-opacity:0" cx="996.214" cy="1406.73" r="2"/>
<circle clip-path="url(#clip142)" style="fill:#009af9; stroke:none; fill-opacity:0" cx="1104.87" cy="1417.01" r="2"/>
<circle clip-path="url(#clip142)" style="fill:#009af9; stroke:none; fill-opacity:0" cx="1213.52" cy="1432.44" r="2"/>
<circle clip-path="url(#clip142)" style="fill:#009af9; stroke:none; fill-opacity:0" cx="1322.18" cy="1437.59" r="2"/>
<circle clip-path="url(#clip142)" style="fill:#009af9; stroke:none; fill-opacity:0" cx="1430.83" cy="1447.87" r="2"/>
<circle clip-path="url(#clip142)" style="fill:#009af9; stroke:none; fill-opacity:0" cx="1539.48" cy="1447.87" r="2"/>
<circle clip-path="url(#clip142)" style="fill:#009af9; stroke:none; fill-opacity:0" cx="1648.14" cy="1437.59" r="2"/>
<polyline clip-path="url(#clip142)" style="stroke:#e26f46; stroke-linecap:butt; stroke-linejoin:round; stroke-width:4; stroke-opacity:1; fill:none" points="
  289.964,162.047 293.222,181.179 296.48,200.027 299.738,218.594 302.995,236.884 310.526,278.131 318.056,317.972 325.587,356.457 333.117,393.63 340.648,429.538 
  348.178,464.222 355.709,497.725 363.239,530.087 370.769,561.347 378.3,591.542 385.83,620.709 393.361,648.882 400.891,676.096 408.422,702.382 415.952,727.774 
  423.483,752.3 432.534,780.676 441.585,807.895 450.636,834.003 459.687,859.046 468.738,883.067 477.789,906.109 486.84,928.21 495.891,949.41 511.196,983.309 
  526.501,1014.9 541.806,1044.35 557.111,1071.79 573.737,1099.49 590.362,1125.15 606.988,1148.92 623.613,1170.94 638.94,1189.8 654.268,1207.37 669.595,1223.75 
  684.922,1239.02 701.355,1254.23 717.787,1268.33 734.22,1281.41 750.652,1293.53 769.691,1306.48 788.729,1318.34 807.768,1329.2 826.807,1339.16 860.645,1354.83 
  894.484,1368.25 924.157,1378.41 953.83,1387.28 986.182,1395.66 1018.53,1402.88 1051.08,1409.14 1083.62,1414.53 1155.59,1423.93 1224.06,1430.4 1295.25,1435.28 
  1355.18,1438.32 1428.35,1441.05 1495.38,1442.86 1557.28,1444.1 1619.99,1445.05 1690.27,1445.83 1753.95,1446.35 1826.86,1446.78 1894.37,1447.07 1960.93,1447.28 
  2025.55,1447.44 2091.8,1447.55 2164.38,1447.64 2269.81,1447.73 2291.44,1447.74 
  "/>
</svg>
