<?xml version="1.0" encoding="utf-8"?>
<svg xmlns="http://www.w3.org/2000/svg" xmlns:xlink="http://www.w3.org/1999/xlink" width="600" height="400" viewBox="0 0 2400 1600">
<defs>
  <clipPath id="clip050">
    <rect x="0" y="0" width="2400" height="1600"/>
  </clipPath>
</defs>
<path clip-path="url(#clip050)" d="
M0 1600 L2400 1600 L2400 0 L0 0  Z
  " fill="#ffffff" fill-rule="evenodd" fill-opacity="1"/>
<defs>
  <clipPath id="clip051">
    <rect x="480" y="0" width="1681" height="1600"/>
  </clipPath>
</defs>
<defs>
  <clipPath id="clip052">
    <rect x="175" y="123" width="2178" height="1301"/>
  </clipPath>
</defs>
<path clip-path="url(#clip050)" d="
M235.283 1423.18 L2352.76 1423.18 L2352.76 123.472 L235.283 123.472  Z
  " fill="#ffffff" fill-rule="evenodd" fill-opacity="1"/>
<defs>
  <clipPath id="clip053">
    <rect x="235" y="123" width="2118" height="1301"/>
  </clipPath>
</defs>
<polyline clip-path="url(#clip053)" style="stroke:#000000; stroke-linecap:butt; stroke-linejoin:round; stroke-width:2; stroke-opacity:0.1; fill:none" points="
  291.208,1423.18 291.208,123.472 
  "/>
<polyline clip-path="url(#clip053)" style="stroke:#000000; stroke-linecap:butt; stroke-linejoin:round; stroke-width:2; stroke-opacity:0.1; fill:none" points="
  691.532,1423.18 691.532,123.472 
  "/>
<polyline clip-path="url(#clip053)" style="stroke:#000000; stroke-linecap:butt; stroke-linejoin:round; stroke-width:2; stroke-opacity:0.1; fill:none" points="
  1091.86,1423.18 1091.86,123.472 
  "/>
<polyline clip-path="url(#clip053)" style="stroke:#000000; stroke-linecap:butt; stroke-linejoin:round; stroke-width:2; stroke-opacity:0.1; fill:none" points="
  1492.18,1423.18 1492.18,123.472 
  "/>
<polyline clip-path="url(#clip053)" style="stroke:#000000; stroke-linecap:butt; stroke-linejoin:round; stroke-width:2; stroke-opacity:0.1; fill:none" points="
  1892.5,1423.18 1892.5,123.472 
  "/>
<polyline clip-path="url(#clip053)" style="stroke:#000000; stroke-linecap:butt; stroke-linejoin:round; stroke-width:2; stroke-opacity:0.1; fill:none" points="
  2292.83,1423.18 2292.83,123.472 
  "/>
<polyline clip-path="url(#clip050)" style="stroke:#000000; stroke-linecap:butt; stroke-linejoin:round; stroke-width:4; stroke-opacity:1; fill:none" points="
  235.283,1423.18 2352.76,1423.18 
  "/>
<polyline clip-path="url(#clip050)" style="stroke:#000000; stroke-linecap:butt; stroke-linejoin:round; stroke-width:4; stroke-opacity:1; fill:none" points="
  291.208,1423.18 291.208,1404.28 
  "/>
<polyline clip-path="url(#clip050)" style="stroke:#000000; stroke-linecap:butt; stroke-linejoin:round; stroke-width:4; stroke-opacity:1; fill:none" points="
  691.532,1423.18 691.532,1404.28 
  "/>
<polyline clip-path="url(#clip050)" style="stroke:#000000; stroke-linecap:butt; stroke-linejoin:round; stroke-width:4; stroke-opacity:1; fill:none" points="
  1091.86,1423.18 1091.86,1404.28 
  "/>
<polyline clip-path="url(#clip050)" style="stroke:#000000; stroke-linecap:butt; stroke-linejoin:round; stroke-width:4; stroke-opacity:1; fill:none" points="
  1492.18,1423.18 1492.18,1404.28 
  "/>
<polyline clip-path="url(#clip050)" style="stroke:#000000; stroke-linecap:butt; stroke-linejoin:round; stroke-width:4; stroke-opacity:1; fill:none" points="
  1892.5,1423.18 1892.5,1404.28 
  "/>
<polyline clip-path="url(#clip050)" style="stroke:#000000; stroke-linecap:butt; stroke-linejoin:round; stroke-width:4; stroke-opacity:1; fill:none" points="
  2292.83,1423.18 2292.83,1404.28 
  "/>
<path clip-path="url(#clip050)" d="M291.208 1454.1 Q287.597 1454.1 285.768 1457.66 Q283.963 1461.2 283.963 1468.33 Q283.963 1475.44 285.768 1479.01 Q287.597 1482.55 291.208 1482.55 Q294.842 1482.55 296.648 1479.01 Q298.477 1475.44 298.477 1468.33 Q298.477 1461.2 296.648 1457.66 Q294.842 1454.1 291.208 1454.1 M291.208 1450.39 Q297.018 1450.39 300.074 1455 Q303.152 1459.58 303.152 1468.33 Q303.152 1477.06 300.074 1481.67 Q297.018 1486.25 291.208 1486.25 Q285.398 1486.25 282.319 1481.67 Q279.264 1477.06 279.264 1468.33 Q279.264 1459.58 282.319 1455 Q285.398 1450.39 291.208 1450.39 Z" fill="#000000" fill-rule="evenodd" fill-opacity="1" /><path clip-path="url(#clip050)" d="M651.139 1481.64 L658.778 1481.64 L658.778 1455.28 L650.467 1456.95 L650.467 1452.69 L658.731 1451.02 L663.407 1451.02 L663.407 1481.64 L671.046 1481.64 L671.046 1485.58 L651.139 1485.58 L651.139 1481.64 Z" fill="#000000" fill-rule="evenodd" fill-opacity="1" /><path clip-path="url(#clip050)" d="M690.49 1454.1 Q686.879 1454.1 685.051 1457.66 Q683.245 1461.2 683.245 1468.33 Q683.245 1475.44 685.051 1479.01 Q686.879 1482.55 690.49 1482.55 Q694.125 1482.55 695.93 1479.01 Q697.759 1475.44 697.759 1468.33 Q697.759 1461.2 695.93 1457.66 Q694.125 1454.1 690.49 1454.1 M690.49 1450.39 Q696.3 1450.39 699.356 1455 Q702.435 1459.58 702.435 1468.33 Q702.435 1477.06 699.356 1481.67 Q696.3 1486.25 690.49 1486.25 Q684.68 1486.25 681.601 1481.67 Q678.546 1477.06 678.546 1468.33 Q678.546 1459.58 681.601 1455 Q684.68 1450.39 690.49 1450.39 Z" fill="#000000" fill-rule="evenodd" fill-opacity="1" /><path clip-path="url(#clip050)" d="M720.652 1454.1 Q717.041 1454.1 715.212 1457.66 Q713.407 1461.2 713.407 1468.33 Q713.407 1475.44 715.212 1479.01 Q717.041 1482.55 720.652 1482.55 Q724.286 1482.55 726.092 1479.01 Q727.921 1475.44 727.921 1468.33 Q727.921 1461.2 726.092 1457.66 Q724.286 1454.1 720.652 1454.1 M720.652 1450.39 Q726.462 1450.39 729.518 1455 Q732.597 1459.58 732.597 1468.33 Q732.597 1477.06 729.518 1481.67 Q726.462 1486.25 720.652 1486.25 Q714.842 1486.25 711.763 1481.67 Q708.708 1477.06 708.708 1468.33 Q708.708 1459.58 711.763 1455 Q714.842 1450.39 720.652 1450.39 Z" fill="#000000" fill-rule="evenodd" fill-opacity="1" /><path clip-path="url(#clip050)" d="M1055.55 1481.64 L1071.87 1481.64 L1071.87 1485.58 L1049.92 1485.58 L1049.92 1481.64 Q1052.59 1478.89 1057.17 1474.26 Q1061.77 1469.61 1062.96 1468.27 Q1065.2 1465.74 1066.08 1464.01 Q1066.98 1462.25 1066.98 1460.56 Q1066.98 1457.8 1065.04 1456.07 Q1063.12 1454.33 1060.02 1454.33 Q1057.82 1454.33 1055.36 1455.09 Q1052.93 1455.86 1050.15 1457.41 L1050.15 1452.69 Q1052.98 1451.55 1055.43 1450.97 Q1057.89 1450.39 1059.92 1450.39 Q1065.29 1450.39 1068.49 1453.08 Q1071.68 1455.77 1071.68 1460.26 Q1071.68 1462.39 1070.87 1464.31 Q1070.09 1466.2 1067.98 1468.8 Q1067.4 1469.47 1064.3 1472.69 Q1061.2 1475.88 1055.55 1481.64 Z" fill="#000000" fill-rule="evenodd" fill-opacity="1" /><path clip-path="url(#clip050)" d="M1091.68 1454.1 Q1088.07 1454.1 1086.24 1457.66 Q1084.44 1461.2 1084.44 1468.33 Q1084.44 1475.44 1086.24 1479.01 Q1088.07 1482.55 1091.68 1482.55 Q1095.32 1482.55 1097.12 1479.01 Q1098.95 1475.44 1098.95 1468.33 Q1098.95 1461.2 1097.12 1457.66 Q1095.32 1454.1 1091.68 1454.1 M1091.68 1450.39 Q1097.49 1450.39 1100.55 1455 Q1103.63 1459.58 1103.63 1468.33 Q1103.63 1477.06 1100.55 1481.67 Q1097.49 1486.25 1091.68 1486.25 Q1085.87 1486.25 1082.79 1481.67 Q1079.74 1477.06 1079.74 1468.33 Q1079.74 1459.58 1082.79 1455 Q1085.87 1450.39 1091.68 1450.39 Z" fill="#000000" fill-rule="evenodd" fill-opacity="1" /><path clip-path="url(#clip050)" d="M1121.84 1454.1 Q1118.23 1454.1 1116.4 1457.66 Q1114.6 1461.2 1114.6 1468.33 Q1114.6 1475.44 1116.4 1479.01 Q1118.23 1482.55 1121.84 1482.55 Q1125.48 1482.55 1127.28 1479.01 Q1129.11 1475.44 1129.11 1468.33 Q1129.11 1461.2 1127.28 1457.66 Q1125.48 1454.1 1121.84 1454.1 M1121.84 1450.39 Q1127.65 1450.39 1130.71 1455 Q1133.79 1459.58 1133.79 1468.33 Q1133.79 1477.06 1130.71 1481.67 Q1127.65 1486.25 1121.84 1486.25 Q1116.03 1486.25 1112.96 1481.67 Q1109.9 1477.06 1109.9 1468.33 Q1109.9 1459.58 1112.96 1455 Q1116.03 1450.39 1121.84 1450.39 Z" fill="#000000" fill-rule="evenodd" fill-opacity="1" /><path clip-path="url(#clip050)" d="M1465.94 1466.95 Q1469.3 1467.66 1471.17 1469.93 Q1473.07 1472.2 1473.07 1475.53 Q1473.07 1480.65 1469.55 1483.45 Q1466.03 1486.25 1459.55 1486.25 Q1457.38 1486.25 1455.06 1485.81 Q1452.77 1485.39 1450.32 1484.54 L1450.32 1480.02 Q1452.26 1481.16 1454.58 1481.74 Q1456.89 1482.32 1459.41 1482.32 Q1463.81 1482.32 1466.1 1480.58 Q1468.42 1478.84 1468.42 1475.53 Q1468.42 1472.48 1466.27 1470.77 Q1464.14 1469.03 1460.32 1469.03 L1456.29 1469.03 L1456.29 1465.19 L1460.5 1465.19 Q1463.95 1465.19 1465.78 1463.82 Q1467.61 1462.43 1467.61 1459.84 Q1467.61 1457.18 1465.71 1455.77 Q1463.83 1454.33 1460.32 1454.33 Q1458.4 1454.33 1456.2 1454.75 Q1454 1455.16 1451.36 1456.04 L1451.36 1451.88 Q1454.02 1451.14 1456.33 1450.77 Q1458.67 1450.39 1460.73 1450.39 Q1466.06 1450.39 1469.16 1452.83 Q1472.26 1455.23 1472.26 1459.35 Q1472.26 1462.22 1470.62 1464.21 Q1468.97 1466.18 1465.94 1466.95 Z" fill="#000000" fill-rule="evenodd" fill-opacity="1" /><path clip-path="url(#clip050)" d="M1491.94 1454.1 Q1488.33 1454.1 1486.5 1457.66 Q1484.69 1461.2 1484.69 1468.33 Q1484.69 1475.44 1486.5 1479.01 Q1488.33 1482.55 1491.94 1482.55 Q1495.57 1482.55 1497.38 1479.01 Q1499.21 1475.44 1499.21 1468.33 Q1499.21 1461.2 1497.38 1457.66 Q1495.57 1454.1 1491.94 1454.1 M1491.94 1450.39 Q1497.75 1450.39 1500.8 1455 Q1503.88 1459.58 1503.88 1468.33 Q1503.88 1477.06 1500.8 1481.67 Q1497.75 1486.25 1491.94 1486.25 Q1486.13 1486.25 1483.05 1481.67 Q1479.99 1477.06 1479.99 1468.33 Q1479.99 1459.58 1483.05 1455 Q1486.13 1450.39 1491.94 1450.39 Z" fill="#000000" fill-rule="evenodd" fill-opacity="1" /><path clip-path="url(#clip050)" d="M1522.1 1454.1 Q1518.49 1454.1 1516.66 1457.66 Q1514.85 1461.2 1514.85 1468.33 Q1514.85 1475.44 1516.66 1479.01 Q1518.49 1482.55 1522.1 1482.55 Q1525.73 1482.55 1527.54 1479.01 Q1529.37 1475.44 1529.37 1468.33 Q1529.37 1461.2 1527.54 1457.66 Q1525.73 1454.1 1522.1 1454.1 M1522.1 1450.39 Q1527.91 1450.39 1530.96 1455 Q1534.04 1459.58 1534.04 1468.33 Q1534.04 1477.06 1530.96 1481.67 Q1527.91 1486.25 1522.1 1486.25 Q1516.29 1486.25 1513.21 1481.67 Q1510.15 1477.06 1510.15 1468.33 Q1510.15 1459.58 1513.21 1455 Q1516.29 1450.39 1522.1 1450.39 Z" fill="#000000" fill-rule="evenodd" fill-opacity="1" /><path clip-path="url(#clip050)" d="M1865.59 1455.09 L1853.79 1473.54 L1865.59 1473.54 L1865.59 1455.09 M1864.37 1451.02 L1870.25 1451.02 L1870.25 1473.54 L1875.18 1473.54 L1875.18 1477.43 L1870.25 1477.43 L1870.25 1485.58 L1865.59 1485.58 L1865.59 1477.43 L1849.99 1477.43 L1849.99 1472.92 L1864.37 1451.02 Z" fill="#000000" fill-rule="evenodd" fill-opacity="1" /><path clip-path="url(#clip050)" d="M1892.91 1454.1 Q1889.3 1454.1 1887.47 1457.66 Q1885.66 1461.2 1885.66 1468.33 Q1885.66 1475.44 1887.47 1479.01 Q1889.3 1482.55 1892.91 1482.55 Q1896.54 1482.55 1898.35 1479.01 Q1900.18 1475.44 1900.18 1468.33 Q1900.18 1461.2 1898.35 1457.66 Q1896.54 1454.1 1892.91 1454.1 M1892.91 1450.39 Q1898.72 1450.39 1901.77 1455 Q1904.85 1459.58 1904.85 1468.33 Q1904.85 1477.06 1901.77 1481.67 Q1898.72 1486.25 1892.91 1486.25 Q1887.1 1486.25 1884.02 1481.67 Q1880.96 1477.06 1880.96 1468.33 Q1880.96 1459.58 1884.02 1455 Q1887.1 1450.39 1892.91 1450.39 Z" fill="#000000" fill-rule="evenodd" fill-opacity="1" /><path clip-path="url(#clip050)" d="M1923.07 1454.1 Q1919.46 1454.1 1917.63 1457.66 Q1915.83 1461.2 1915.83 1468.33 Q1915.83 1475.44 1917.63 1479.01 Q1919.46 1482.55 1923.07 1482.55 Q1926.7 1482.55 1928.51 1479.01 Q1930.34 1475.44 1930.34 1468.33 Q1930.34 1461.2 1928.51 1457.66 Q1926.7 1454.1 1923.07 1454.1 M1923.07 1450.39 Q1928.88 1450.39 1931.94 1455 Q1935.01 1459.58 1935.01 1468.33 Q1935.01 1477.06 1931.94 1481.67 Q1928.88 1486.25 1923.07 1486.25 Q1917.26 1486.25 1914.18 1481.67 Q1911.13 1477.06 1911.13 1468.33 Q1911.13 1459.58 1914.18 1455 Q1917.26 1450.39 1923.07 1450.39 Z" fill="#000000" fill-rule="evenodd" fill-opacity="1" /><path clip-path="url(#clip050)" d="M2252.45 1451.02 L2270.8 1451.02 L2270.8 1454.96 L2256.73 1454.96 L2256.73 1463.43 Q2257.75 1463.08 2258.77 1462.92 Q2259.78 1462.73 2260.8 1462.73 Q2266.59 1462.73 2269.97 1465.9 Q2273.35 1469.08 2273.35 1474.49 Q2273.35 1480.07 2269.88 1483.17 Q2266.4 1486.25 2260.08 1486.25 Q2257.91 1486.25 2255.64 1485.88 Q2253.39 1485.51 2250.99 1484.77 L2250.99 1480.07 Q2253.07 1481.2 2255.29 1481.76 Q2257.52 1482.32 2259.99 1482.32 Q2264 1482.32 2266.33 1480.21 Q2268.67 1478.1 2268.67 1474.49 Q2268.67 1470.88 2266.33 1468.77 Q2264 1466.67 2259.99 1466.67 Q2258.12 1466.67 2256.24 1467.08 Q2254.39 1467.5 2252.45 1468.38 L2252.45 1451.02 Z" fill="#000000" fill-rule="evenodd" fill-opacity="1" /><path clip-path="url(#clip050)" d="M2292.56 1454.1 Q2288.95 1454.1 2287.12 1457.66 Q2285.32 1461.2 2285.32 1468.33 Q2285.32 1475.44 2287.12 1479.01 Q2288.95 1482.55 2292.56 1482.55 Q2296.2 1482.55 2298 1479.01 Q2299.83 1475.44 2299.83 1468.33 Q2299.83 1461.2 2298 1457.66 Q2296.2 1454.1 2292.56 1454.1 M2292.56 1450.39 Q2298.37 1450.39 2301.43 1455 Q2304.51 1459.58 2304.51 1468.33 Q2304.51 1477.06 2301.43 1481.67 Q2298.37 1486.25 2292.56 1486.25 Q2286.75 1486.25 2283.67 1481.67 Q2280.62 1477.06 2280.62 1468.33 Q2280.62 1459.58 2283.67 1455 Q2286.75 1450.39 2292.56 1450.39 Z" fill="#000000" fill-rule="evenodd" fill-opacity="1" /><path clip-path="url(#clip050)" d="M2322.72 1454.1 Q2319.11 1454.1 2317.28 1457.66 Q2315.48 1461.2 2315.48 1468.33 Q2315.48 1475.44 2317.28 1479.01 Q2319.11 1482.55 2322.72 1482.55 Q2326.36 1482.55 2328.16 1479.01 Q2329.99 1475.44 2329.99 1468.33 Q2329.99 1461.2 2328.16 1457.66 Q2326.36 1454.1 2322.72 1454.1 M2322.72 1450.39 Q2328.53 1450.39 2331.59 1455 Q2334.67 1459.58 2334.67 1468.33 Q2334.67 1477.06 2331.59 1481.67 Q2328.53 1486.25 2322.72 1486.25 Q2316.91 1486.25 2313.83 1481.67 Q2310.78 1477.06 2310.78 1468.33 Q2310.78 1459.58 2313.83 1455 Q2316.91 1450.39 2322.72 1450.39 Z" fill="#000000" fill-rule="evenodd" fill-opacity="1" /><path clip-path="url(#clip050)" d="M1302.49 1548.54 Q1302.49 1549.45 1302.07 1549.67 Q1301.65 1549.87 1300.49 1549.87 L1294.31 1549.87 L1289.41 1569.32 Q1289.03 1571.02 1289.03 1572.47 Q1289.03 1574.08 1289.51 1574.79 Q1290.03 1575.5 1291.09 1575.5 Q1293.18 1575.5 1295.44 1573.6 Q1297.72 1571.7 1299.66 1567.06 Q1299.91 1566.45 1300.04 1566.32 Q1300.2 1566.16 1300.62 1566.16 Q1301.43 1566.16 1301.43 1566.81 Q1301.43 1567.03 1300.98 1568.06 Q1300.56 1569.09 1299.62 1570.61 Q1298.72 1572.12 1297.53 1573.54 Q1296.37 1574.95 1294.6 1575.98 Q1292.83 1576.98 1290.93 1576.98 Q1288.26 1576.98 1286.55 1575.28 Q1284.87 1573.57 1284.87 1570.9 Q1284.87 1570.03 1285.55 1567.26 Q1286.23 1564.45 1289.9 1549.87 L1284.07 1549.87 Q1283.26 1549.87 1282.94 1549.83 Q1282.65 1549.8 1282.43 1549.64 Q1282.23 1549.45 1282.23 1549.06 Q1282.23 1548.45 1282.49 1548.19 Q1282.75 1547.9 1283.07 1547.87 Q1283.42 1547.8 1284.23 1547.8 L1290.41 1547.8 L1292.99 1537.34 Q1293.25 1536.31 1293.89 1535.73 Q1294.57 1535.12 1294.95 1535.05 Q1295.34 1534.95 1295.63 1534.95 Q1296.5 1534.95 1297.02 1535.44 Q1297.53 1535.89 1297.53 1536.73 Q1297.53 1537.18 1294.83 1547.8 L1300.62 1547.8 Q1301.36 1547.8 1301.65 1547.84 Q1301.98 1547.87 1302.23 1548.03 Q1302.49 1548.19 1302.49 1548.54 Z" fill="#000000" fill-rule="evenodd" fill-opacity="1" /><polyline clip-path="url(#clip053)" style="stroke:#000000; stroke-linecap:butt; stroke-linejoin:round; stroke-width:2; stroke-opacity:0.1; fill:none" points="
  235.283,1386.67 2352.76,1386.67 
  "/>
<polyline clip-path="url(#clip053)" style="stroke:#000000; stroke-linecap:butt; stroke-linejoin:round; stroke-width:2; stroke-opacity:0.1; fill:none" points="
  235.283,1138.33 2352.76,1138.33 
  "/>
<polyline clip-path="url(#clip053)" style="stroke:#000000; stroke-linecap:butt; stroke-linejoin:round; stroke-width:2; stroke-opacity:0.1; fill:none" points="
  235.283,889.988 2352.76,889.988 
  "/>
<polyline clip-path="url(#clip053)" style="stroke:#000000; stroke-linecap:butt; stroke-linejoin:round; stroke-width:2; stroke-opacity:0.1; fill:none" points="
  235.283,641.645 2352.76,641.645 
  "/>
<polyline clip-path="url(#clip053)" style="stroke:#000000; stroke-linecap:butt; stroke-linejoin:round; stroke-width:2; stroke-opacity:0.1; fill:none" points="
  235.283,393.302 2352.76,393.302 
  "/>
<polyline clip-path="url(#clip053)" style="stroke:#000000; stroke-linecap:butt; stroke-linejoin:round; stroke-width:2; stroke-opacity:0.1; fill:none" points="
  235.283,144.96 2352.76,144.96 
  "/>
<polyline clip-path="url(#clip050)" style="stroke:#000000; stroke-linecap:butt; stroke-linejoin:round; stroke-width:4; stroke-opacity:1; fill:none" points="
  235.283,1423.18 235.283,123.472 
  "/>
<polyline clip-path="url(#clip050)" style="stroke:#000000; stroke-linecap:butt; stroke-linejoin:round; stroke-width:4; stroke-opacity:1; fill:none" points="
  235.283,1386.67 254.18,1386.67 
  "/>
<polyline clip-path="url(#clip050)" style="stroke:#000000; stroke-linecap:butt; stroke-linejoin:round; stroke-width:4; stroke-opacity:1; fill:none" points="
  235.283,1138.33 254.18,1138.33 
  "/>
<polyline clip-path="url(#clip050)" style="stroke:#000000; stroke-linecap:butt; stroke-linejoin:round; stroke-width:4; stroke-opacity:1; fill:none" points="
  235.283,889.988 254.18,889.988 
  "/>
<polyline clip-path="url(#clip050)" style="stroke:#000000; stroke-linecap:butt; stroke-linejoin:round; stroke-width:4; stroke-opacity:1; fill:none" points="
  235.283,641.645 254.18,641.645 
  "/>
<polyline clip-path="url(#clip050)" style="stroke:#000000; stroke-linecap:butt; stroke-linejoin:round; stroke-width:4; stroke-opacity:1; fill:none" points="
  235.283,393.302 254.18,393.302 
  "/>
<polyline clip-path="url(#clip050)" style="stroke:#000000; stroke-linecap:butt; stroke-linejoin:round; stroke-width:4; stroke-opacity:1; fill:none" points="
  235.283,144.96 254.18,144.96 
  "/>
<path clip-path="url(#clip050)" d="M187.338 1372.47 Q183.727 1372.47 181.899 1376.04 Q180.093 1379.58 180.093 1386.71 Q180.093 1393.81 181.899 1397.38 Q183.727 1400.92 187.338 1400.92 Q190.973 1400.92 192.778 1397.38 Q194.607 1393.81 194.607 1386.71 Q194.607 1379.58 192.778 1376.04 Q190.973 1372.47 187.338 1372.47 M187.338 1368.77 Q193.149 1368.77 196.204 1373.37 Q199.283 1377.96 199.283 1386.71 Q199.283 1395.43 196.204 1400.04 Q193.149 1404.62 187.338 1404.62 Q181.528 1404.62 178.45 1400.04 Q175.394 1395.43 175.394 1386.71 Q175.394 1377.96 178.45 1373.37 Q181.528 1368.77 187.338 1368.77 Z" fill="#000000" fill-rule="evenodd" fill-opacity="1" /><path clip-path="url(#clip050)" d="M117.825 1151.68 L125.464 1151.68 L125.464 1125.31 L117.154 1126.98 L117.154 1122.72 L125.418 1121.05 L130.093 1121.05 L130.093 1151.68 L137.732 1151.68 L137.732 1155.61 L117.825 1155.61 L117.825 1151.68 Z" fill="#000000" fill-rule="evenodd" fill-opacity="1" /><path clip-path="url(#clip050)" d="M157.177 1124.13 Q153.566 1124.13 151.737 1127.69 Q149.931 1131.24 149.931 1138.37 Q149.931 1145.47 151.737 1149.04 Q153.566 1152.58 157.177 1152.58 Q160.811 1152.58 162.616 1149.04 Q164.445 1145.47 164.445 1138.37 Q164.445 1131.24 162.616 1127.69 Q160.811 1124.13 157.177 1124.13 M157.177 1120.43 Q162.987 1120.43 166.042 1125.03 Q169.121 1129.62 169.121 1138.37 Q169.121 1147.09 166.042 1151.7 Q162.987 1156.28 157.177 1156.28 Q151.366 1156.28 148.288 1151.7 Q145.232 1147.09 145.232 1138.37 Q145.232 1129.62 148.288 1125.03 Q151.366 1120.43 157.177 1120.43 Z" fill="#000000" fill-rule="evenodd" fill-opacity="1" /><path clip-path="url(#clip050)" d="M187.338 1124.13 Q183.727 1124.13 181.899 1127.69 Q180.093 1131.24 180.093 1138.37 Q180.093 1145.47 181.899 1149.04 Q183.727 1152.58 187.338 1152.58 Q190.973 1152.58 192.778 1149.04 Q194.607 1145.47 194.607 1138.37 Q194.607 1131.24 192.778 1127.69 Q190.973 1124.13 187.338 1124.13 M187.338 1120.43 Q193.149 1120.43 196.204 1125.03 Q199.283 1129.62 199.283 1138.37 Q199.283 1147.09 196.204 1151.7 Q193.149 1156.28 187.338 1156.28 Q181.528 1156.28 178.45 1151.7 Q175.394 1147.09 175.394 1138.37 Q175.394 1129.62 178.45 1125.03 Q181.528 1120.43 187.338 1120.43 Z" fill="#000000" fill-rule="evenodd" fill-opacity="1" /><path clip-path="url(#clip050)" d="M121.043 903.333 L137.362 903.333 L137.362 907.268 L115.418 907.268 L115.418 903.333 Q118.08 900.578 122.663 895.948 Q127.269 891.296 128.45 889.953 Q130.695 887.43 131.575 885.694 Q132.478 883.935 132.478 882.245 Q132.478 879.49 130.533 877.754 Q128.612 876.018 125.51 876.018 Q123.311 876.018 120.857 876.782 Q118.427 877.546 115.649 879.097 L115.649 874.374 Q118.473 873.24 120.927 872.661 Q123.38 872.083 125.418 872.083 Q130.788 872.083 133.982 874.768 Q137.177 877.453 137.177 881.944 Q137.177 884.073 136.367 885.995 Q135.579 887.893 133.473 890.485 Q132.894 891.157 129.792 894.374 Q126.691 897.569 121.043 903.333 Z" fill="#000000" fill-rule="evenodd" fill-opacity="1" /><path clip-path="url(#clip050)" d="M157.177 875.786 Q153.566 875.786 151.737 879.351 Q149.931 882.893 149.931 890.022 Q149.931 897.129 151.737 900.694 Q153.566 904.235 157.177 904.235 Q160.811 904.235 162.616 900.694 Q164.445 897.129 164.445 890.022 Q164.445 882.893 162.616 879.351 Q160.811 875.786 157.177 875.786 M157.177 872.083 Q162.987 872.083 166.042 876.689 Q169.121 881.273 169.121 890.022 Q169.121 898.749 166.042 903.356 Q162.987 907.939 157.177 907.939 Q151.366 907.939 148.288 903.356 Q145.232 898.749 145.232 890.022 Q145.232 881.273 148.288 876.689 Q151.366 872.083 157.177 872.083 Z" fill="#000000" fill-rule="evenodd" fill-opacity="1" /><path clip-path="url(#clip050)" d="M187.338 875.786 Q183.727 875.786 181.899 879.351 Q180.093 882.893 180.093 890.022 Q180.093 897.129 181.899 900.694 Q183.727 904.235 187.338 904.235 Q190.973 904.235 192.778 900.694 Q194.607 897.129 194.607 890.022 Q194.607 882.893 192.778 879.351 Q190.973 875.786 187.338 875.786 M187.338 872.083 Q193.149 872.083 196.204 876.689 Q199.283 881.273 199.283 890.022 Q199.283 898.749 196.204 903.356 Q193.149 907.939 187.338 907.939 Q181.528 907.939 178.45 903.356 Q175.394 898.749 175.394 890.022 Q175.394 881.273 178.45 876.689 Q181.528 872.083 187.338 872.083 Z" fill="#000000" fill-rule="evenodd" fill-opacity="1" /><path clip-path="url(#clip050)" d="M131.181 640.291 Q134.538 641.008 136.413 643.277 Q138.311 645.546 138.311 648.879 Q138.311 653.995 134.792 656.795 Q131.274 659.596 124.793 659.596 Q122.617 659.596 120.302 659.157 Q118.01 658.74 115.556 657.883 L115.556 653.37 Q117.501 654.504 119.816 655.082 Q122.13 655.661 124.654 655.661 Q129.052 655.661 131.343 653.925 Q133.658 652.189 133.658 648.879 Q133.658 645.823 131.505 644.11 Q129.376 642.374 125.556 642.374 L121.529 642.374 L121.529 638.532 L125.742 638.532 Q129.191 638.532 131.019 637.166 Q132.848 635.777 132.848 633.184 Q132.848 630.522 130.95 629.11 Q129.075 627.675 125.556 627.675 Q123.635 627.675 121.436 628.092 Q119.237 628.509 116.598 629.388 L116.598 625.222 Q119.26 624.481 121.575 624.11 Q123.913 623.74 125.973 623.74 Q131.297 623.74 134.399 626.171 Q137.501 628.578 137.501 632.698 Q137.501 635.569 135.857 637.559 Q134.214 639.527 131.181 640.291 Z" fill="#000000" fill-rule="evenodd" fill-opacity="1" /><path clip-path="url(#clip050)" d="M157.177 627.444 Q153.566 627.444 151.737 631.009 Q149.931 634.55 149.931 641.68 Q149.931 648.786 151.737 652.351 Q153.566 655.893 157.177 655.893 Q160.811 655.893 162.616 652.351 Q164.445 648.786 164.445 641.68 Q164.445 634.55 162.616 631.009 Q160.811 627.444 157.177 627.444 M157.177 623.74 Q162.987 623.74 166.042 628.347 Q169.121 632.93 169.121 641.68 Q169.121 650.407 166.042 655.013 Q162.987 659.596 157.177 659.596 Q151.366 659.596 148.288 655.013 Q145.232 650.407 145.232 641.68 Q145.232 632.93 148.288 628.347 Q151.366 623.74 157.177 623.74 Z" fill="#000000" fill-rule="evenodd" fill-opacity="1" /><path clip-path="url(#clip050)" d="M187.338 627.444 Q183.727 627.444 181.899 631.009 Q180.093 634.55 180.093 641.68 Q180.093 648.786 181.899 652.351 Q183.727 655.893 187.338 655.893 Q190.973 655.893 192.778 652.351 Q194.607 648.786 194.607 641.68 Q194.607 634.55 192.778 631.009 Q190.973 627.444 187.338 627.444 M187.338 623.74 Q193.149 623.74 196.204 628.347 Q199.283 632.93 199.283 641.68 Q199.283 650.407 196.204 655.013 Q193.149 659.596 187.338 659.596 Q181.528 659.596 178.45 655.013 Q175.394 650.407 175.394 641.68 Q175.394 632.93 178.45 628.347 Q181.528 623.74 187.338 623.74 Z" fill="#000000" fill-rule="evenodd" fill-opacity="1" /><path clip-path="url(#clip050)" d="M129.862 380.096 L118.056 398.545 L129.862 398.545 L129.862 380.096 M128.635 376.022 L134.515 376.022 L134.515 398.545 L139.445 398.545 L139.445 402.434 L134.515 402.434 L134.515 410.582 L129.862 410.582 L129.862 402.434 L114.26 402.434 L114.26 397.92 L128.635 376.022 Z" fill="#000000" fill-rule="evenodd" fill-opacity="1" /><path clip-path="url(#clip050)" d="M157.177 379.101 Q153.566 379.101 151.737 382.666 Q149.931 386.207 149.931 393.337 Q149.931 400.444 151.737 404.008 Q153.566 407.55 157.177 407.55 Q160.811 407.55 162.616 404.008 Q164.445 400.444 164.445 393.337 Q164.445 386.207 162.616 382.666 Q160.811 379.101 157.177 379.101 M157.177 375.397 Q162.987 375.397 166.042 380.004 Q169.121 384.587 169.121 393.337 Q169.121 402.064 166.042 406.67 Q162.987 411.254 157.177 411.254 Q151.366 411.254 148.288 406.67 Q145.232 402.064 145.232 393.337 Q145.232 384.587 148.288 380.004 Q151.366 375.397 157.177 375.397 Z" fill="#000000" fill-rule="evenodd" fill-opacity="1" /><path clip-path="url(#clip050)" d="M187.338 379.101 Q183.727 379.101 181.899 382.666 Q180.093 386.207 180.093 393.337 Q180.093 400.444 181.899 404.008 Q183.727 407.55 187.338 407.55 Q190.973 407.55 192.778 404.008 Q194.607 400.444 194.607 393.337 Q194.607 386.207 192.778 382.666 Q190.973 379.101 187.338 379.101 M187.338 375.397 Q193.149 375.397 196.204 380.004 Q199.283 384.587 199.283 393.337 Q199.283 402.064 196.204 406.67 Q193.149 411.254 187.338 411.254 Q181.528 411.254 178.45 406.67 Q175.394 402.064 175.394 393.337 Q175.394 384.587 178.45 380.004 Q181.528 375.397 187.338 375.397 Z" fill="#000000" fill-rule="evenodd" fill-opacity="1" /><path clip-path="url(#clip050)" d="M117.061 127.68 L135.417 127.68 L135.417 131.615 L121.343 131.615 L121.343 140.087 Q122.362 139.74 123.38 139.578 Q124.399 139.393 125.418 139.393 Q131.205 139.393 134.584 142.564 Q137.964 145.735 137.964 151.152 Q137.964 156.73 134.492 159.832 Q131.019 162.911 124.7 162.911 Q122.524 162.911 120.255 162.541 Q118.01 162.17 115.603 161.429 L115.603 156.73 Q117.686 157.865 119.908 158.42 Q122.13 158.976 124.607 158.976 Q128.612 158.976 130.95 156.869 Q133.288 154.763 133.288 151.152 Q133.288 147.541 130.95 145.434 Q128.612 143.328 124.607 143.328 Q122.732 143.328 120.857 143.744 Q119.006 144.161 117.061 145.041 L117.061 127.68 Z" fill="#000000" fill-rule="evenodd" fill-opacity="1" /><path clip-path="url(#clip050)" d="M157.177 130.758 Q153.566 130.758 151.737 134.323 Q149.931 137.865 149.931 144.994 Q149.931 152.101 151.737 155.666 Q153.566 159.207 157.177 159.207 Q160.811 159.207 162.616 155.666 Q164.445 152.101 164.445 144.994 Q164.445 137.865 162.616 134.323 Q160.811 130.758 157.177 130.758 M157.177 127.055 Q162.987 127.055 166.042 131.661 Q169.121 136.244 169.121 144.994 Q169.121 153.721 166.042 158.328 Q162.987 162.911 157.177 162.911 Q151.366 162.911 148.288 158.328 Q145.232 153.721 145.232 144.994 Q145.232 136.244 148.288 131.661 Q151.366 127.055 157.177 127.055 Z" fill="#000000" fill-rule="evenodd" fill-opacity="1" /><path clip-path="url(#clip050)" d="M187.338 130.758 Q183.727 130.758 181.899 134.323 Q180.093 137.865 180.093 144.994 Q180.093 152.101 181.899 155.666 Q183.727 159.207 187.338 159.207 Q190.973 159.207 192.778 155.666 Q194.607 152.101 194.607 144.994 Q194.607 137.865 192.778 134.323 Q190.973 130.758 187.338 130.758 M187.338 127.055 Q193.149 127.055 196.204 131.661 Q199.283 136.244 199.283 144.994 Q199.283 153.721 196.204 158.328 Q193.149 162.911 187.338 162.911 Q181.528 162.911 178.45 158.328 Q175.394 153.721 175.394 144.994 Q175.394 136.244 178.45 131.661 Q181.528 127.055 187.338 127.055 Z" fill="#000000" fill-rule="evenodd" fill-opacity="1" /><path clip-path="url(#clip050)" d="M21.2773 759.946 Q21.857 759.946 22.1791 760.172 Q22.4689 760.365 22.5334 760.59 Q22.5656 760.816 22.5978 761.396 Q22.8232 766.001 25.9472 769.769 Q26.7523 770.703 29.2644 773.054 Q31.7764 775.373 35.1259 778.465 Q38.4753 781.524 40.2788 783.295 L60.6329 774.793 Q61.438 774.439 61.7923 774.31 Q62.1144 774.149 62.533 773.827 Q62.9517 773.473 63.0805 773.215 Q63.2094 772.925 63.3704 772.313 Q63.4992 771.669 63.5314 771.025 Q63.5314 770.349 63.5636 769.125 Q63.5636 768.738 63.5958 768.577 Q63.5958 768.384 63.7891 768.159 Q63.9501 767.933 64.3366 767.933 Q64.9163 767.933 65.2383 768.191 Q65.5282 768.416 65.5604 768.642 Q65.5926 768.835 65.5926 769.189 Q65.5926 770.027 65.496 772.861 Q65.3994 775.695 65.3994 776.5 L65.5926 784.809 Q65.5926 785.808 64.7874 785.808 Q64.3688 785.808 64.1433 785.743 Q63.8857 785.647 63.7891 785.421 Q63.6602 785.196 63.628 785.035 Q63.5958 784.874 63.5636 784.487 Q63.4348 783.295 63.0805 782.394 Q62.6941 781.46 62.3076 781.073 Q61.9211 780.655 61.6313 780.655 L60.6973 780.977 L44.9486 787.643 L51.422 793.601 L58.5395 800.332 Q60.4397 802.104 61.5025 802.104 Q63.2738 802.104 63.5636 799.463 Q63.628 798.658 64.2722 798.658 Q64.8841 798.658 65.2061 798.915 Q65.496 799.141 65.5604 799.366 Q65.5926 799.559 65.5926 799.849 Q65.5926 801.041 65.496 803.553 Q65.3994 806.033 65.3994 807.257 Q65.3994 808.287 65.496 810.381 Q65.5926 812.474 65.5926 813.44 Q65.5926 813.827 65.3994 814.052 Q65.2061 814.278 65.0129 814.278 L64.8519 814.31 Q64.401 814.31 64.1433 814.245 Q63.8857 814.149 63.7569 813.891 Q63.628 813.601 63.628 813.472 Q63.5958 813.344 63.5636 812.86 Q63.4026 810.123 62.3398 807.804 Q61.277 805.453 58.7972 803.167 Q58.6361 802.973 58.4429 802.748 Q58.2497 802.49 58.0886 802.297 L43.1129 788.384 L24.6912 796.178 Q23.8538 796.532 23.4995 796.854 Q23.1131 797.176 22.8554 798.175 Q22.5978 799.173 22.5978 801.105 Q22.5978 801.653 22.5656 801.91 Q22.5334 802.168 22.3723 802.394 Q22.2113 802.619 21.857 802.619 Q21.2451 802.619 20.9553 802.394 Q20.6332 802.136 20.601 801.943 Q20.5366 801.717 20.5366 801.427 Q20.5366 800.622 20.6332 797.756 Q20.7298 794.89 20.7298 794.052 Q20.7298 792.667 20.6332 789.898 Q20.5366 787.096 20.5366 785.743 Q20.5366 784.745 21.3417 784.745 Q21.857 784.745 22.1469 784.97 Q22.4367 785.196 22.5012 785.421 Q22.5656 785.647 22.5978 786.065 Q22.7266 787.321 23.1453 788.287 Q23.5317 789.221 23.9182 789.608 Q24.2725 789.962 24.4979 789.962 L25.3675 789.64 L38.4753 784.101 L27.01 773.408 Q25.5929 772.152 24.6267 772.152 Q22.8876 772.152 22.5978 774.793 Q22.4689 775.598 21.857 775.598 Q21.2451 775.598 20.9553 775.341 Q20.6332 775.083 20.601 774.89 Q20.5366 774.664 20.5366 774.342 Q20.5366 773.151 20.6332 770.703 Q20.7298 768.223 20.7298 766.999 Q20.7298 765.969 20.6332 763.875 Q20.5366 761.782 20.5366 760.816 Q20.5366 760.429 20.7298 760.204 Q20.8909 759.978 21.0841 759.978 L21.2773 759.946 Z" fill="#000000" fill-rule="evenodd" fill-opacity="1" /><path clip-path="url(#clip050)" d="M63.3787 739.246 Q64.01 739.246 64.1678 739.539 Q64.303 739.832 64.303 740.643 L64.303 744.972 L77.9197 748.399 Q79.1145 748.669 80.129 748.669 Q81.2562 748.669 81.7522 748.331 Q82.2481 747.97 82.2481 747.226 Q82.2481 745.761 80.918 744.183 Q79.5879 742.582 76.3416 741.23 Q75.9133 741.049 75.8231 740.959 Q75.7104 740.846 75.7104 740.553 Q75.7104 739.99 76.1612 739.99 Q76.319 739.99 77.0405 740.305 Q77.7619 740.598 78.8214 741.252 Q79.881 741.883 80.873 742.718 Q81.8649 743.529 82.5863 744.769 Q83.2852 746.009 83.2852 747.339 Q83.2852 749.21 82.0903 750.405 Q80.8955 751.577 79.0243 751.577 Q78.4156 751.577 76.4769 751.104 Q74.5155 750.631 64.303 748.06 L64.303 752.141 Q64.303 752.705 64.2805 752.93 Q64.2579 753.133 64.1452 753.291 Q64.01 753.426 63.7394 753.426 Q63.3111 753.426 63.1307 753.246 Q62.9278 753.065 62.9053 752.84 Q62.8602 752.592 62.8602 752.028 L62.8602 747.7 L55.5334 745.896 Q54.812 745.716 54.4062 745.265 Q53.9778 744.792 53.9327 744.521 Q53.8651 744.251 53.8651 744.048 Q53.8651 743.439 54.2033 743.078 Q54.5189 742.718 55.105 742.718 Q55.4207 742.718 62.8602 744.611 L62.8602 740.553 Q62.8602 740.035 62.8828 739.832 Q62.9053 739.606 63.018 739.426 Q63.1307 739.246 63.3787 739.246 Z" fill="#000000" fill-rule="evenodd" fill-opacity="1" /><path clip-path="url(#clip050)" d="M980.663 46.2401 Q983.296 47.1313 985.767 50.048 Q988.279 52.9646 990.791 58.0688 L999.095 74.5965 L990.304 74.5965 L982.567 59.0815 Q979.57 53.0051 976.734 51.0202 Q973.939 49.0353 969.078 49.0353 L960.166 49.0353 L960.166 74.5965 L951.983 74.5965 L951.983 14.1165 L970.455 14.1165 Q980.825 14.1165 985.929 18.4509 Q991.034 22.7854 991.034 31.5354 Q991.034 37.2471 988.36 41.0145 Q985.727 44.7818 980.663 46.2401 M960.166 20.841 L960.166 42.3108 L970.455 42.3108 Q976.369 42.3108 979.367 39.5967 Q982.405 36.842 982.405 31.5354 Q982.405 26.2287 979.367 23.5551 Q976.369 20.841 970.455 20.841 L960.166 20.841 Z" fill="#000000" fill-rule="evenodd" fill-opacity="1" /><path clip-path="url(#clip050)" d="M1044.38 50.048 L1044.38 53.6938 L1010.11 53.6938 Q1010.6 61.3905 1014.73 65.4414 Q1018.9 69.4518 1026.32 69.4518 Q1030.61 69.4518 1034.62 68.3986 Q1038.67 67.3454 1042.64 65.2389 L1042.64 72.2875 Q1038.63 73.9888 1034.42 74.88 Q1030.21 75.7712 1025.87 75.7712 Q1015.01 75.7712 1008.66 69.4518 Q1002.34 63.1324 1002.34 52.357 Q1002.34 41.217 1008.33 34.6951 Q1014.37 28.1326 1024.58 28.1326 Q1033.73 28.1326 1039.04 34.0469 Q1044.38 39.9207 1044.38 50.048 M1036.93 47.8605 Q1036.85 41.7436 1033.49 38.0978 Q1030.17 34.452 1024.66 34.452 Q1018.42 34.452 1014.65 37.9763 Q1010.92 41.5006 1010.36 47.901 L1036.93 47.8605 Z" fill="#000000" fill-rule="evenodd" fill-opacity="1" /><path clip-path="url(#clip050)" d="M1077.24 51.7899 Q1068.2 51.7899 1064.72 53.8558 Q1061.24 55.9218 1061.24 60.9044 Q1061.24 64.8743 1063.83 67.2238 Q1066.46 69.5328 1070.96 69.5328 Q1077.16 69.5328 1080.88 65.1579 Q1084.65 60.7424 1084.65 53.4507 L1084.65 51.7899 L1077.24 51.7899 M1092.1 48.7112 L1092.1 74.5965 L1084.65 74.5965 L1084.65 67.7099 Q1082.1 71.8419 1078.29 73.8268 Q1074.48 75.7712 1068.97 75.7712 Q1062.01 75.7712 1057.87 71.8824 Q1053.78 67.953 1053.78 61.3905 Q1053.78 53.7343 1058.89 49.8454 Q1064.03 45.9566 1074.2 45.9566 L1084.65 45.9566 L1084.65 45.2274 Q1084.65 40.0828 1081.25 37.2876 Q1077.89 34.452 1071.77 34.452 Q1067.88 34.452 1064.19 35.3837 Q1060.51 36.3154 1057.1 38.1788 L1057.1 31.2923 Q1061.2 29.7124 1065.04 28.9428 Q1068.89 28.1326 1072.54 28.1326 Q1082.38 28.1326 1087.24 33.2367 Q1092.1 38.3409 1092.1 48.7112 Z" fill="#000000" fill-rule="evenodd" fill-opacity="1" /><path clip-path="url(#clip050)" d="M1107.46 11.5644 L1114.91 11.5644 L1114.91 74.5965 L1107.46 74.5965 L1107.46 11.5644 Z" fill="#000000" fill-rule="evenodd" fill-opacity="1" /><path clip-path="url(#clip050)" d="M1130.51 29.2263 L1137.96 29.2263 L1137.96 74.5965 L1130.51 74.5965 L1130.51 29.2263 M1130.51 11.5644 L1137.96 11.5644 L1137.96 21.003 L1130.51 21.003 L1130.51 11.5644 Z" fill="#000000" fill-rule="evenodd" fill-opacity="1" /><path clip-path="url(#clip050)" d="M1150.32 29.2263 L1185.72 29.2263 L1185.72 36.0319 L1157.69 68.6416 L1185.72 68.6416 L1185.72 74.5965 L1149.3 74.5965 L1149.3 67.7909 L1177.33 35.1812 L1150.32 35.1812 L1150.32 29.2263 Z" fill="#000000" fill-rule="evenodd" fill-opacity="1" /><path clip-path="url(#clip050)" d="M1217.72 51.7899 Q1208.69 51.7899 1205.2 53.8558 Q1201.72 55.9218 1201.72 60.9044 Q1201.72 64.8743 1204.31 67.2238 Q1206.95 69.5328 1211.44 69.5328 Q1217.64 69.5328 1221.37 65.1579 Q1225.14 60.7424 1225.14 53.4507 L1225.14 51.7899 L1217.72 51.7899 M1232.59 48.7112 L1232.59 74.5965 L1225.14 74.5965 L1225.14 67.7099 Q1222.58 71.8419 1218.78 73.8268 Q1214.97 75.7712 1209.46 75.7712 Q1202.49 75.7712 1198.36 71.8824 Q1194.27 67.953 1194.27 61.3905 Q1194.27 53.7343 1199.37 49.8454 Q1204.52 45.9566 1214.68 45.9566 L1225.14 45.9566 L1225.14 45.2274 Q1225.14 40.0828 1221.73 37.2876 Q1218.37 34.452 1212.25 34.452 Q1208.36 34.452 1204.68 35.3837 Q1200.99 36.3154 1197.59 38.1788 L1197.59 31.2923 Q1201.68 29.7124 1205.53 28.9428 Q1209.38 28.1326 1213.02 28.1326 Q1222.87 28.1326 1227.73 33.2367 Q1232.59 38.3409 1232.59 48.7112 Z" fill="#000000" fill-rule="evenodd" fill-opacity="1" /><path clip-path="url(#clip050)" d="M1255.31 16.3445 L1255.31 29.2263 L1270.67 29.2263 L1270.67 35.0191 L1255.31 35.0191 L1255.31 59.6486 Q1255.31 65.1984 1256.81 66.7782 Q1258.35 68.3581 1263.01 68.3581 L1270.67 68.3581 L1270.67 74.5965 L1263.01 74.5965 Q1254.38 74.5965 1251.1 71.3963 Q1247.82 68.1555 1247.82 59.6486 L1247.82 35.0191 L1242.35 35.0191 L1242.35 29.2263 L1247.82 29.2263 L1247.82 16.3445 L1255.31 16.3445 Z" fill="#000000" fill-rule="evenodd" fill-opacity="1" /><path clip-path="url(#clip050)" d="M1280.47 29.2263 L1287.92 29.2263 L1287.92 74.5965 L1280.47 74.5965 L1280.47 29.2263 M1280.47 11.5644 L1287.92 11.5644 L1287.92 21.003 L1280.47 21.003 L1280.47 11.5644 Z" fill="#000000" fill-rule="evenodd" fill-opacity="1" /><path clip-path="url(#clip050)" d="M1321.1 34.452 Q1315.11 34.452 1311.62 39.1511 Q1308.14 43.8096 1308.14 51.9519 Q1308.14 60.0942 1311.58 64.7933 Q1315.07 69.4518 1321.1 69.4518 Q1327.06 69.4518 1330.54 64.7528 Q1334.02 60.0537 1334.02 51.9519 Q1334.02 43.8906 1330.54 39.1916 Q1327.06 34.452 1321.1 34.452 M1321.1 28.1326 Q1330.82 28.1326 1336.37 34.452 Q1341.92 40.7714 1341.92 51.9519 Q1341.92 63.0919 1336.37 69.4518 Q1330.82 75.7712 1321.1 75.7712 Q1311.34 75.7712 1305.79 69.4518 Q1300.28 63.0919 1300.28 51.9519 Q1300.28 40.7714 1305.79 34.452 Q1311.34 28.1326 1321.1 28.1326 Z" fill="#000000" fill-rule="evenodd" fill-opacity="1" /><path clip-path="url(#clip050)" d="M1391.99 47.2124 L1391.99 74.5965 L1384.54 74.5965 L1384.54 47.4554 Q1384.54 41.0145 1382.03 37.8143 Q1379.52 34.614 1374.49 34.614 Q1368.46 34.614 1364.97 38.4624 Q1361.49 42.3108 1361.49 48.9542 L1361.49 74.5965 L1353.99 74.5965 L1353.99 29.2263 L1361.49 29.2263 L1361.49 36.2749 Q1364.16 32.1835 1367.77 30.158 Q1371.41 28.1326 1376.15 28.1326 Q1383.97 28.1326 1387.98 32.9937 Q1391.99 37.8143 1391.99 47.2124 Z" fill="#000000" fill-rule="evenodd" fill-opacity="1" /><path clip-path="url(#clip050)" d="M1450.81 34.452 Q1444.82 34.452 1441.33 39.1511 Q1437.85 43.8096 1437.85 51.9519 Q1437.85 60.0942 1441.29 64.7933 Q1444.78 69.4518 1450.81 69.4518 Q1456.77 69.4518 1460.25 64.7528 Q1463.73 60.0537 1463.73 51.9519 Q1463.73 43.8906 1460.25 39.1916 Q1456.77 34.452 1450.81 34.452 M1450.81 28.1326 Q1460.53 28.1326 1466.08 34.452 Q1471.63 40.7714 1471.63 51.9519 Q1471.63 63.0919 1466.08 69.4518 Q1460.53 75.7712 1450.81 75.7712 Q1441.05 75.7712 1435.5 69.4518 Q1429.99 63.0919 1429.99 51.9519 Q1429.99 40.7714 1435.5 34.452 Q1441.05 28.1326 1450.81 28.1326 Z" fill="#000000" fill-rule="evenodd" fill-opacity="1" /><path clip-path="url(#clip050)" d="M1506.96 11.5644 L1506.96 17.7623 L1499.83 17.7623 Q1495.82 17.7623 1494.24 19.3826 Q1492.7 21.003 1492.7 25.2159 L1492.7 29.2263 L1504.97 29.2263 L1504.97 35.0191 L1492.7 35.0191 L1492.7 74.5965 L1485.2 74.5965 L1485.2 35.0191 L1478.07 35.0191 L1478.07 29.2263 L1485.2 29.2263 L1485.2 26.0666 Q1485.2 18.4914 1488.73 15.0482 Q1492.25 11.5644 1499.91 11.5644 L1506.96 11.5644 Z" fill="#000000" fill-rule="evenodd" fill-opacity="1" /><path clip-path="url(#clip050)" d="M1600.94 18.1952 Q1600.94 18.933 1600.65 19.3429 Q1600.41 19.7118 1600.12 19.7938 Q1599.83 19.8348 1599.09 19.8758 Q1593.23 20.1627 1588.44 24.1387 Q1587.25 25.1634 1584.26 28.3606 Q1581.3 31.5577 1577.37 35.8206 Q1573.48 40.0835 1571.22 42.3789 L1582.04 68.2841 Q1582.49 69.3089 1582.66 69.7597 Q1582.86 70.1696 1583.27 70.7025 Q1583.72 71.2353 1584.05 71.3993 Q1584.42 71.5633 1585.2 71.7682 Q1586.02 71.9322 1586.84 71.9732 Q1587.7 71.9732 1589.26 72.0141 Q1589.75 72.0141 1589.95 72.0551 Q1590.2 72.0551 1590.49 72.3011 Q1590.77 72.506 1590.77 72.9979 Q1590.77 73.7357 1590.44 74.1456 Q1590.16 74.5145 1589.87 74.5555 Q1589.63 74.5965 1589.17 74.5965 Q1588.11 74.5965 1584.5 74.4735 Q1580.89 74.3505 1579.87 74.3505 L1569.29 74.5965 Q1568.02 74.5965 1568.02 73.5717 Q1568.02 73.0389 1568.11 72.752 Q1568.23 72.424 1568.52 72.3011 Q1568.8 72.1371 1569.01 72.0961 Q1569.21 72.0551 1569.7 72.0141 Q1571.22 71.8502 1572.37 71.3993 Q1573.56 70.9074 1574.05 70.4156 Q1574.58 69.9237 1574.58 69.5548 L1574.17 68.3661 L1565.69 48.3223 L1558.1 56.5612 L1549.54 65.6198 Q1547.28 68.0382 1547.28 69.3908 Q1547.28 71.6452 1550.64 72.0141 Q1551.67 72.0961 1551.67 72.9159 Q1551.67 73.6947 1551.34 74.1046 Q1551.05 74.4735 1550.77 74.5555 Q1550.52 74.5965 1550.15 74.5965 Q1548.64 74.5965 1545.44 74.4735 Q1542.28 74.3505 1540.72 74.3505 Q1539.41 74.3505 1536.75 74.4735 Q1534.08 74.5965 1532.86 74.5965 Q1532.36 74.5965 1532.08 74.3505 Q1531.79 74.1046 1531.79 73.8587 L1531.75 73.6537 Q1531.75 73.0799 1531.83 72.752 Q1531.95 72.424 1532.28 72.2601 Q1532.65 72.0961 1532.81 72.0961 Q1532.98 72.0551 1533.59 72.0141 Q1537.08 71.8092 1540.03 70.4566 Q1543.02 69.1039 1545.93 65.9477 Q1546.18 65.7428 1546.46 65.4968 Q1546.79 65.2509 1547.04 65.046 L1564.74 45.986 L1554.83 22.5401 Q1554.37 21.4744 1553.96 21.0235 Q1553.55 20.5316 1552.28 20.2037 Q1551.01 19.8758 1548.55 19.8758 Q1547.86 19.8758 1547.53 19.8348 Q1547.2 19.7938 1546.91 19.5889 Q1546.63 19.3839 1546.63 18.933 Q1546.63 18.1542 1546.91 17.7853 Q1547.24 17.3754 1547.49 17.3344 Q1547.78 17.2525 1548.14 17.2525 Q1549.17 17.2525 1552.82 17.3754 Q1556.46 17.4984 1557.53 17.4984 Q1559.29 17.4984 1562.82 17.3754 Q1566.38 17.2525 1568.11 17.2525 Q1569.38 17.2525 1569.38 18.2772 Q1569.38 18.933 1569.09 19.3019 Q1568.8 19.6708 1568.52 19.7528 Q1568.23 19.8348 1567.7 19.8758 Q1566.1 20.0397 1564.87 20.5726 Q1563.68 21.0645 1563.19 21.5563 Q1562.74 22.0072 1562.74 22.2941 L1563.15 23.4009 L1570.2 40.0835 L1583.8 25.4913 Q1585.4 23.6878 1585.4 22.4581 Q1585.4 20.2447 1582.04 19.8758 Q1581.02 19.7118 1581.02 18.933 Q1581.02 18.1542 1581.35 17.7853 Q1581.67 17.3754 1581.92 17.3344 Q1582.21 17.2525 1582.62 17.2525 Q1584.13 17.2525 1587.25 17.3754 Q1590.4 17.4984 1591.96 17.4984 Q1593.27 17.4984 1595.94 17.3754 Q1598.6 17.2525 1599.83 17.2525 Q1600.32 17.2525 1600.61 17.4984 Q1600.9 17.7034 1600.9 17.9493 L1600.94 18.1952 Z" fill="#000000" fill-rule="evenodd" fill-opacity="1" /><path clip-path="url(#clip050)" d="M1627.27 71.7806 Q1627.27 72.584 1626.9 72.7848 Q1626.53 72.957 1625.49 72.957 L1619.98 72.957 L1615.62 90.2873 Q1615.28 91.808 1615.28 93.0991 Q1615.28 94.5338 1615.71 95.165 Q1616.17 95.7962 1617.11 95.7962 Q1618.98 95.7962 1620.99 94.1034 Q1623.03 92.4105 1624.75 88.2788 Q1624.98 87.7336 1625.09 87.6189 Q1625.23 87.4754 1625.61 87.4754 Q1626.32 87.4754 1626.32 88.0493 Q1626.32 88.2501 1625.92 89.1683 Q1625.55 90.0864 1624.72 91.435 Q1623.91 92.7835 1622.85 94.046 Q1621.82 95.3085 1620.24 96.2266 Q1618.66 97.1161 1616.97 97.1161 Q1614.59 97.1161 1613.07 95.5954 Q1611.58 94.0747 1611.58 91.6932 Q1611.58 90.9185 1612.18 88.451 Q1612.78 85.9547 1616.05 72.957 L1610.86 72.957 Q1610.14 72.957 1609.86 72.9283 Q1609.6 72.8996 1609.4 72.7562 Q1609.22 72.584 1609.22 72.2397 Q1609.22 71.6945 1609.45 71.465 Q1609.68 71.2068 1609.97 71.1781 Q1610.29 71.1207 1611 71.1207 L1616.51 71.1207 L1618.81 61.7956 Q1619.04 60.8775 1619.61 60.361 Q1620.21 59.8158 1620.56 59.7585 Q1620.9 59.6724 1621.16 59.6724 Q1621.93 59.6724 1622.39 60.1028 Q1622.85 60.5045 1622.85 61.2505 Q1622.85 61.6522 1620.44 71.1207 L1625.61 71.1207 Q1626.27 71.1207 1626.53 71.1494 Q1626.81 71.1781 1627.04 71.3215 Q1627.27 71.465 1627.27 71.7806 Z" fill="#000000" fill-rule="evenodd" fill-opacity="1" /><polyline clip-path="url(#clip053)" style="stroke:#009af9; stroke-linecap:butt; stroke-linejoin:round; stroke-width:4; stroke-opacity:1; fill:none" points="
  295.211,1363.37 299.215,1379.05 303.218,1384.29 307.221,1384.98 311.224,1384.24 315.228,1366.65 319.231,1382.52 323.234,1370.36 327.237,1383.75 331.24,1384.72 
  335.244,1380.07 339.247,1382.56 343.25,1379.49 347.253,1384 351.257,1382.98 355.26,1335.52 359.263,1385.99 363.266,1385.75 367.27,1372.32 371.273,1380.34 
  375.276,1385.68 379.279,1381.45 383.283,1381.79 387.286,1384.62 391.289,1379.92 395.292,1381.85 399.296,1385.75 403.299,1381.73 407.302,1384.08 411.305,1385.1 
  415.308,1381.84 419.312,1344.2 423.315,1382.31 427.318,1385.29 431.321,1385.77 435.325,1374.87 439.328,1380.22 443.331,1372.44 447.334,1385.76 451.338,1385.8 
  455.341,1385.67 459.344,1371.87 463.347,1383.25 467.351,1366.81 471.354,1384.17 475.357,1384.65 479.36,1385.45 483.364,1361.72 487.367,1385.86 491.37,1385.38 
  495.373,1382.47 499.377,1376.48 503.38,1385.36 507.383,1384.83 511.386,1384.82 515.389,1383.96 519.393,1383.43 523.396,1384.81 527.399,1381.64 531.402,1383.87 
  535.406,1385.48 539.409,1386.11 543.412,1380.34 547.415,1385.02 551.419,1379.12 555.422,1384.24 559.425,1378.2 563.428,1386.15 567.432,1385.93 571.435,1375.8 
  575.438,1357.49 579.441,1385.49 583.445,1385.14 587.448,1380.67 591.451,1381.79 595.454,1384.9 599.457,1381.8 603.461,1368.71 607.464,1377.45 611.467,1325.6 
  615.47,1380.87 619.474,1383.51 623.477,1384.27 627.48,1382.79 631.483,1385.16 635.487,1383.23 639.49,1374.97 643.493,1360.33 647.496,1385.65 651.5,1386.04 
  655.503,1385.33 659.506,1385.13 663.509,1385.6 667.513,1384.14 671.516,1380.88 675.519,1382.87 679.522,1384.48 683.525,1380.46 687.529,1385.8 691.532,1381.85 
  695.535,1372.53 699.538,1332.27 703.542,1381.41 707.545,1332.08 711.548,1384.22 715.551,1380.67 719.555,1383.82 723.558,1386.07 727.561,1384.43 731.564,1384.93 
  735.568,1366.35 739.571,1385.38 743.574,1380.84 747.577,1385.79 751.581,1385.53 755.584,1383.61 759.587,1382.91 763.59,1384.83 767.593,1386.09 771.597,1366.32 
  775.6,1363.5 779.603,1361.24 783.606,1385.27 787.61,1383.87 791.613,1384.21 795.616,1385.77 799.619,1385.94 803.623,1369.6 807.626,1382.7 811.629,1381.39 
  815.632,1386.06 819.636,1381.99 823.639,1381.15 827.642,1384.5 831.645,1376.2 835.649,1375.9 839.652,1382.49 843.655,1385.92 847.658,1379.39 851.662,1384.59 
  855.665,1382.75 859.668,1362.97 863.671,1354.36 867.674,1377.54 871.678,1383.67 875.681,1377.12 879.684,1361.74 883.687,1385.37 887.691,1378.01 891.694,1373.18 
  895.697,1382.89 899.7,1379.69 903.704,1381.91 907.707,1385.58 911.71,1382.32 915.713,1382 919.717,1377.85 923.72,1366.23 927.723,1308.67 931.726,1384.45 
  935.73,1371.16 939.733,1363.84 943.736,1371.92 947.739,351.817 951.742,1385.44 955.746,1369.47 959.749,1384.35 963.752,1373.21 967.755,1385.12 971.759,1384.53 
  975.762,1384.66 979.765,1380.88 983.768,1384.54 987.772,1278.54 991.775,1361.72 995.778,1385.86 999.781,1372.96 1003.78,1380.38 1007.79,1382.5 1011.79,1385.57 
  1015.79,1383.98 1019.8,1383.23 1023.8,1056.8 1027.8,1384.64 1031.81,1382.87 1035.81,1384.35 1039.81,1379.56 1043.82,1385.62 1047.82,1383.43 1051.82,1383.67 
  1055.83,1385.74 1059.83,1384.13 1063.83,1288.12 1067.84,1339.28 1071.84,1385.54 1075.84,1385.29 1079.85,1383.29 1083.85,1384.81 1087.85,1383.08 1091.86,1381.91 
  1095.86,1383.3 1099.86,1383.2 1103.87,1380.51 1107.87,1350.33 1111.87,1381.92 1115.88,1380.18 1119.88,1381.34 1123.88,1385.29 1127.88,1381.03 1131.89,1382.47 
  1135.89,1381.28 1139.89,1385.42 1143.9,1383.97 1147.9,1383.19 1151.9,1382.51 1155.91,1383.5 1159.91,1384.11 1163.91,1381.39 1167.92,1382.11 1171.92,1384.11 
  1175.92,1385.87 1179.93,1381.44 1183.93,1384.63 1187.93,1385.1 1191.94,1378.44 1195.94,1384.41 1199.94,1383.85 1203.95,1369.74 1207.95,1384.26 1211.95,1383.55 
  1215.96,1383.73 1219.96,1360.11 1223.96,1378.86 1227.97,1378.72 1231.97,1384.14 1235.97,1381.22 1239.98,1379.64 1243.98,1382.65 1247.98,1384.15 1251.99,1385.78 
  1255.99,1385.82 1259.99,1382.97 1264,1382.42 1268,1385.74 1272,1385.67 1276,1383.89 1280.01,1385.06 1284.01,1368.16 1288.01,1382.04 1292.02,1385.56 
  1296.02,1385.04 1300.02,1384.08 1304.03,1384.78 1308.03,1376.39 1312.03,1385.34 1316.04,1379.27 1320.04,1386.04 1324.04,1385.01 1328.05,1385.45 1332.05,1381.8 
  1336.05,1379.06 1340.06,1383.13 1344.06,1384.83 1348.06,1375.46 1352.07,1376.46 1356.07,1382.82 1360.07,1380.87 1364.08,1383.3 1368.08,1373.6 1372.08,1378.96 
  1376.09,1385.18 1380.09,1383.43 1384.09,1384.92 1388.1,1383.6 1392.1,1383.34 1396.1,1386.05 1400.11,1381.73 1404.11,1379.16 1408.11,1383.97 1412.11,1385.89 
  1416.12,1385.2 1420.12,1385.25 1424.12,1370.23 1428.13,1385.34 1432.13,1384.8 1436.13,1385.9 1440.14,1379.59 1444.14,1383.6 1448.14,1381.15 1452.15,1379.55 
  1456.15,1385.65 1460.15,1381.57 1464.16,1364.39 1468.16,1359.23 1472.16,1381.06 1476.17,1385.73 1480.17,1381.28 1484.17,1386.09 1488.18,1370.96 1492.18,1272.33 
  1496.18,1382.42 1500.19,1372.83 1504.19,1385.69 1508.19,1381.01 1512.2,1378.49 1516.2,1384.27 1520.2,1361.1 1524.21,1382.78 1528.21,1385.43 1532.21,1385.33 
  1536.22,1384.06 1540.22,1380.91 1544.22,1381.08 1548.23,1385.48 1552.23,1382.74 1556.23,1383.87 1560.23,1385.7 1564.24,1380.08 1568.24,1370.52 1572.24,1384.12 
  1576.25,1234.28 1580.25,1382.05 1584.25,1383.97 1588.26,1384.92 1592.26,1379.84 1596.26,1384.28 1600.27,1384.59 1604.27,1385.69 1608.27,1375.47 1612.28,1374.7 
  1616.28,1385.03 1620.28,1383.18 1624.29,1384.35 1628.29,1344.7 1632.29,1361.37 1636.3,1384.39 1640.3,1362.36 1644.3,1385.77 1648.31,1380.37 1652.31,1385.09 
  1656.31,1383.5 1660.32,1380.15 1664.32,1384.26 1668.32,1380.63 1672.33,1383.74 1676.33,1363.63 1680.33,1382.38 1684.34,1374.17 1688.34,1385.96 1692.34,1385.98 
  1696.34,1384.46 1700.35,1382.21 1704.35,1385.51 1708.35,1379.12 1712.36,1385.07 1716.36,1380.03 1720.36,1378.58 1724.37,1384.99 1728.37,1375.46 1732.37,160.256 
  1736.38,1382.21 1740.38,1381.24 1744.38,1385.64 1748.39,1383.81 1752.39,1383.41 1756.39,1385.27 1760.4,1378.7 1764.4,1385.19 1768.4,1379.11 1772.41,1380.23 
  1776.41,1385.76 1780.41,1384.77 1784.42,1380.16 1788.42,1366.84 1792.42,1383.31 1796.43,1384.88 1800.43,1383.76 1804.43,1383.31 1808.44,1381.81 1812.44,1377.93 
  1816.44,1384.04 1820.45,1383.18 1824.45,1385.01 1828.45,1385.27 1832.45,1314.84 1836.46,1385.72 1840.46,1321.87 1844.46,1379.09 1848.47,1143.54 1852.47,1385.73 
  1856.47,1176.4 1860.48,1379.68 1864.48,1385.03 1868.48,1376 1872.49,1381.52 1876.49,1373.47 1880.49,1378.77 1884.5,1385.3 1888.5,1386.22 1892.5,1385.18 
  1896.51,1382.48 1900.51,1385.52 1904.51,1386.4 1908.52,1385.9 1912.52,1385.56 1916.52,1382.76 1920.53,1374.98 1924.53,1384.81 1928.53,1385.56 1932.54,1380.2 
  1936.54,1383.03 1940.54,1383.8 1944.55,1282.22 1948.55,1384.54 1952.55,1384.74 1956.56,1377.76 1960.56,1371.88 1964.56,1379.88 1968.57,1374.7 1972.57,1366.58 
  1976.57,1385.45 1980.57,1382.61 1984.58,1385.35 1988.58,1385.91 1992.58,1377.34 1996.59,1376.97 2000.59,1310.03 2004.59,1384.5 2008.6,1385.84 2012.6,1378.91 
  2016.6,1385.94 2020.61,1381.34 2024.61,1378.2 2028.61,1381.54 2032.62,1383.57 2036.62,1381.32 2040.62,1372.14 2044.63,1385.77 2048.63,1384.88 2052.63,1385.13 
  2056.64,1385.49 2060.64,1356.11 2064.64,1384.95 2068.65,1355.51 2072.65,1366.81 2076.65,1383.24 2080.66,1384.64 2084.66,1368.45 2088.66,1373.51 2092.67,1382.86 
  2096.67,1376.64 2100.67,1384.53 2104.68,1374.11 2108.68,1385.87 2112.68,1385.77 2116.68,1268.6 2120.69,1383.73 2124.69,1381.26 2128.69,1385.19 2132.7,1385.57 
  2136.7,1381.78 2140.7,1360.73 2144.71,1374.57 2148.71,1383.99 2152.71,1375.08 2156.72,1383.59 2160.72,1385.8 2164.72,1366.71 2168.73,1379.56 2172.73,1385.62 
  2176.73,1382.7 2180.74,1383.82 2184.74,1385.22 2188.74,1372.76 2192.75,1383.09 2196.75,1383.42 2200.75,1385.05 2204.76,1373.06 2208.76,1385.7 2212.76,1380.15 
  2216.77,1385.21 2220.77,1384.54 2224.77,1264.69 2228.78,1384.77 2232.78,1383.38 2236.78,1373.15 2240.79,1385.59 2244.79,1385.64 2248.79,1370.22 2252.8,1383.97 
  2256.8,1385.04 2260.8,1384.61 2264.8,1223.99 2268.81,1384.24 2272.81,1385.71 2276.81,1382.94 2280.82,1382.87 2284.82,1367.93 2288.82,1382.11 2292.83,1382.12 
  
  "/>
</svg>
