<?xml version="1.0" encoding="utf-8"?>
<svg xmlns="http://www.w3.org/2000/svg" xmlns:xlink="http://www.w3.org/1999/xlink" width="600" height="400" viewBox="0 0 2400 1600">
<defs>
  <clipPath id="clip170">
    <rect x="0" y="0" width="2400" height="1600"/>
  </clipPath>
</defs>
<path clip-path="url(#clip170)" d="
M0 1600 L2400 1600 L2400 0 L0 0  Z
  " fill="#ffffff" fill-rule="evenodd" fill-opacity="1"/>
<defs>
  <clipPath id="clip171">
    <rect x="480" y="0" width="1681" height="1600"/>
  </clipPath>
</defs>
<path clip-path="url(#clip170)" d="
M175.445 1423.18 L2352.76 1423.18 L2352.76 123.472 L175.445 123.472  Z
  " fill="#ffffff" fill-rule="evenodd" fill-opacity="1"/>
<defs>
  <clipPath id="clip172">
    <rect x="175" y="123" width="2178" height="1301"/>
  </clipPath>
</defs>
<polyline clip-path="url(#clip172)" style="stroke:#000000; stroke-linecap:butt; stroke-linejoin:round; stroke-width:2; stroke-opacity:0.1; fill:none" points="
  236.996,1423.18 236.996,123.472 
  "/>
<polyline clip-path="url(#clip172)" style="stroke:#000000; stroke-linecap:butt; stroke-linejoin:round; stroke-width:2; stroke-opacity:0.1; fill:none" points="
  784.629,1423.18 784.629,123.472 
  "/>
<polyline clip-path="url(#clip172)" style="stroke:#000000; stroke-linecap:butt; stroke-linejoin:round; stroke-width:2; stroke-opacity:0.1; fill:none" points="
  1332.26,1423.18 1332.26,123.472 
  "/>
<polyline clip-path="url(#clip172)" style="stroke:#000000; stroke-linecap:butt; stroke-linejoin:round; stroke-width:2; stroke-opacity:0.1; fill:none" points="
  1879.9,1423.18 1879.9,123.472 
  "/>
<polyline clip-path="url(#clip170)" style="stroke:#000000; stroke-linecap:butt; stroke-linejoin:round; stroke-width:4; stroke-opacity:1; fill:none" points="
  175.445,1423.18 2352.76,1423.18 
  "/>
<polyline clip-path="url(#clip170)" style="stroke:#000000; stroke-linecap:butt; stroke-linejoin:round; stroke-width:4; stroke-opacity:1; fill:none" points="
  236.996,1423.18 236.996,1404.28 
  "/>
<polyline clip-path="url(#clip170)" style="stroke:#000000; stroke-linecap:butt; stroke-linejoin:round; stroke-width:4; stroke-opacity:1; fill:none" points="
  784.629,1423.18 784.629,1404.28 
  "/>
<polyline clip-path="url(#clip170)" style="stroke:#000000; stroke-linecap:butt; stroke-linejoin:round; stroke-width:4; stroke-opacity:1; fill:none" points="
  1332.26,1423.18 1332.26,1404.28 
  "/>
<polyline clip-path="url(#clip170)" style="stroke:#000000; stroke-linecap:butt; stroke-linejoin:round; stroke-width:4; stroke-opacity:1; fill:none" points="
  1879.9,1423.18 1879.9,1404.28 
  "/>
<path clip-path="url(#clip170)" d="M236.996 1454.1 Q233.385 1454.1 231.556 1457.66 Q229.751 1461.2 229.751 1468.33 Q229.751 1475.44 231.556 1479.01 Q233.385 1482.55 236.996 1482.55 Q240.63 1482.55 242.436 1479.01 Q244.265 1475.44 244.265 1468.33 Q244.265 1461.2 242.436 1457.66 Q240.63 1454.1 236.996 1454.1 M236.996 1450.39 Q242.806 1450.39 245.862 1455 Q248.94 1459.58 248.94 1468.33 Q248.94 1477.06 245.862 1481.67 Q242.806 1486.25 236.996 1486.25 Q231.186 1486.25 228.107 1481.67 Q225.052 1477.06 225.052 1468.33 Q225.052 1459.58 228.107 1455 Q231.186 1450.39 236.996 1450.39 Z" fill="#000000" fill-rule="evenodd" fill-opacity="1" /><path clip-path="url(#clip170)" d="M775.011 1481.64 L782.65 1481.64 L782.65 1455.28 L774.34 1456.95 L774.34 1452.69 L782.604 1451.02 L787.28 1451.02 L787.28 1481.64 L794.919 1481.64 L794.919 1485.58 L775.011 1485.58 L775.011 1481.64 Z" fill="#000000" fill-rule="evenodd" fill-opacity="1" /><path clip-path="url(#clip170)" d="M1326.92 1481.64 L1343.24 1481.64 L1343.24 1485.58 L1321.29 1485.58 L1321.29 1481.64 Q1323.95 1478.89 1328.54 1474.26 Q1333.14 1469.61 1334.32 1468.27 Q1336.57 1465.74 1337.45 1464.01 Q1338.35 1462.25 1338.35 1460.56 Q1338.35 1457.8 1336.41 1456.07 Q1334.49 1454.33 1331.38 1454.33 Q1329.18 1454.33 1326.73 1455.09 Q1324.3 1455.86 1321.52 1457.41 L1321.52 1452.69 Q1324.35 1451.55 1326.8 1450.97 Q1329.25 1450.39 1331.29 1450.39 Q1336.66 1450.39 1339.86 1453.08 Q1343.05 1455.77 1343.05 1460.26 Q1343.05 1462.39 1342.24 1464.31 Q1341.45 1466.2 1339.35 1468.8 Q1338.77 1469.47 1335.67 1472.69 Q1332.56 1475.88 1326.92 1481.64 Z" fill="#000000" fill-rule="evenodd" fill-opacity="1" /><path clip-path="url(#clip170)" d="M1884.14 1466.95 Q1887.5 1467.66 1889.38 1469.93 Q1891.27 1472.2 1891.27 1475.53 Q1891.27 1480.65 1887.76 1483.45 Q1884.24 1486.25 1877.76 1486.25 Q1875.58 1486.25 1873.26 1485.81 Q1870.97 1485.39 1868.52 1484.54 L1868.52 1480.02 Q1870.46 1481.16 1872.78 1481.74 Q1875.09 1482.32 1877.62 1482.32 Q1882.01 1482.32 1884.31 1480.58 Q1886.62 1478.84 1886.62 1475.53 Q1886.62 1472.48 1884.47 1470.77 Q1882.34 1469.03 1878.52 1469.03 L1874.49 1469.03 L1874.49 1465.19 L1878.7 1465.19 Q1882.15 1465.19 1883.98 1463.82 Q1885.81 1462.43 1885.81 1459.84 Q1885.81 1457.18 1883.91 1455.77 Q1882.04 1454.33 1878.52 1454.33 Q1876.6 1454.33 1874.4 1454.75 Q1872.2 1455.16 1869.56 1456.04 L1869.56 1451.88 Q1872.22 1451.14 1874.54 1450.77 Q1876.88 1450.39 1878.94 1450.39 Q1884.26 1450.39 1887.36 1452.83 Q1890.46 1455.23 1890.46 1459.35 Q1890.46 1462.22 1888.82 1464.21 Q1887.18 1466.18 1884.14 1466.95 Z" fill="#000000" fill-rule="evenodd" fill-opacity="1" /><path clip-path="url(#clip170)" d="M1124.63 1522.27 L1124.63 1532.4 L1136.69 1532.4 L1136.69 1536.95 L1124.63 1536.95 L1124.63 1556.3 Q1124.63 1560.66 1125.81 1561.9 Q1127.02 1563.14 1130.68 1563.14 L1136.69 1563.14 L1136.69 1568.04 L1130.68 1568.04 Q1123.9 1568.04 1121.32 1565.53 Q1118.74 1562.98 1118.74 1556.3 L1118.74 1536.95 L1114.44 1536.95 L1114.44 1532.4 L1118.74 1532.4 L1118.74 1522.27 L1124.63 1522.27 Z" fill="#000000" fill-rule="evenodd" fill-opacity="1" /><path clip-path="url(#clip170)" d="M1174.03 1546.53 L1174.03 1568.04 L1168.17 1568.04 L1168.17 1546.72 Q1168.17 1541.66 1166.2 1539.14 Q1164.22 1536.63 1160.28 1536.63 Q1155.53 1536.63 1152.8 1539.65 Q1150.06 1542.68 1150.06 1547.9 L1150.06 1568.04 L1144.17 1568.04 L1144.17 1518.52 L1150.06 1518.52 L1150.06 1537.93 Q1152.16 1534.72 1154.99 1533.13 Q1157.86 1531.54 1161.58 1531.54 Q1167.72 1531.54 1170.87 1535.36 Q1174.03 1539.14 1174.03 1546.53 Z" fill="#000000" fill-rule="evenodd" fill-opacity="1" /><path clip-path="url(#clip170)" d="M1206.36 1537.87 Q1205.38 1537.3 1204.2 1537.04 Q1203.05 1536.76 1201.65 1536.76 Q1196.69 1536.76 1194.01 1540 Q1191.37 1543.22 1191.37 1549.27 L1191.37 1568.04 L1185.48 1568.04 L1185.48 1532.4 L1191.37 1532.4 L1191.37 1537.93 Q1193.22 1534.69 1196.18 1533.13 Q1199.14 1531.54 1203.37 1531.54 Q1203.98 1531.54 1204.71 1531.63 Q1205.44 1531.7 1206.33 1531.85 L1206.36 1537.87 Z" fill="#000000" fill-rule="evenodd" fill-opacity="1" /><path clip-path="url(#clip170)" d="M1241.57 1548.76 L1241.57 1551.62 L1214.64 1551.62 Q1215.02 1557.67 1218.27 1560.85 Q1221.55 1564 1227.37 1564 Q1230.74 1564 1233.9 1563.17 Q1237.08 1562.35 1240.2 1560.69 L1240.2 1566.23 Q1237.05 1567.57 1233.74 1568.27 Q1230.43 1568.97 1227.02 1568.97 Q1218.49 1568.97 1213.49 1564 Q1208.53 1559.04 1208.53 1550.57 Q1208.53 1541.82 1213.24 1536.69 Q1217.98 1531.54 1226 1531.54 Q1233.2 1531.54 1237.36 1536.18 Q1241.57 1540.8 1241.57 1548.76 M1235.71 1547.04 Q1235.65 1542.23 1233 1539.37 Q1230.39 1536.5 1226.07 1536.5 Q1221.16 1536.5 1218.2 1539.27 Q1215.28 1542.04 1214.83 1547.07 L1235.71 1547.04 Z" fill="#000000" fill-rule="evenodd" fill-opacity="1" /><path clip-path="url(#clip170)" d="M1273.9 1533.45 L1273.9 1538.98 Q1271.42 1537.71 1268.75 1537.07 Q1266.07 1536.44 1263.21 1536.44 Q1258.85 1536.44 1256.65 1537.77 Q1254.49 1539.11 1254.49 1541.79 Q1254.49 1543.82 1256.05 1545 Q1257.61 1546.15 1262.32 1547.2 L1264.32 1547.64 Q1270.56 1548.98 1273.17 1551.43 Q1275.81 1553.85 1275.81 1558.21 Q1275.81 1563.17 1271.87 1566.07 Q1267.95 1568.97 1261.08 1568.97 Q1258.21 1568.97 1255.09 1568.39 Q1252.01 1567.85 1248.57 1566.74 L1248.57 1560.69 Q1251.81 1562.38 1254.97 1563.24 Q1258.12 1564.07 1261.2 1564.07 Q1265.34 1564.07 1267.57 1562.66 Q1269.8 1561.23 1269.8 1558.65 Q1269.8 1556.27 1268.17 1554.99 Q1266.58 1553.72 1261.14 1552.54 L1259.1 1552.07 Q1253.66 1550.92 1251.24 1548.56 Q1248.82 1546.18 1248.82 1542.04 Q1248.82 1537.01 1252.39 1534.27 Q1255.95 1531.54 1262.51 1531.54 Q1265.76 1531.54 1268.62 1532.01 Q1271.48 1532.49 1273.9 1533.45 Z" fill="#000000" fill-rule="evenodd" fill-opacity="1" /><path clip-path="url(#clip170)" d="M1314.77 1546.53 L1314.77 1568.04 L1308.92 1568.04 L1308.92 1546.72 Q1308.92 1541.66 1306.94 1539.14 Q1304.97 1536.63 1301.02 1536.63 Q1296.28 1536.63 1293.54 1539.65 Q1290.8 1542.68 1290.8 1547.9 L1290.8 1568.04 L1284.92 1568.04 L1284.92 1518.52 L1290.8 1518.52 L1290.8 1537.93 Q1292.91 1534.72 1295.74 1533.13 Q1298.6 1531.54 1302.33 1531.54 Q1308.47 1531.54 1311.62 1535.36 Q1314.77 1539.14 1314.77 1546.53 Z" fill="#000000" fill-rule="evenodd" fill-opacity="1" /><path clip-path="url(#clip170)" d="M1340.27 1536.5 Q1335.56 1536.5 1332.82 1540.19 Q1330.08 1543.85 1330.08 1550.25 Q1330.08 1556.65 1332.79 1560.34 Q1335.52 1564 1340.27 1564 Q1344.95 1564 1347.68 1560.31 Q1350.42 1556.62 1350.42 1550.25 Q1350.42 1543.92 1347.68 1540.23 Q1344.95 1536.5 1340.27 1536.5 M1340.27 1531.54 Q1347.91 1531.54 1352.27 1536.5 Q1356.63 1541.47 1356.63 1550.25 Q1356.63 1559 1352.27 1564 Q1347.91 1568.97 1340.27 1568.97 Q1332.6 1568.97 1328.24 1564 Q1323.91 1559 1323.91 1550.25 Q1323.91 1541.47 1328.24 1536.5 Q1332.6 1531.54 1340.27 1531.54 Z" fill="#000000" fill-rule="evenodd" fill-opacity="1" /><path clip-path="url(#clip170)" d="M1366.33 1518.52 L1372.19 1518.52 L1372.19 1568.04 L1366.33 1568.04 L1366.33 1518.52 Z" fill="#000000" fill-rule="evenodd" fill-opacity="1" /><path clip-path="url(#clip170)" d="M1407.9 1537.81 L1407.9 1518.52 L1413.76 1518.52 L1413.76 1568.04 L1407.9 1568.04 L1407.9 1562.7 Q1406.06 1565.88 1403.22 1567.44 Q1400.42 1568.97 1396.48 1568.97 Q1390.01 1568.97 1385.94 1563.81 Q1381.9 1558.65 1381.9 1550.25 Q1381.9 1541.85 1385.94 1536.69 Q1390.01 1531.54 1396.48 1531.54 Q1400.42 1531.54 1403.22 1533.1 Q1406.06 1534.62 1407.9 1537.81 M1387.95 1550.25 Q1387.95 1556.71 1390.59 1560.4 Q1393.26 1564.07 1397.91 1564.07 Q1402.55 1564.07 1405.23 1560.4 Q1407.9 1556.71 1407.9 1550.25 Q1407.9 1543.79 1405.23 1540.13 Q1402.55 1536.44 1397.91 1536.44 Q1393.26 1536.44 1390.59 1540.13 Q1387.95 1543.79 1387.95 1550.25 Z" fill="#000000" fill-rule="evenodd" fill-opacity="1" /><polyline clip-path="url(#clip172)" style="stroke:#000000; stroke-linecap:butt; stroke-linejoin:round; stroke-width:2; stroke-opacity:0.1; fill:none" points="
  175.445,1362.46 2352.76,1362.46 
  "/>
<polyline clip-path="url(#clip172)" style="stroke:#000000; stroke-linecap:butt; stroke-linejoin:round; stroke-width:2; stroke-opacity:0.1; fill:none" points="
  175.445,1144.52 2352.76,1144.52 
  "/>
<polyline clip-path="url(#clip172)" style="stroke:#000000; stroke-linecap:butt; stroke-linejoin:round; stroke-width:2; stroke-opacity:0.1; fill:none" points="
  175.445,926.587 2352.76,926.587 
  "/>
<polyline clip-path="url(#clip172)" style="stroke:#000000; stroke-linecap:butt; stroke-linejoin:round; stroke-width:2; stroke-opacity:0.1; fill:none" points="
  175.445,708.652 2352.76,708.652 
  "/>
<polyline clip-path="url(#clip172)" style="stroke:#000000; stroke-linecap:butt; stroke-linejoin:round; stroke-width:2; stroke-opacity:0.1; fill:none" points="
  175.445,490.716 2352.76,490.716 
  "/>
<polyline clip-path="url(#clip172)" style="stroke:#000000; stroke-linecap:butt; stroke-linejoin:round; stroke-width:2; stroke-opacity:0.1; fill:none" points="
  175.445,272.781 2352.76,272.781 
  "/>
<polyline clip-path="url(#clip170)" style="stroke:#000000; stroke-linecap:butt; stroke-linejoin:round; stroke-width:4; stroke-opacity:1; fill:none" points="
  175.445,1423.18 175.445,123.472 
  "/>
<polyline clip-path="url(#clip170)" style="stroke:#000000; stroke-linecap:butt; stroke-linejoin:round; stroke-width:4; stroke-opacity:1; fill:none" points="
  175.445,1362.46 194.343,1362.46 
  "/>
<polyline clip-path="url(#clip170)" style="stroke:#000000; stroke-linecap:butt; stroke-linejoin:round; stroke-width:4; stroke-opacity:1; fill:none" points="
  175.445,1144.52 194.343,1144.52 
  "/>
<polyline clip-path="url(#clip170)" style="stroke:#000000; stroke-linecap:butt; stroke-linejoin:round; stroke-width:4; stroke-opacity:1; fill:none" points="
  175.445,926.587 194.343,926.587 
  "/>
<polyline clip-path="url(#clip170)" style="stroke:#000000; stroke-linecap:butt; stroke-linejoin:round; stroke-width:4; stroke-opacity:1; fill:none" points="
  175.445,708.652 194.343,708.652 
  "/>
<polyline clip-path="url(#clip170)" style="stroke:#000000; stroke-linecap:butt; stroke-linejoin:round; stroke-width:4; stroke-opacity:1; fill:none" points="
  175.445,490.716 194.343,490.716 
  "/>
<polyline clip-path="url(#clip170)" style="stroke:#000000; stroke-linecap:butt; stroke-linejoin:round; stroke-width:4; stroke-opacity:1; fill:none" points="
  175.445,272.781 194.343,272.781 
  "/>
<path clip-path="url(#clip170)" d="M119.538 1375.8 L127.177 1375.8 L127.177 1349.44 L118.867 1351.1 L118.867 1346.84 L127.13 1345.18 L131.806 1345.18 L131.806 1375.8 L139.445 1375.8 L139.445 1379.74 L119.538 1379.74 L119.538 1375.8 Z" fill="#000000" fill-rule="evenodd" fill-opacity="1" /><path clip-path="url(#clip170)" d="M123.126 1157.87 L139.445 1157.87 L139.445 1161.8 L117.501 1161.8 L117.501 1157.87 Q120.163 1155.11 124.746 1150.48 Q129.353 1145.83 130.533 1144.49 Q132.779 1141.96 133.658 1140.23 Q134.561 1138.47 134.561 1136.78 Q134.561 1134.02 132.617 1132.29 Q130.695 1130.55 127.593 1130.55 Q125.394 1130.55 122.941 1131.32 Q120.51 1132.08 117.732 1133.63 L117.732 1128.91 Q120.556 1127.77 123.01 1127.2 Q125.464 1126.62 127.501 1126.62 Q132.871 1126.62 136.066 1129.3 Q139.26 1131.99 139.26 1136.48 Q139.26 1138.61 138.45 1140.53 Q137.663 1142.43 135.556 1145.02 Q134.978 1145.69 131.876 1148.91 Q128.774 1152.1 123.126 1157.87 Z" fill="#000000" fill-rule="evenodd" fill-opacity="1" /><path clip-path="url(#clip170)" d="M132.316 925.233 Q135.672 925.95 137.547 928.219 Q139.445 930.488 139.445 933.821 Q139.445 938.937 135.927 941.737 Q132.408 944.538 125.927 944.538 Q123.751 944.538 121.436 944.099 Q119.144 943.682 116.691 942.825 L116.691 938.312 Q118.635 939.446 120.95 940.024 Q123.265 940.603 125.788 940.603 Q130.186 940.603 132.478 938.867 Q134.792 937.131 134.792 933.821 Q134.792 930.765 132.64 929.052 Q130.51 927.316 126.691 927.316 L122.663 927.316 L122.663 923.474 L126.876 923.474 Q130.325 923.474 132.154 922.108 Q133.982 920.719 133.982 918.126 Q133.982 915.464 132.084 914.052 Q130.209 912.617 126.691 912.617 Q124.769 912.617 122.57 913.034 Q120.371 913.451 117.732 914.33 L117.732 910.164 Q120.394 909.423 122.709 909.052 Q125.047 908.682 127.107 908.682 Q132.431 908.682 135.533 911.113 Q138.635 913.52 138.635 917.64 Q138.635 920.511 136.992 922.501 Q135.348 924.469 132.316 925.233 Z" fill="#000000" fill-rule="evenodd" fill-opacity="1" /><path clip-path="url(#clip170)" d="M129.862 695.446 L118.056 713.895 L129.862 713.895 L129.862 695.446 M128.635 691.372 L134.515 691.372 L134.515 713.895 L139.445 713.895 L139.445 717.784 L134.515 717.784 L134.515 725.932 L129.862 725.932 L129.862 717.784 L114.26 717.784 L114.26 713.27 L128.635 691.372 Z" fill="#000000" fill-rule="evenodd" fill-opacity="1" /><path clip-path="url(#clip170)" d="M118.543 473.436 L136.899 473.436 L136.899 477.371 L122.825 477.371 L122.825 485.844 Q123.843 485.496 124.862 485.334 Q125.88 485.149 126.899 485.149 Q132.686 485.149 136.066 488.32 Q139.445 491.492 139.445 496.908 Q139.445 502.487 135.973 505.589 Q132.501 508.667 126.181 508.667 Q124.005 508.667 121.737 508.297 Q119.492 507.927 117.084 507.186 L117.084 502.487 Q119.168 503.621 121.39 504.177 Q123.612 504.732 126.089 504.732 Q130.093 504.732 132.431 502.626 Q134.769 500.519 134.769 496.908 Q134.769 493.297 132.431 491.191 Q130.093 489.084 126.089 489.084 Q124.214 489.084 122.339 489.501 Q120.487 489.918 118.543 490.797 L118.543 473.436 Z" fill="#000000" fill-rule="evenodd" fill-opacity="1" /><path clip-path="url(#clip170)" d="M127.917 270.917 Q124.769 270.917 122.918 273.07 Q121.089 275.223 121.089 278.973 Q121.089 282.7 122.918 284.876 Q124.769 287.028 127.917 287.028 Q131.066 287.028 132.894 284.876 Q134.746 282.7 134.746 278.973 Q134.746 275.223 132.894 273.07 Q131.066 270.917 127.917 270.917 M137.2 256.265 L137.2 260.524 Q135.441 259.69 133.635 259.251 Q131.853 258.811 130.093 258.811 Q125.464 258.811 123.01 261.936 Q120.58 265.061 120.232 271.38 Q121.598 269.366 123.658 268.302 Q125.718 267.214 128.195 267.214 Q133.404 267.214 136.413 270.385 Q139.445 273.533 139.445 278.973 Q139.445 284.297 136.297 287.514 Q133.149 290.732 127.917 290.732 Q121.922 290.732 118.751 286.149 Q115.58 281.542 115.58 272.815 Q115.58 264.621 119.468 259.76 Q123.357 254.876 129.908 254.876 Q131.667 254.876 133.45 255.223 Q135.255 255.57 137.2 256.265 Z" fill="#000000" fill-rule="evenodd" fill-opacity="1" /><path clip-path="url(#clip170)" d="M35.1993 953.714 Q31.2526 951.518 29.3747 948.462 Q27.4968 945.407 27.4968 941.269 Q27.4968 935.699 31.4117 932.676 Q35.2948 929.652 42.4881 929.652 L64.0042 929.652 L64.0042 935.54 L42.679 935.54 Q37.5546 935.54 35.072 937.354 Q32.5894 939.169 32.5894 942.892 Q32.5894 947.444 35.6131 950.086 Q38.6368 952.728 43.8567 952.728 L64.0042 952.728 L64.0042 958.616 L42.679 958.616 Q37.5228 958.616 35.072 960.43 Q32.5894 962.244 32.5894 966.032 Q32.5894 970.52 35.6449 973.161 Q38.6686 975.803 43.8567 975.803 L64.0042 975.803 L64.0042 981.691 L28.3562 981.691 L28.3562 975.803 L33.8944 975.803 Q30.616 973.798 29.0564 970.997 Q27.4968 968.196 27.4968 964.345 Q27.4968 960.462 29.4702 957.756 Q31.4436 955.019 35.1993 953.714 Z" fill="#000000" fill-rule="evenodd" fill-opacity="1" /><path clip-path="url(#clip170)" d="M44.7161 887.479 L47.5806 887.479 L47.5806 914.406 Q53.6281 914.024 56.8109 910.778 Q59.9619 907.499 59.9619 901.675 Q59.9619 898.301 59.1344 895.15 Q58.3069 891.967 56.6518 888.848 L62.1899 888.848 Q63.5267 891.999 64.227 895.309 Q64.9272 898.619 64.9272 902.025 Q64.9272 910.555 59.9619 915.552 Q54.9967 920.517 46.5303 920.517 Q37.7774 920.517 32.6531 915.806 Q27.4968 911.064 27.4968 903.043 Q27.4968 895.85 32.1438 891.68 Q36.7589 887.479 44.7161 887.479 M42.9973 893.335 Q38.1912 893.399 35.3266 896.041 Q32.4621 898.651 32.4621 902.98 Q32.4621 907.881 35.2312 910.841 Q38.0002 913.769 43.0292 914.215 L42.9973 893.335 Z" fill="#000000" fill-rule="evenodd" fill-opacity="1" /><path clip-path="url(#clip170)" d="M46.0847 861.666 Q46.0847 868.764 47.7079 871.501 Q49.3312 874.238 53.2461 874.238 Q56.3653 874.238 58.2114 872.201 Q60.0256 870.132 60.0256 866.6 Q60.0256 861.73 56.5881 858.802 Q53.1188 855.841 47.3897 855.841 L46.0847 855.841 L46.0847 861.666 M43.6657 849.985 L64.0042 849.985 L64.0042 855.841 L58.5933 855.841 Q61.8398 857.847 63.3994 860.839 Q64.9272 863.83 64.9272 868.159 Q64.9272 873.634 61.8716 876.88 Q58.7843 880.095 53.6281 880.095 Q47.6125 880.095 44.5569 876.084 Q41.5014 872.042 41.5014 864.053 L41.5014 855.841 L40.9285 855.841 Q36.8862 855.841 34.6901 858.515 Q32.4621 861.157 32.4621 865.963 Q32.4621 869.018 33.1941 871.915 Q33.9262 874.811 35.3903 877.485 L29.9795 877.485 Q28.7381 874.27 28.1334 871.246 Q27.4968 868.223 27.4968 865.358 Q27.4968 857.624 31.5072 853.804 Q35.5176 849.985 43.6657 849.985 Z" fill="#000000" fill-rule="evenodd" fill-opacity="1" /><path clip-path="url(#clip170)" d="M42.4881 808.29 L64.0042 808.29 L64.0042 814.146 L42.679 814.146 Q37.6183 814.146 35.1038 816.119 Q32.5894 818.093 32.5894 822.04 Q32.5894 826.782 35.6131 829.519 Q38.6368 832.257 43.8567 832.257 L64.0042 832.257 L64.0042 838.145 L28.3562 838.145 L28.3562 832.257 L33.8944 832.257 Q30.6797 830.156 29.0883 827.323 Q27.4968 824.459 27.4968 820.735 Q27.4968 814.592 31.3163 811.441 Q35.1038 808.29 42.4881 808.29 Z" fill="#000000" fill-rule="evenodd" fill-opacity="1" /><path clip-path="url(#clip170)" d="M44.7161 745.396 L47.5806 745.396 L47.5806 772.323 Q53.6281 771.941 56.8109 768.695 Q59.9619 765.417 59.9619 759.592 Q59.9619 756.218 59.1344 753.067 Q58.3069 749.884 56.6518 746.765 L62.1899 746.765 Q63.5267 749.916 64.227 753.226 Q64.9272 756.536 64.9272 759.942 Q64.9272 768.472 59.9619 773.469 Q54.9967 778.434 46.5303 778.434 Q37.7774 778.434 32.6531 773.724 Q27.4968 768.981 27.4968 760.961 Q27.4968 753.767 32.1438 749.598 Q36.7589 745.396 44.7161 745.396 M42.9973 751.253 Q38.1912 751.317 35.3266 753.958 Q32.4621 756.568 32.4621 760.897 Q32.4621 765.799 35.2312 768.759 Q38.0002 771.687 43.0292 772.132 L42.9973 751.253 Z" fill="#000000" fill-rule="evenodd" fill-opacity="1" /><path clip-path="url(#clip170)" d="M28.3562 707.298 L45.7028 720.188 L64.0042 706.629 L64.0042 713.536 L49.9996 723.912 L64.0042 734.288 L64.0042 741.195 L45.3526 727.35 L28.3562 740.017 L28.3562 733.111 L41.0558 723.658 L28.3562 714.204 L28.3562 707.298 Z" fill="#000000" fill-rule="evenodd" fill-opacity="1" /><path clip-path="url(#clip170)" d="M29.7248 673.846 L35.1993 673.846 Q33.8307 676.329 33.1623 678.843 Q32.4621 681.326 32.4621 683.872 Q32.4621 689.569 36.0905 692.72 Q39.6872 695.871 46.212 695.871 Q52.7369 695.871 56.3653 692.72 Q59.9619 689.569 59.9619 683.872 Q59.9619 681.326 59.2935 678.843 Q58.5933 676.329 57.2247 673.846 L62.6355 673.846 Q63.7814 676.297 64.3543 678.938 Q64.9272 681.548 64.9272 684.508 Q64.9272 692.561 59.8664 697.304 Q54.8057 702.046 46.212 702.046 Q37.491 702.046 32.4939 697.272 Q27.4968 692.466 27.4968 684.127 Q27.4968 681.421 28.0697 678.843 Q28.6108 676.265 29.7248 673.846 Z" fill="#000000" fill-rule="evenodd" fill-opacity="1" /><path clip-path="url(#clip170)" d="M44.7161 633.169 L47.5806 633.169 L47.5806 660.096 Q53.6281 659.714 56.8109 656.468 Q59.9619 653.189 59.9619 647.365 Q59.9619 643.991 59.1344 640.84 Q58.3069 637.657 56.6518 634.538 L62.1899 634.538 Q63.5267 637.689 64.227 640.999 Q64.9272 644.309 64.9272 647.715 Q64.9272 656.245 59.9619 661.242 Q54.9967 666.207 46.5303 666.207 Q37.7774 666.207 32.6531 661.496 Q27.4968 656.754 27.4968 648.733 Q27.4968 641.54 32.1438 637.37 Q36.7589 633.169 44.7161 633.169 M42.9973 639.025 Q38.1912 639.089 35.3266 641.731 Q32.4621 644.341 32.4621 648.67 Q32.4621 653.571 35.2312 656.531 Q38.0002 659.459 43.0292 659.905 L42.9973 639.025 Z" fill="#000000" fill-rule="evenodd" fill-opacity="1" /><path clip-path="url(#clip170)" d="M29.4065 600.831 L34.9447 600.831 Q33.6716 603.314 33.035 605.987 Q32.3984 608.661 32.3984 611.526 Q32.3984 615.886 33.7352 618.082 Q35.072 620.247 37.7456 620.247 Q39.7826 620.247 40.9603 618.687 Q42.1061 617.127 43.1565 612.417 L43.6021 610.412 Q44.9389 604.173 47.3897 601.563 Q49.8086 598.922 54.1691 598.922 Q59.1344 598.922 62.0308 602.868 Q64.9272 606.783 64.9272 613.658 Q64.9272 616.523 64.3543 619.642 Q63.8132 622.729 62.6992 626.167 L56.6518 626.167 Q58.3387 622.92 59.198 619.769 Q60.0256 616.618 60.0256 613.531 Q60.0256 609.393 58.6251 607.165 Q57.1929 604.937 54.6147 604.937 Q52.2276 604.937 50.9545 606.56 Q49.6813 608.152 48.5037 613.594 L48.0262 615.632 Q46.8804 621.074 44.5251 623.493 Q42.138 625.912 38.0002 625.912 Q32.9713 625.912 30.2341 622.347 Q27.4968 618.783 27.4968 612.226 Q27.4968 608.979 27.9743 606.115 Q28.4517 603.25 29.4065 600.831 Z" fill="#000000" fill-rule="evenodd" fill-opacity="1" /><path clip-path="url(#clip170)" d="M29.4065 566.87 L34.9447 566.87 Q33.6716 569.353 33.035 572.026 Q32.3984 574.7 32.3984 577.565 Q32.3984 581.925 33.7352 584.121 Q35.072 586.286 37.7456 586.286 Q39.7826 586.286 40.9603 584.726 Q42.1061 583.166 43.1565 578.456 L43.6021 576.451 Q44.9389 570.212 47.3897 567.602 Q49.8086 564.96 54.1691 564.96 Q59.1344 564.96 62.0308 568.907 Q64.9272 572.822 64.9272 579.697 Q64.9272 582.562 64.3543 585.681 Q63.8132 588.768 62.6992 592.206 L56.6518 592.206 Q58.3387 588.959 59.198 585.808 Q60.0256 582.657 60.0256 579.57 Q60.0256 575.432 58.6251 573.204 Q57.1929 570.976 54.6147 570.976 Q52.2276 570.976 50.9545 572.599 Q49.6813 574.191 48.5037 579.633 L48.0262 581.67 Q46.8804 587.113 44.5251 589.532 Q42.138 591.951 38.0002 591.951 Q32.9713 591.951 30.2341 588.386 Q27.4968 584.821 27.4968 578.265 Q27.4968 575.018 27.9743 572.154 Q28.4517 569.289 29.4065 566.87 Z" fill="#000000" fill-rule="evenodd" fill-opacity="1" /><path clip-path="url(#clip170)" d="M1035.22 35.9153 Q1038.02 30.8922 1041.91 28.5022 Q1045.8 26.1121 1051.06 26.1121 Q1058.15 26.1121 1062 31.0947 Q1065.85 36.0368 1065.85 45.1919 L1065.85 72.576 L1058.36 72.576 L1058.36 45.4349 Q1058.36 38.913 1056.05 35.7533 Q1053.74 32.5936 1049 32.5936 Q1043.2 32.5936 1039.84 36.4419 Q1036.48 40.2903 1036.48 46.9338 L1036.48 72.576 L1028.99 72.576 L1028.99 45.4349 Q1028.99 38.8725 1026.68 35.7533 Q1024.37 32.5936 1019.55 32.5936 Q1013.84 32.5936 1010.47 36.4824 Q1007.11 40.3308 1007.11 46.9338 L1007.11 72.576 L999.617 72.576 L999.617 27.2059 L1007.11 27.2059 L1007.11 34.2544 Q1009.66 30.082 1013.23 28.0971 Q1016.79 26.1121 1021.69 26.1121 Q1026.64 26.1121 1030.08 28.6237 Q1033.56 31.1352 1035.22 35.9153 Z" fill="#000000" fill-rule="evenodd" fill-opacity="1" /><path clip-path="url(#clip170)" d="M1119.52 48.0275 L1119.52 51.6733 L1085.25 51.6733 Q1085.74 59.3701 1089.87 63.421 Q1094.04 67.4314 1101.46 67.4314 Q1105.75 67.4314 1109.76 66.3781 Q1113.81 65.3249 1117.78 63.2184 L1117.78 70.267 Q1113.77 71.9684 1109.56 72.8596 Q1105.35 73.7508 1101.01 73.7508 Q1090.15 73.7508 1083.79 67.4314 Q1077.48 61.1119 1077.48 50.3365 Q1077.48 39.1965 1083.47 32.6746 Q1089.51 26.1121 1099.71 26.1121 Q1108.87 26.1121 1114.18 32.0264 Q1119.52 37.9003 1119.52 48.0275 M1112.07 45.84 Q1111.99 39.7232 1108.63 36.0774 Q1105.31 32.4315 1099.8 32.4315 Q1093.56 32.4315 1089.79 35.9558 Q1086.06 39.4801 1085.5 45.8805 L1112.07 45.84 Z" fill="#000000" fill-rule="evenodd" fill-opacity="1" /><path clip-path="url(#clip170)" d="M1152.38 49.7694 Q1143.34 49.7694 1139.86 51.8354 Q1136.38 53.9013 1136.38 58.8839 Q1136.38 62.8538 1138.97 65.2034 Q1141.6 67.5124 1146.1 67.5124 Q1152.3 67.5124 1156.02 63.1374 Q1159.79 58.7219 1159.79 51.4303 L1159.79 49.7694 L1152.38 49.7694 M1167.24 46.6907 L1167.24 72.576 L1159.79 72.576 L1159.79 65.6895 Q1157.24 69.8214 1153.43 71.8063 Q1149.62 73.7508 1144.11 73.7508 Q1137.15 73.7508 1133.01 69.8619 Q1128.92 65.9325 1128.92 59.3701 Q1128.92 51.7138 1134.03 47.825 Q1139.17 43.9361 1149.34 43.9361 L1159.79 43.9361 L1159.79 43.2069 Q1159.79 38.0623 1156.39 35.2672 Q1153.02 32.4315 1146.91 32.4315 Q1143.02 32.4315 1139.33 33.3632 Q1135.65 34.295 1132.24 36.1584 L1132.24 29.2718 Q1136.34 27.692 1140.18 26.9223 Q1144.03 26.1121 1147.68 26.1121 Q1157.52 26.1121 1162.38 31.2163 Q1167.24 36.3204 1167.24 46.6907 Z" fill="#000000" fill-rule="evenodd" fill-opacity="1" /><path clip-path="url(#clip170)" d="M1220.31 45.1919 L1220.31 72.576 L1212.86 72.576 L1212.86 45.4349 Q1212.86 38.994 1210.35 35.7938 Q1207.83 32.5936 1202.81 32.5936 Q1196.77 32.5936 1193.29 36.4419 Q1189.81 40.2903 1189.81 46.9338 L1189.81 72.576 L1182.31 72.576 L1182.31 27.2059 L1189.81 27.2059 L1189.81 34.2544 Q1192.48 30.163 1196.09 28.1376 Q1199.73 26.1121 1204.47 26.1121 Q1212.29 26.1121 1216.3 30.9732 Q1220.31 35.7938 1220.31 45.1919 Z" fill="#000000" fill-rule="evenodd" fill-opacity="1" /><path clip-path="url(#clip170)" d="M1287.84 34.1734 Q1286.58 33.4443 1285.08 33.1202 Q1283.63 32.7556 1281.84 32.7556 Q1275.52 32.7556 1272.12 36.8875 Q1268.76 40.9789 1268.76 48.6757 L1268.76 72.576 L1261.26 72.576 L1261.26 27.2059 L1268.76 27.2059 L1268.76 34.2544 Q1271.11 30.1225 1274.88 28.1376 Q1278.64 26.1121 1284.03 26.1121 Q1284.8 26.1121 1285.73 26.2337 Q1286.66 26.3147 1287.8 26.5172 L1287.84 34.1734 Z" fill="#000000" fill-rule="evenodd" fill-opacity="1" /><path clip-path="url(#clip170)" d="M1332.64 48.0275 L1332.64 51.6733 L1298.37 51.6733 Q1298.86 59.3701 1302.99 63.421 Q1307.16 67.4314 1314.57 67.4314 Q1318.87 67.4314 1322.88 66.3781 Q1326.93 65.3249 1330.9 63.2184 L1330.9 70.267 Q1326.89 71.9684 1322.68 72.8596 Q1318.46 73.7508 1314.13 73.7508 Q1303.27 73.7508 1296.91 67.4314 Q1290.59 61.1119 1290.59 50.3365 Q1290.59 39.1965 1296.59 32.6746 Q1302.62 26.1121 1312.83 26.1121 Q1321.99 26.1121 1327.29 32.0264 Q1332.64 37.9003 1332.64 48.0275 M1325.19 45.84 Q1325.11 39.7232 1321.74 36.0774 Q1318.42 32.4315 1312.91 32.4315 Q1306.68 32.4315 1302.91 35.9558 Q1299.18 39.4801 1298.61 45.8805 L1325.19 45.84 Z" fill="#000000" fill-rule="evenodd" fill-opacity="1" /><path clip-path="url(#clip170)" d="M1373.8 28.5427 L1373.8 35.5912 Q1370.64 33.9709 1367.24 33.1607 Q1363.83 32.3505 1360.19 32.3505 Q1354.64 32.3505 1351.84 34.0519 Q1349.09 35.7533 1349.09 39.156 Q1349.09 41.7486 1351.07 43.2475 Q1353.06 44.7058 1359.05 46.0426 L1361.61 46.6097 Q1369.55 48.3111 1372.87 51.4303 Q1376.23 54.509 1376.23 60.0587 Q1376.23 66.3781 1371.21 70.0644 Q1366.22 73.7508 1357.47 73.7508 Q1353.83 73.7508 1349.86 73.0216 Q1345.93 72.3329 1341.55 70.9151 L1341.55 63.2184 Q1345.69 65.3654 1349.7 66.4591 Q1353.71 67.5124 1357.64 67.5124 Q1362.9 67.5124 1365.74 65.73 Q1368.57 63.9071 1368.57 60.6258 Q1368.57 57.5877 1366.51 55.9673 Q1364.48 54.3469 1357.55 52.8481 L1354.96 52.2405 Q1348.04 50.7821 1344.96 47.7845 Q1341.88 44.7463 1341.88 39.4801 Q1341.88 33.0797 1346.41 29.5959 Q1350.95 26.1121 1359.3 26.1121 Q1363.43 26.1121 1367.07 26.7198 Q1370.72 27.3274 1373.8 28.5427 Z" fill="#000000" fill-rule="evenodd" fill-opacity="1" /><path clip-path="url(#clip170)" d="M1414.47 9.54393 L1421.92 9.54393 L1421.92 72.576 L1414.47 72.576 L1414.47 9.54393 Z" fill="#000000" fill-rule="evenodd" fill-opacity="1" /><path clip-path="url(#clip170)" d="M1437.52 27.2059 L1444.97 27.2059 L1444.97 72.576 L1437.52 72.576 L1437.52 27.2059 M1437.52 9.54393 L1444.97 9.54393 L1444.97 18.9825 L1437.52 18.9825 L1437.52 9.54393 Z" fill="#000000" fill-rule="evenodd" fill-opacity="1" /><path clip-path="url(#clip170)" d="M1483.54 9.54393 L1483.54 15.7418 L1476.41 15.7418 Q1472.4 15.7418 1470.82 17.3622 Q1469.28 18.9825 1469.28 23.1955 L1469.28 27.2059 L1481.55 27.2059 L1481.55 32.9987 L1469.28 32.9987 L1469.28 72.576 L1461.78 72.576 L1461.78 32.9987 L1454.66 32.9987 L1454.66 27.2059 L1461.78 27.2059 L1461.78 24.0462 Q1461.78 16.471 1465.31 13.0277 Q1468.83 9.54393 1476.49 9.54393 L1483.54 9.54393 Z" fill="#000000" fill-rule="evenodd" fill-opacity="1" /><path clip-path="url(#clip170)" d="M1528.58 48.0275 L1528.58 51.6733 L1494.31 51.6733 Q1494.8 59.3701 1498.93 63.421 Q1503.1 67.4314 1510.52 67.4314 Q1514.81 67.4314 1518.82 66.3781 Q1522.87 65.3249 1526.84 63.2184 L1526.84 70.267 Q1522.83 71.9684 1518.62 72.8596 Q1514.41 73.7508 1510.07 73.7508 Q1499.22 73.7508 1492.86 67.4314 Q1486.54 61.1119 1486.54 50.3365 Q1486.54 39.1965 1492.53 32.6746 Q1498.57 26.1121 1508.78 26.1121 Q1517.93 26.1121 1523.24 32.0264 Q1528.58 37.9003 1528.58 48.0275 M1521.13 45.84 Q1521.05 39.7232 1517.69 36.0774 Q1514.37 32.4315 1508.86 32.4315 Q1502.62 32.4315 1498.85 35.9558 Q1495.12 39.4801 1494.56 45.8805 L1521.13 45.84 Z" fill="#000000" fill-rule="evenodd" fill-opacity="1" /><path clip-path="url(#clip172)" d="
M237.067 1386.4 L239.196 1385.99 L241.775 1385.58 L243.677 1385.18 L244.951 1384.77 L245.011 1384.36 L245.716 1383.95 L246.398 1383.54 L247.387 1383.13 L247.677 1382.72 
  L248.015 1382.31 L251.723 1381.9 L252.604 1381.48 L253.702 1381.06 L256 1380.65 L256.239 1380.23 L256.415 1379.81 L257.61 1379.39 L258.596 1378.97 L259.79 1378.55 
  L259.921 1378.13 L260.406 1377.7 L262.472 1377.28 L262.931 1376.85 L263.172 1376.43 L263.235 1376 L265.328 1375.57 L268.158 1375.13 L269.478 1374.7 L269.629 1374.27 
  L270.279 1373.83 L270.782 1373.39 L272.435 1372.95 L273.019 1372.51 L273.441 1372.07 L273.534 1371.62 L273.559 1371.18 L273.755 1370.73 L274.571 1370.28 L274.905 1369.83 
  L275.21 1369.38 L275.807 1368.93 L276.583 1368.47 L276.835 1368.02 L277.566 1367.56 L278.333 1367.1 L279.519 1366.65 L280.423 1366.19 L280.828 1365.72 L281.413 1365.26 
  L282.801 1364.8 L282.848 1364.33 L284.344 1363.87 L285.01 1363.4 L285.254 1362.93 L287.187 1362.47 L287.475 1362 L289.126 1361.52 L289.289 1361.05 L290.985 1360.57 
  L291.348 1360.1 L293.636 1359.62 L295.56 1359.14 L297.11 1358.66 L297.721 1358.19 L298.332 1357.7 L298.702 1357.22 L298.831 1356.74 L299.185 1356.26 L301.511 1355.77 
  L303.145 1355.28 L304.57 1354.8 L306.011 1354.31 L308.204 1353.82 L308.837 1353.33 L309.823 1352.84 L309.99 1352.35 L313.815 1351.86 L314.07 1351.36 L314.519 1350.87 
  L315.752 1350.37 L317.499 1349.88 L318.217 1349.38 L323.261 1348.88 L323.62 1348.38 L325.217 1347.88 L326.894 1347.37 L327.497 1346.87 L329.226 1346.36 L329.459 1345.85 
  L331.131 1345.34 L331.181 1344.84 L335.244 1344.33 L335.773 1343.82 L336.435 1343.31 L337.058 1342.79 L338.599 1342.28 L339.24 1341.76 L339.49 1341.24 L341.58 1340.73 
  L347.016 1340.21 L347.219 1339.69 L348.963 1339.17 L350.843 1338.65 L351.131 1338.12 L351.722 1337.6 L352.792 1337.07 L354.796 1336.54 L358.344 1336.02 L358.588 1335.49 
  L358.804 1334.95 L360.849 1334.42 L363.28 1333.88 L363.659 1333.34 L365.367 1332.81 L367.962 1332.26 L368.862 1331.72 L370.572 1331.18 L371.941 1330.63 L372.434 1330.09 
  L373.472 1329.55 L374.135 1329 L374.208 1328.46 L376.123 1327.91 L376.163 1327.36 L379.093 1326.82 L380.479 1326.27 L384.598 1325.72 L387.17 1325.17 L389.034 1324.61 
  L389.068 1324.06 L391.419 1323.5 L394.287 1322.93 L395.319 1322.37 L401.464 1321.81 L401.511 1321.24 L401.583 1320.68 L402.993 1320.11 L404.588 1319.56 L404.613 1319 
  L404.934 1318.44 L405.697 1317.87 L408.623 1317.31 L409.792 1316.74 L410.579 1316.17 L414.372 1315.6 L416.615 1315.03 L425.535 1314.46 L427.399 1313.89 L428.578 1313.31 
  L428.893 1312.73 L429.822 1312.15 L431.646 1311.57 L432.094 1310.99 L435.019 1310.41 L435.262 1309.83 L441.337 1309.24 L441.895 1308.65 L441.993 1308.07 L443.288 1307.48 
  L443.885 1306.9 L447.857 1306.31 L447.911 1305.72 L450.06 1305.14 L453.239 1304.55 L453.889 1303.96 L456.275 1303.37 L459.564 1302.78 L461.697 1302.18 L466.704 1301.58 
  L467.192 1300.98 L467.241 1300.38 L475.036 1299.77 L476.962 1299.16 L477.81 1298.55 L478.313 1297.95 L479.471 1297.34 L479.725 1296.73 L481.074 1296.11 L481.427 1295.49 
  L482.108 1294.87 L483.873 1294.25 L485.196 1293.62 L490.96 1292.99 L493.536 1292.36 L495.045 1291.74 L495.174 1291.11 L495.743 1290.48 L497.31 1289.85 L497.724 1289.21 
  L498.292 1288.57 L501.529 1287.93 L502.37 1287.28 L504.245 1286.63 L507.772 1285.99 L512.587 1285.34 L513.905 1284.69 L514.302 1284.04 L515.934 1283.39 L516.194 1282.73 
  L516.428 1282.07 L516.457 1281.41 L517.032 1280.74 L525.63 1280.08 L527.53 1279.41 L528.105 1278.75 L528.669 1278.07 L530.369 1277.4 L534.022 1276.72 L534.538 1276.05 
  L535.059 1275.38 L536.018 1274.7 L541.692 1274.02 L542.869 1273.34 L543.598 1272.66 L545.095 1271.97 L545.32 1271.28 L552.007 1270.6 L552.353 1269.9 L559.008 1269.22 
  L559.882 1268.53 L560.118 1267.83 L561.456 1267.13 L563.822 1266.43 L565.783 1265.72 L570.151 1265.02 L571.192 1264.32 L571.743 1263.61 L579.108 1262.89 L579.168 1262.17 
  L579.916 1261.45 L581.154 1260.73 L581.682 1260.01 L584.784 1259.28 L589.637 1258.54 L593.081 1257.8 L593.279 1257.06 L593.429 1256.32 L593.622 1255.57 L595.536 1254.82 
  L599.25 1254.07 L600.536 1253.32 L601.08 1252.57 L601.732 1251.83 L604.993 1251.07 L605.495 1250.32 L606.652 1249.57 L607.074 1248.82 L612.447 1248.06 L616.584 1247.29 
  L618.119 1246.52 L623.351 1245.74 L627.818 1244.96 L629.057 1244.19 L632.734 1243.4 L635.788 1242.62 L637.926 1241.83 L638.991 1241.03 L639.075 1240.23 L639.196 1239.42 
  L640.13 1238.62 L644.919 1237.82 L648.073 1237.02 L648.876 1236.22 L650.211 1235.41 L651.837 1234.6 L652.477 1233.78 L656.375 1232.96 L656.71 1232.13 L661.632 1231.29 
  L665.098 1230.45 L670.627 1229.6 L674.157 1228.76 L675.556 1227.91 L675.855 1227.06 L677.111 1226.22 L677.883 1225.38 L679.083 1224.54 L679.155 1223.69 L683.453 1222.84 
  L683.673 1221.99 L687.894 1221.13 L692.827 1220.27 L693.666 1219.4 L703.113 1218.54 L703.256 1217.67 L711.629 1216.79 L712.708 1215.92 L712.87 1215.03 L717.832 1214.14 
  L718.831 1213.24 L722.102 1212.33 L723.022 1211.42 L729.399 1210.49 L730.243 1209.56 L730.32 1208.62 L735.393 1207.67 L735.675 1206.72 L736.609 1205.77 L738.503 1204.83 
  L739.503 1203.88 L740.1 1202.93 L740.292 1201.97 L740.585 1201.01 L741.457 1200.04 L745.856 1199.07 L746.212 1198.08 L753.159 1197.09 L759.371 1196.09 L761.468 1195.09 
  L763.299 1194.07 L769.043 1193.05 L770.249 1192.02 L772.123 1190.97 L773.838 1189.93 L773.904 1188.88 L777.804 1187.81 L778.28 1186.75 L779.417 1185.68 L782.65 1184.6 
  L783.32 1183.51 L784.501 1182.43 L786.488 1181.34 L788.037 1180.24 L793.135 1179.12 L793.301 1177.99 L798.797 1176.85 L800.616 1175.73 L802.815 1174.59 L804.346 1173.45 
  L811.976 1172.31 L813.791 1171.17 L813.984 1170.03 L814.475 1168.88 L815 1167.72 L817.341 1166.54 L829.724 1165.37 L830.088 1164.18 L832.374 1162.98 L841.341 1161.76 
  L844.688 1160.54 L850.508 1159.29 L851.144 1158.03 L853.192 1156.76 L853.41 1155.48 L861.454 1154.18 L862.162 1152.89 L863.181 1151.59 L864.774 1150.28 L866.334 1148.97 
  L866.859 1147.65 L866.905 1146.32 L871.742 1144.98 L872.6 1143.62 L875.227 1142.24 L882.662 1140.83 L885.246 1139.42 L887.613 1138.01 L897.35 1136.59 L898.158 1135.18 
  L900.884 1133.76 L904.397 1132.31 L906.114 1130.83 L906.318 1129.34 L906.627 1127.82 L910.596 1126.28 L916.735 1124.73 L924.464 1123.17 L931.258 1121.59 L933.62 1119.99 
  L933.73 1118.38 L934.566 1116.75 L935.557 1115.11 L937.51 1113.46 L938.224 1111.79 L943.572 1110.14 L946.616 1108.46 L949.39 1106.79 L954.523 1105.11 L957.734 1103.41 
  L958.709 1101.69 L966.002 1099.99 L971.05 1098.27 L973.778 1096.55 L987.496 1094.83 L987.623 1093.11 L997.714 1091.43 L1002.12 1089.75 L1006.43 1088.03 L1011.14 1086.3 
  L1022.74 1084.56 L1027.82 1082.83 L1033.16 1081.08 L1044.42 1079.31 L1051.71 1077.57 L1068.07 1075.79 L1075.76 1073.97 L1076.75 1072.19 L1079.81 1070.39 L1088.56 1068.54 
  L1098.01 1066.67 L1102.5 1064.79 L1107.11 1062.86 L1121.7 1060.91 L1121.99 1059 L1122.24 1057.05 L1138.52 1055.15 L1142.73 1053.23 L1142.98 1051.26 L1147.09 1049.29 
  L1154.23 1047.28 L1154.41 1045.21 L1159.77 1043.1 L1175.83 1040.95 L1178.02 1038.76 L1197.58 1036.53 L1201.2 1034.28 L1202.85 1031.98 L1212.44 1029.63 L1213.36 1027.25 
  L1214.54 1024.84 L1218.01 1022.37 L1221.42 1019.81 L1226.25 1017.33 L1228.73 1014.81 L1237.12 1012.31 L1240.31 1009.76 L1244.38 1007.14 L1250.81 1004.43 L1258.14 1001.73 
  L1259.65 998.957 L1260.02 996.108 L1283.49 993.331 L1290.12 990.505 L1304.14 987.632 L1309.02 984.691 L1312.88 981.89 L1313.39 978.969 L1327.85 975.916 L1331.97 972.746 
  L1335.98 969.44 L1357.88 965.992 L1365.39 962.433 L1373.53 958.697 L1379.72 954.788 L1408.82 951.18 L1409.46 947.519 L1409.51 943.708 L1412.03 939.712 L1413.65 935.512 
  L1415.54 931.168 L1421.41 926.727 L1422.01 922.177 L1424.22 917.325 L1468.93 912.136 L1481.49 906.683 L1486.26 900.862 L1489.2 894.632 L1491.99 888.025 L1500.79 881.001 
  L1514.03 873.438 L1527.13 865.513 L1527.54 857.495 L1527.67 849.196 L1534.89 840.252 L1537.62 830.769 L1540.35 821.758 L1547.9 813.657 L1555.84 804.703 L1560.3 796.24 
  L1577.27 787.823 L1609.5 779.209 L1633.7 769.285 L1643.96 759.88 L1663.04 750.01 L1725.15 740.532 L1801.43 730.616 L1807.81 718.832 L1866.14 710.878 L1906.92 702.466 
  L1939.89 692.529 L1941.77 681.136 L2001.81 666.192 L2033.7 645.031 L2089.06 626.685 L2123.95 597.941 L2133.41 569.613 L2259.68 511.762 L2291.13 283.209 L2291.13 210.744 
  L2259.68 160.256 L2133.41 224.535 L2123.95 282.074 L2089.06 329.09 L2033.7 368.896 L2001.81 403.367 L1941.77 433.251 L1939.89 459.105 L1906.92 481.833 L1866.14 501.884 
  L1807.81 519.941 L1801.43 537.63 L1725.15 553.76 L1663.04 568.808 L1643.96 583.169 L1633.7 596.714 L1609.5 609.838 L1577.27 622.043 L1560.3 633.712 L1555.84 644.984 
  L1547.9 656.068 L1540.35 666.546 L1537.62 677.056 L1534.89 687.495 L1527.67 697.558 L1527.54 707.201 L1527.13 716.552 L1514.03 725.692 L1500.79 734.53 L1491.99 742.993 
  L1489.2 751.125 L1486.26 758.943 L1481.49 766.431 L1468.93 773.607 L1424.22 780.52 L1422.01 787.136 L1421.41 793.475 L1415.54 799.637 L1413.65 805.637 L1412.03 811.456 
  L1409.51 817.063 L1409.46 822.473 L1408.82 827.707 L1379.72 832.825 L1373.53 838.027 L1365.39 843.06 L1357.88 847.922 L1335.98 852.65 L1331.97 857.23 L1327.85 861.667 
  L1313.39 865.972 L1312.88 870.138 L1309.02 874.175 L1304.14 878.241 L1290.12 882.216 L1283.49 886.113 L1260.02 889.933 L1259.65 893.751 L1258.14 897.481 L1250.81 901.125 
  L1244.38 904.737 L1240.31 908.254 L1237.12 911.693 L1228.73 915.063 L1226.25 918.409 L1221.42 921.699 L1218.01 925.009 L1214.54 928.238 L1213.36 931.393 L1212.44 934.503 
  L1202.85 937.565 L1201.2 940.571 L1197.58 943.52 L1178.02 946.434 L1175.83 949.291 L1159.77 952.103 L1154.41 954.865 L1154.23 957.579 L1147.09 960.238 L1142.98 962.843 
  L1142.73 965.428 L1138.52 967.965 L1122.24 970.461 L1121.99 972.978 L1121.7 975.452 L1107.11 977.933 L1102.5 980.384 L1098.01 982.787 L1088.56 985.168 L1079.81 987.517 
  L1076.75 989.821 L1075.76 992.096 L1068.07 994.383 L1051.71 996.629 L1044.42 998.833 L1033.16 1001.05 L1027.82 1003.23 L1022.74 1005.4 L1011.14 1007.55 L1006.43 1009.69 
  L1002.12 1011.81 L997.714 1013.9 L987.623 1015.97 L987.496 1018.05 L973.778 1020.13 L971.05 1022.2 L966.002 1024.25 L958.709 1026.29 L957.734 1028.33 L954.523 1030.35 
  L949.39 1032.35 L946.616 1034.33 L943.572 1036.3 L938.224 1038.25 L937.51 1040.21 L935.557 1042.14 L934.566 1044.06 L933.73 1045.97 L933.62 1047.86 L931.258 1049.72 
  L924.464 1051.57 L916.735 1053.41 L910.596 1055.22 L906.627 1057.02 L906.318 1058.8 L906.114 1060.56 L904.397 1062.3 L900.884 1064.01 L898.158 1065.7 L897.35 1067.38 
  L887.613 1069.05 L885.246 1070.71 L882.662 1072.37 L875.227 1074.02 L872.6 1075.64 L871.742 1077.25 L866.905 1078.83 L866.859 1080.41 L866.334 1081.97 L864.774 1083.51 
  L863.181 1085.06 L862.162 1086.59 L861.454 1088.11 L853.41 1089.63 L853.192 1091.13 L851.144 1092.62 L850.508 1094.1 L844.688 1095.57 L841.341 1097.01 L832.374 1098.45 
  L830.088 1099.87 L829.724 1101.27 L817.341 1102.66 L815 1104.05 L814.475 1105.43 L813.984 1106.79 L813.791 1108.14 L811.976 1109.48 L804.346 1110.82 L802.815 1112.16 
  L800.616 1113.49 L798.797 1114.81 L793.301 1116.14 L793.135 1117.46 L788.037 1118.76 L786.488 1120.05 L784.501 1121.33 L783.32 1122.6 L782.65 1123.87 L779.417 1125.13 
  L778.28 1126.38 L777.804 1127.62 L773.904 1128.86 L773.838 1130.08 L772.123 1131.3 L770.249 1132.52 L769.043 1133.72 L763.299 1134.91 L761.468 1136.1 L759.371 1137.28 
  L753.159 1138.44 L746.212 1139.6 L745.856 1140.75 L741.457 1141.89 L740.585 1143.03 L740.292 1144.15 L740.1 1145.27 L739.503 1146.39 L738.503 1147.5 L736.609 1148.6 
  L735.675 1149.7 L735.393 1150.8 L730.32 1151.9 L730.243 1152.99 L729.399 1154.07 L723.022 1155.15 L722.102 1156.21 L718.831 1157.27 L717.832 1158.31 L712.87 1159.36 
  L712.708 1160.39 L711.629 1161.41 L703.256 1162.44 L703.113 1163.45 L693.666 1164.46 L692.827 1165.47 L687.894 1166.47 L683.673 1167.46 L683.453 1168.45 L679.155 1169.44 
  L679.083 1170.43 L677.883 1171.4 L677.111 1172.38 L675.855 1173.35 L675.556 1174.33 L674.157 1175.3 L670.627 1176.27 L665.098 1177.24 L661.632 1178.21 L656.71 1179.17 
  L656.375 1180.12 L652.477 1181.07 L651.837 1182.01 L650.211 1182.94 L648.876 1183.87 L648.073 1184.79 L644.919 1185.71 L640.13 1186.63 L639.196 1187.55 L639.075 1188.47 
  L638.991 1189.38 L637.926 1190.29 L635.788 1191.19 L632.734 1192.09 L629.057 1192.99 L627.818 1193.87 L623.351 1194.76 L618.119 1195.65 L616.584 1196.53 L612.447 1197.4 
  L607.074 1198.27 L606.652 1199.13 L605.495 1199.99 L604.993 1200.85 L601.732 1201.7 L601.08 1202.55 L600.536 1203.4 L599.25 1204.26 L595.536 1205.1 L593.622 1205.95 
  L593.429 1206.8 L593.279 1207.64 L593.081 1208.48 L589.637 1209.31 L584.784 1210.14 L581.682 1210.97 L581.154 1211.79 L579.916 1212.61 L579.168 1213.42 L579.108 1214.24 
  L571.743 1215.04 L571.192 1215.85 L570.151 1216.64 L565.783 1217.44 L563.822 1218.23 L561.456 1219.03 L560.118 1219.82 L559.882 1220.61 L559.008 1221.39 L552.353 1222.16 
  L552.007 1222.94 L545.32 1223.72 L545.095 1224.49 L543.598 1225.26 L542.869 1226.03 L541.692 1226.8 L536.018 1227.57 L535.059 1228.33 L534.538 1229.08 L534.022 1229.84 
  L530.369 1230.59 L528.669 1231.35 L528.105 1232.1 L527.53 1232.85 L525.63 1233.6 L517.032 1234.34 L516.457 1235.09 L516.428 1235.83 L516.194 1236.56 L515.934 1237.3 
  L514.302 1238.03 L513.905 1238.76 L512.587 1239.48 L507.772 1240.21 L504.245 1240.93 L502.37 1241.65 L501.529 1242.37 L498.292 1243.09 L497.724 1243.8 L497.31 1244.51 
  L495.743 1245.22 L495.174 1245.92 L495.045 1246.62 L493.536 1247.32 L490.96 1248.02 L485.196 1248.72 L483.873 1249.42 L482.108 1250.11 L481.427 1250.8 L481.074 1251.49 
  L479.725 1252.18 L479.471 1252.86 L478.313 1253.54 L477.81 1254.21 L476.962 1254.89 L475.036 1255.56 L467.241 1256.24 L467.192 1256.91 L466.704 1257.58 L461.697 1258.25 
  L459.564 1258.91 L456.275 1259.57 L453.889 1260.23 L453.239 1260.88 L450.06 1261.53 L447.911 1262.18 L447.857 1262.84 L443.885 1263.49 L443.288 1264.14 L441.993 1264.79 
  L441.895 1265.43 L441.337 1266.08 L435.262 1266.73 L435.019 1267.37 L432.094 1268.02 L431.646 1268.66 L429.822 1269.3 L428.893 1269.94 L428.578 1270.57 L427.399 1271.21 
  L425.535 1271.84 L416.615 1272.47 L414.372 1273.1 L410.579 1273.73 L409.792 1274.35 L408.623 1274.98 L405.697 1275.6 L404.934 1276.22 L404.613 1276.84 L404.588 1277.46 
  L402.993 1278.07 L401.583 1278.69 L401.511 1279.31 L401.464 1279.93 L395.319 1280.55 L394.287 1281.16 L391.419 1281.78 L389.068 1282.39 L389.034 1283 L387.17 1283.6 
  L384.598 1284.21 L380.479 1284.81 L379.093 1285.41 L376.163 1286.01 L376.123 1286.61 L374.208 1287.21 L374.135 1287.8 L373.472 1288.4 L372.434 1288.99 L371.941 1289.59 
  L370.572 1290.18 L368.862 1290.77 L367.962 1291.36 L365.367 1291.95 L363.659 1292.54 L363.28 1293.13 L360.849 1293.71 L358.804 1294.3 L358.588 1294.88 L358.344 1295.45 
  L354.796 1296.03 L352.792 1296.61 L351.722 1297.18 L351.131 1297.75 L350.843 1298.32 L348.963 1298.89 L347.219 1299.46 L347.016 1300.03 L341.58 1300.59 L339.49 1301.16 
  L339.24 1301.72 L338.599 1302.28 L337.058 1302.84 L336.435 1303.4 L335.773 1303.96 L335.244 1304.51 L331.181 1305.07 L331.131 1305.62 L329.459 1306.17 L329.226 1306.73 
  L327.497 1307.28 L326.894 1307.83 L325.217 1308.37 L323.62 1308.92 L323.261 1309.46 L318.217 1310.01 L317.499 1310.55 L315.752 1311.09 L314.519 1311.63 L314.07 1312.17 
  L313.815 1312.7 L309.99 1313.24 L309.823 1313.77 L308.837 1314.3 L308.204 1314.83 L306.011 1315.37 L304.57 1315.9 L303.145 1316.43 L301.511 1316.95 L299.185 1317.48 
  L298.831 1318 L298.702 1318.53 L298.332 1319.05 L297.721 1319.57 L297.11 1320.09 L295.56 1320.61 L293.636 1321.13 L291.348 1321.65 L290.985 1322.16 L289.289 1322.68 
  L289.126 1323.19 L287.475 1323.71 L287.187 1324.22 L285.254 1324.72 L285.01 1325.23 L284.344 1325.74 L282.848 1326.24 L282.801 1326.75 L281.413 1327.25 L280.828 1327.75 
  L280.423 1328.25 L279.519 1328.75 L278.333 1329.25 L277.566 1329.74 L276.835 1330.24 L276.583 1330.73 L275.807 1331.23 L275.21 1331.72 L274.905 1332.21 L274.571 1332.69 
  L273.755 1333.18 L273.559 1333.66 L273.534 1334.15 L273.441 1334.63 L273.019 1335.11 L272.435 1335.59 L270.782 1336.07 L270.279 1336.55 L269.629 1337.02 L269.478 1337.49 
  L268.158 1337.97 L265.328 1338.44 L263.235 1338.9 L263.172 1339.37 L262.931 1339.84 L262.472 1340.3 L260.406 1340.76 L259.921 1341.22 L259.79 1341.68 L258.596 1342.14 
  L257.61 1342.6 L256.415 1343.06 L256.239 1343.51 L256 1343.97 L253.702 1344.42 L252.604 1344.88 L251.723 1345.33 L248.015 1345.78 L247.677 1346.23 L247.387 1346.68 
  L246.398 1347.13 L245.716 1347.57 L245.011 1348.02 L244.951 1348.46 L243.677 1348.9 L241.775 1349.35 L239.196 1349.79 L237.067 1350.23  Z
  " fill="#009af9" fill-rule="evenodd" fill-opacity="0.5"/>
<polyline clip-path="url(#clip172)" style="stroke:#009af9; stroke-linecap:butt; stroke-linejoin:round; stroke-width:4; stroke-opacity:1; fill:none" points="
  237.067,1368.31 239.196,1367.89 241.775,1367.47 243.677,1367.04 244.951,1366.62 245.011,1366.19 245.716,1365.76 246.398,1365.34 247.387,1364.91 247.677,1364.48 
  248.015,1364.04 251.723,1363.61 252.604,1363.18 253.702,1362.74 256,1362.31 256.239,1361.87 256.415,1361.43 257.61,1360.99 258.596,1360.55 259.79,1360.12 
  259.921,1359.67 260.406,1359.23 262.472,1358.79 262.931,1358.34 263.172,1357.9 263.235,1357.45 265.328,1357 268.158,1356.55 269.478,1356.1 269.629,1355.64 
  270.279,1355.19 270.782,1354.73 272.435,1354.27 273.019,1353.81 273.441,1353.35 273.534,1352.89 273.559,1352.42 273.755,1351.95 274.571,1351.49 274.905,1351.02 
  275.21,1350.55 275.807,1350.08 276.583,1349.6 276.835,1349.13 277.566,1348.65 278.333,1348.18 279.519,1347.7 280.423,1347.22 280.828,1346.74 281.413,1346.25 
  282.801,1345.77 282.848,1345.29 284.344,1344.8 285.01,1344.32 285.254,1343.83 287.187,1343.34 287.475,1342.85 289.126,1342.36 289.289,1341.86 290.985,1341.37 
  291.348,1340.87 293.636,1340.38 295.56,1339.88 297.11,1339.38 297.721,1338.88 298.332,1338.38 298.702,1337.88 298.831,1337.37 299.185,1336.87 301.511,1336.36 
  303.145,1335.85 304.57,1335.35 306.011,1334.84 308.204,1334.32 308.837,1333.82 309.823,1333.3 309.99,1332.79 313.815,1332.28 314.07,1331.77 314.519,1331.25 
  315.752,1330.73 317.499,1330.21 318.217,1329.69 323.261,1329.17 323.62,1328.65 325.217,1328.13 326.894,1327.6 327.497,1327.07 329.226,1326.54 329.459,1326.01 
  331.131,1325.48 331.181,1324.95 335.244,1324.42 335.773,1323.89 336.435,1323.35 337.058,1322.82 338.599,1322.28 339.24,1321.74 339.49,1321.2 341.58,1320.66 
  347.016,1320.12 347.219,1319.57 348.963,1319.03 350.843,1318.48 351.131,1317.94 351.722,1317.39 352.792,1316.84 354.796,1316.29 358.344,1315.73 358.588,1315.18 
  358.804,1314.62 360.849,1314.07 363.28,1313.51 363.659,1312.94 365.367,1312.38 367.962,1311.81 368.862,1311.25 370.572,1310.68 371.941,1310.11 372.434,1309.54 
  373.472,1308.97 374.135,1308.4 374.208,1307.83 376.123,1307.26 376.163,1306.68 379.093,1306.11 380.479,1305.54 384.598,1304.96 387.17,1304.38 389.034,1303.81 
  389.068,1303.22 391.419,1302.64 394.287,1302.05 395.319,1301.46 401.464,1300.87 401.511,1300.28 401.583,1299.68 402.993,1299.09 404.588,1298.51 404.613,1297.92 
  404.934,1297.33 405.697,1296.74 408.623,1296.14 409.792,1295.55 410.579,1294.95 414.372,1294.35 416.615,1293.75 425.535,1293.15 427.399,1292.55 428.578,1291.94 
  428.893,1291.33 429.822,1290.72 431.646,1290.12 432.094,1289.5 435.019,1288.89 435.262,1288.28 441.337,1287.66 441.895,1287.04 441.993,1286.43 443.288,1285.81 
  443.885,1285.19 447.857,1284.57 447.911,1283.95 450.06,1283.34 453.239,1282.72 453.889,1282.1 456.275,1281.47 459.564,1280.84 461.697,1280.21 466.704,1279.58 
  467.192,1278.95 467.241,1278.31 475.036,1277.67 476.962,1277.02 477.81,1276.38 478.313,1275.74 479.471,1275.1 479.725,1274.45 481.074,1273.8 481.427,1273.15 
  482.108,1272.49 483.873,1271.83 485.196,1271.17 490.96,1270.51 493.536,1269.84 495.045,1269.18 495.174,1268.52 495.743,1267.85 497.31,1267.18 497.724,1266.51 
  498.292,1265.83 501.529,1265.15 502.37,1264.47 504.245,1263.78 507.772,1263.1 512.587,1262.41 513.905,1261.73 514.302,1261.03 515.934,1260.34 516.194,1259.65 
  516.428,1258.95 516.457,1258.25 517.032,1257.54 525.63,1256.84 527.53,1256.13 528.105,1255.42 528.669,1254.71 530.369,1253.99 534.022,1253.28 534.538,1252.56 
  535.059,1251.85 536.018,1251.13 541.692,1250.41 542.869,1249.69 543.598,1248.96 545.095,1248.23 545.32,1247.5 552.007,1246.77 552.353,1246.03 559.008,1245.3 
  559.882,1244.57 560.118,1243.82 561.456,1243.08 563.822,1242.33 565.783,1241.58 570.151,1240.83 571.192,1240.08 571.743,1239.33 579.108,1238.57 579.168,1237.8 
  579.916,1237.03 581.154,1236.26 581.682,1235.49 584.784,1234.71 589.637,1233.93 593.081,1233.14 593.279,1232.35 593.429,1231.56 593.622,1230.76 595.536,1229.96 
  599.25,1229.16 600.536,1228.36 601.08,1227.56 601.732,1226.76 604.993,1225.96 605.495,1225.16 606.652,1224.35 607.074,1223.54 612.447,1222.73 616.584,1221.91 
  618.119,1221.08 623.351,1220.25 627.818,1219.42 629.057,1218.59 632.734,1217.75 635.788,1216.9 637.926,1216.06 638.991,1215.2 639.075,1214.35 639.196,1213.49 
  640.13,1212.63 644.919,1211.76 648.073,1210.9 648.876,1210.04 650.211,1209.18 651.837,1208.3 652.477,1207.42 656.375,1206.54 656.71,1205.65 661.632,1204.75 
  665.098,1203.85 670.627,1202.94 674.157,1202.03 675.556,1201.12 675.855,1200.21 677.111,1199.3 677.883,1198.39 679.083,1197.48 679.155,1196.57 683.453,1195.65 
  683.673,1194.73 687.894,1193.8 692.827,1192.87 693.666,1191.93 703.113,1191 703.256,1190.05 711.629,1189.1 712.708,1188.15 712.87,1187.19 717.832,1186.23 
  718.831,1185.25 722.102,1184.27 723.022,1183.28 729.399,1182.28 730.243,1181.28 730.32,1180.26 735.393,1179.24 735.675,1178.21 736.609,1177.19 738.503,1176.16 
  739.503,1175.13 740.1,1174.1 740.292,1173.06 740.585,1172.02 741.457,1170.97 745.856,1169.91 746.212,1168.84 753.159,1167.77 759.371,1166.68 761.468,1165.59 
  763.299,1164.49 769.043,1163.38 770.249,1162.27 772.123,1161.14 773.838,1160 773.904,1158.87 777.804,1157.72 778.28,1156.56 779.417,1155.4 782.65,1154.24 
  783.32,1153.06 784.501,1151.88 786.488,1150.7 788.037,1149.5 793.135,1148.29 793.301,1147.06 798.797,1145.83 800.616,1144.61 802.815,1143.38 804.346,1142.14 
  811.976,1140.9 813.791,1139.66 813.984,1138.41 814.475,1137.15 815,1135.88 817.341,1134.6 829.724,1133.32 830.088,1132.02 832.374,1130.71 841.341,1129.39 
  844.688,1128.05 850.508,1126.7 851.144,1125.33 853.192,1123.95 853.41,1122.55 861.454,1121.15 862.162,1119.74 863.181,1118.33 864.774,1116.9 866.334,1115.47 
  866.859,1114.03 866.905,1112.58 871.742,1111.11 872.6,1109.63 875.227,1108.13 882.662,1106.6 885.246,1105.07 887.613,1103.53 897.35,1101.99 898.158,1100.44 
  900.884,1098.88 904.397,1097.3 906.114,1095.7 906.318,1094.07 906.627,1092.42 910.596,1090.75 916.735,1089.07 924.464,1087.37 931.258,1085.65 933.62,1083.92 
  933.73,1082.18 934.566,1080.4 935.557,1078.63 937.51,1076.83 938.224,1075.02 943.572,1073.22 946.616,1071.39 949.39,1069.57 954.523,1067.73 957.734,1065.87 
  958.709,1063.99 966.002,1062.12 971.05,1060.24 973.778,1058.34 987.496,1056.44 987.623,1054.54 997.714,1052.66 1002.12,1050.78 1006.43,1048.86 1011.14,1046.92 
  1022.74,1044.98 1027.82,1043.03 1033.16,1041.06 1044.42,1039.07 1051.71,1037.1 1068.07,1035.09 1075.76,1033.03 1076.75,1031.01 1079.81,1028.95 1088.56,1026.86 
  1098.01,1024.73 1102.5,1022.59 1107.11,1020.4 1121.7,1018.18 1121.99,1015.99 1122.24,1013.75 1138.52,1011.56 1142.73,1009.33 1142.98,1007.05 1147.09,1004.77 
  1154.23,1002.43 1154.41,1000.04 1159.77,997.601 1175.83,995.12 1178.02,992.599 1197.58,990.024 1201.2,987.425 1202.85,984.771 1212.44,982.067 1213.36,979.322 
  1214.54,976.541 1218.01,973.687 1221.42,970.752 1226.25,967.869 1228.73,964.938 1237.12,962.003 1240.31,959.007 1244.38,955.94 1250.81,952.777 1258.14,949.605 
  1259.65,946.354 1260.02,943.021 1283.49,939.722 1290.12,936.36 1304.14,932.937 1309.02,929.433 1312.88,926.014 1313.39,922.471 1327.85,918.792 1331.97,914.988 
  1335.98,911.045 1357.88,906.957 1365.39,902.746 1373.53,898.362 1379.72,893.806 1408.82,889.444 1409.46,884.996 1409.51,880.386 1412.03,875.584 1413.65,870.575 
  1415.54,865.403 1421.41,860.101 1422.01,854.657 1424.22,848.923 1468.93,842.872 1481.49,836.557 1486.26,829.903 1489.2,822.878 1491.99,815.509 1500.79,807.766 
  1514.03,799.565 1527.13,791.032 1527.54,782.348 1527.67,773.377 1534.89,763.873 1537.62,753.913 1540.35,744.152 1547.9,734.862 1555.84,724.843 1560.3,714.976 
  1577.27,704.933 1609.5,694.524 1633.7,682.999 1643.96,671.525 1663.04,659.409 1725.15,647.146 1801.43,634.123 1807.81,619.387 1866.14,606.381 1906.92,592.149 
  1939.89,575.817 1941.77,557.194 2001.81,534.779 2033.7,506.963 2089.06,477.887 2123.95,440.008 2133.41,397.074 2259.68,336.009 2291.13,246.977 
  "/>
</svg>
