<?xml version="1.0" encoding="utf-8" standalone="no"?>
<!DOCTYPE svg PUBLIC "-//W3C//DTD SVG 1.1//EN"
  "http://www.w3.org/Graphics/SVG/1.1/DTD/svg11.dtd">
<svg xmlns:xlink="http://www.w3.org/1999/xlink" width="432pt" height="288pt" viewBox="0 0 432 288" xmlns="http://www.w3.org/2000/svg" version="1.1">
 <metadata>
  <rdf:RDF xmlns:dc="http://purl.org/dc/elements/1.1/" xmlns:cc="http://creativecommons.org/ns#" xmlns:rdf="http://www.w3.org/1999/02/22-rdf-syntax-ns#">
   <cc:Work>
    <dc:type rdf:resource="http://purl.org/dc/dcmitype/StillImage"/>
    <dc:date>2022-07-07T15:34:16.994810</dc:date>
    <dc:format>image/svg+xml</dc:format>
    <dc:creator>
     <cc:Agent>
      <dc:title>Matplotlib v3.5.2, https://matplotlib.org/</dc:title>
     </cc:Agent>
    </dc:creator>
   </cc:Work>
  </rdf:RDF>
 </metadata>
 <defs>
  <style type="text/css">*{stroke-linejoin: round; stroke-linecap: butt}</style>
 </defs>
 <g id="figure_1">
  <g id="patch_1">
   <path d="M 0 288 
L 432 288 
L 432 0 
L 0 0 
z
" style="fill: #ffffff"/>
  </g>
  <g id="axes_1">
   <g id="patch_2">
    <path d="M 25.0313 273.025354 
L 429.165354 273.025354 
L 429.165354 2.834646 
L 25.0313 2.834646 
z
" style="fill: #ffffff"/>
   </g>
   <g id="matplotlib.axis_1">
    <g id="xtick_1">
     <g id="line2d_1">
      <path d="M 80.158275 273.025354 
L 80.158275 2.834646 
" clip-path="url(#pb179311ffb)" style="fill: none; stroke: #000000; stroke-opacity: 0.1; stroke-width: 0.5; stroke-linecap: square"/>
     </g>
     <g id="line2d_2">
      <defs>
       <path id="m3065c437fb" d="M 0 0 
L 0 -2.5 
" style="stroke: #000000; stroke-width: 0.5"/>
      </defs>
      <g>
       <use xlink:href="#m3065c437fb" x="80.158275" y="273.025354" style="stroke: #000000; stroke-width: 0.5"/>
      </g>
     </g>
     <g id="text_1">
      <!-- $-5$ -->
      <g transform="translate(74.238275 282.604104)scale(0.08 -0.08)">
       <defs>
        <path id="DejaVuSans-2212" d="M 678 2272 
L 4684 2272 
L 4684 1741 
L 678 1741 
L 678 2272 
z
" transform="scale(0.015625)"/>
        <path id="DejaVuSans-35" d="M 691 4666 
L 3169 4666 
L 3169 4134 
L 1269 4134 
L 1269 2991 
Q 1406 3038 1543 3061 
Q 1681 3084 1819 3084 
Q 2600 3084 3056 2656 
Q 3513 2228 3513 1497 
Q 3513 744 3044 326 
Q 2575 -91 1722 -91 
Q 1428 -91 1123 -41 
Q 819 9 494 109 
L 494 744 
Q 775 591 1075 516 
Q 1375 441 1709 441 
Q 2250 441 2565 725 
Q 2881 1009 2881 1497 
Q 2881 1984 2565 2268 
Q 2250 2553 1709 2553 
Q 1456 2553 1204 2497 
Q 953 2441 691 2322 
L 691 4666 
z
" transform="scale(0.015625)"/>
       </defs>
       <use xlink:href="#DejaVuSans-2212" transform="translate(0 0.09375)"/>
       <use xlink:href="#DejaVuSans-35" transform="translate(83.789062 0.09375)"/>
      </g>
     </g>
    </g>
    <g id="xtick_2">
     <g id="line2d_3">
      <path d="M 161.527366 273.025354 
L 161.527366 2.834646 
" clip-path="url(#pb179311ffb)" style="fill: none; stroke: #000000; stroke-opacity: 0.1; stroke-width: 0.5; stroke-linecap: square"/>
     </g>
     <g id="line2d_4">
      <g>
       <use xlink:href="#m3065c437fb" x="161.527366" y="273.025354" style="stroke: #000000; stroke-width: 0.5"/>
      </g>
     </g>
     <g id="text_2">
      <!-- $0$ -->
      <g transform="translate(158.967366 282.604104)scale(0.08 -0.08)">
       <defs>
        <path id="DejaVuSans-30" d="M 2034 4250 
Q 1547 4250 1301 3770 
Q 1056 3291 1056 2328 
Q 1056 1369 1301 889 
Q 1547 409 2034 409 
Q 2525 409 2770 889 
Q 3016 1369 3016 2328 
Q 3016 3291 2770 3770 
Q 2525 4250 2034 4250 
z
M 2034 4750 
Q 2819 4750 3233 4129 
Q 3647 3509 3647 2328 
Q 3647 1150 3233 529 
Q 2819 -91 2034 -91 
Q 1250 -91 836 529 
Q 422 1150 422 2328 
Q 422 3509 836 4129 
Q 1250 4750 2034 4750 
z
" transform="scale(0.015625)"/>
       </defs>
       <use xlink:href="#DejaVuSans-30" transform="translate(0 0.78125)"/>
      </g>
     </g>
    </g>
    <g id="xtick_3">
     <g id="line2d_5">
      <path d="M 242.896456 273.025354 
L 242.896456 2.834646 
" clip-path="url(#pb179311ffb)" style="fill: none; stroke: #000000; stroke-opacity: 0.1; stroke-width: 0.5; stroke-linecap: square"/>
     </g>
     <g id="line2d_6">
      <g>
       <use xlink:href="#m3065c437fb" x="242.896456" y="273.025354" style="stroke: #000000; stroke-width: 0.5"/>
      </g>
     </g>
     <g id="text_3">
      <!-- $5$ -->
      <g transform="translate(240.336456 282.604104)scale(0.08 -0.08)">
       <use xlink:href="#DejaVuSans-35" transform="translate(0 0.09375)"/>
      </g>
     </g>
    </g>
    <g id="xtick_4">
     <g id="line2d_7">
      <path d="M 324.265547 273.025354 
L 324.265547 2.834646 
" clip-path="url(#pb179311ffb)" style="fill: none; stroke: #000000; stroke-opacity: 0.1; stroke-width: 0.5; stroke-linecap: square"/>
     </g>
     <g id="line2d_8">
      <g>
       <use xlink:href="#m3065c437fb" x="324.265547" y="273.025354" style="stroke: #000000; stroke-width: 0.5"/>
      </g>
     </g>
     <g id="text_4">
      <!-- $10$ -->
      <g transform="translate(319.145547 282.604104)scale(0.08 -0.08)">
       <defs>
        <path id="DejaVuSans-31" d="M 794 531 
L 1825 531 
L 1825 4091 
L 703 3866 
L 703 4441 
L 1819 4666 
L 2450 4666 
L 2450 531 
L 3481 531 
L 3481 0 
L 794 0 
L 794 531 
z
" transform="scale(0.015625)"/>
       </defs>
       <use xlink:href="#DejaVuSans-31" transform="translate(0 0.78125)"/>
       <use xlink:href="#DejaVuSans-30" transform="translate(63.623047 0.78125)"/>
      </g>
     </g>
    </g>
    <g id="xtick_5">
     <g id="line2d_9">
      <path d="M 405.634638 273.025354 
L 405.634638 2.834646 
" clip-path="url(#pb179311ffb)" style="fill: none; stroke: #000000; stroke-opacity: 0.1; stroke-width: 0.5; stroke-linecap: square"/>
     </g>
     <g id="line2d_10">
      <g>
       <use xlink:href="#m3065c437fb" x="405.634638" y="273.025354" style="stroke: #000000; stroke-width: 0.5"/>
      </g>
     </g>
     <g id="text_5">
      <!-- $15$ -->
      <g transform="translate(400.514638 282.604104)scale(0.08 -0.08)">
       <use xlink:href="#DejaVuSans-31" transform="translate(0 0.09375)"/>
       <use xlink:href="#DejaVuSans-35" transform="translate(63.623047 0.09375)"/>
      </g>
     </g>
    </g>
   </g>
   <g id="matplotlib.axis_2">
    <g id="ytick_1">
     <g id="line2d_11">
      <path d="M 25.0313 265.378466 
L 429.165354 265.378466 
" clip-path="url(#pb179311ffb)" style="fill: none; stroke: #000000; stroke-opacity: 0.1; stroke-width: 0.5; stroke-linecap: square"/>
     </g>
     <g id="line2d_12">
      <defs>
       <path id="md62bb2da8a" d="M 0 0 
L 2.5 0 
" style="stroke: #000000; stroke-width: 0.5"/>
      </defs>
      <g>
       <use xlink:href="#md62bb2da8a" x="25.0313" y="265.378466" style="stroke: #000000; stroke-width: 0.5"/>
      </g>
     </g>
     <g id="text_6">
      <!-- $0.00$ -->
      <g transform="translate(3.6913 268.417841)scale(0.08 -0.08)">
       <defs>
        <path id="DejaVuSans-2e" d="M 684 794 
L 1344 794 
L 1344 0 
L 684 0 
L 684 794 
z
" transform="scale(0.015625)"/>
       </defs>
       <use xlink:href="#DejaVuSans-30" transform="translate(0 0.78125)"/>
       <use xlink:href="#DejaVuSans-2e" transform="translate(63.623047 0.78125)"/>
       <use xlink:href="#DejaVuSans-30" transform="translate(95.410156 0.78125)"/>
       <use xlink:href="#DejaVuSans-30" transform="translate(159.033203 0.78125)"/>
      </g>
     </g>
    </g>
    <g id="ytick_2">
     <g id="line2d_13">
      <path d="M 25.0313 213.987652 
L 429.165354 213.987652 
" clip-path="url(#pb179311ffb)" style="fill: none; stroke: #000000; stroke-opacity: 0.1; stroke-width: 0.5; stroke-linecap: square"/>
     </g>
     <g id="line2d_14">
      <g>
       <use xlink:href="#md62bb2da8a" x="25.0313" y="213.987652" style="stroke: #000000; stroke-width: 0.5"/>
      </g>
     </g>
     <g id="text_7">
      <!-- $0.05$ -->
      <g transform="translate(3.6913 217.027027)scale(0.08 -0.08)">
       <use xlink:href="#DejaVuSans-30" transform="translate(0 0.78125)"/>
       <use xlink:href="#DejaVuSans-2e" transform="translate(63.623047 0.78125)"/>
       <use xlink:href="#DejaVuSans-30" transform="translate(95.410156 0.78125)"/>
       <use xlink:href="#DejaVuSans-35" transform="translate(159.033203 0.78125)"/>
      </g>
     </g>
    </g>
    <g id="ytick_3">
     <g id="line2d_15">
      <path d="M 25.0313 162.596838 
L 429.165354 162.596838 
" clip-path="url(#pb179311ffb)" style="fill: none; stroke: #000000; stroke-opacity: 0.1; stroke-width: 0.5; stroke-linecap: square"/>
     </g>
     <g id="line2d_16">
      <g>
       <use xlink:href="#md62bb2da8a" x="25.0313" y="162.596838" style="stroke: #000000; stroke-width: 0.5"/>
      </g>
     </g>
     <g id="text_8">
      <!-- $0.10$ -->
      <g transform="translate(3.6913 165.636213)scale(0.08 -0.08)">
       <use xlink:href="#DejaVuSans-30" transform="translate(0 0.78125)"/>
       <use xlink:href="#DejaVuSans-2e" transform="translate(63.623047 0.78125)"/>
       <use xlink:href="#DejaVuSans-31" transform="translate(95.410156 0.78125)"/>
       <use xlink:href="#DejaVuSans-30" transform="translate(159.033203 0.78125)"/>
      </g>
     </g>
    </g>
    <g id="ytick_4">
     <g id="line2d_17">
      <path d="M 25.0313 111.206024 
L 429.165354 111.206024 
" clip-path="url(#pb179311ffb)" style="fill: none; stroke: #000000; stroke-opacity: 0.1; stroke-width: 0.5; stroke-linecap: square"/>
     </g>
     <g id="line2d_18">
      <g>
       <use xlink:href="#md62bb2da8a" x="25.0313" y="111.206024" style="stroke: #000000; stroke-width: 0.5"/>
      </g>
     </g>
     <g id="text_9">
      <!-- $0.15$ -->
      <g transform="translate(3.6913 114.245399)scale(0.08 -0.08)">
       <use xlink:href="#DejaVuSans-30" transform="translate(0 0.78125)"/>
       <use xlink:href="#DejaVuSans-2e" transform="translate(63.623047 0.78125)"/>
       <use xlink:href="#DejaVuSans-31" transform="translate(95.410156 0.78125)"/>
       <use xlink:href="#DejaVuSans-35" transform="translate(159.033203 0.78125)"/>
      </g>
     </g>
    </g>
    <g id="ytick_5">
     <g id="line2d_19">
      <path d="M 25.0313 59.81521 
L 429.165354 59.81521 
" clip-path="url(#pb179311ffb)" style="fill: none; stroke: #000000; stroke-opacity: 0.1; stroke-width: 0.5; stroke-linecap: square"/>
     </g>
     <g id="line2d_20">
      <g>
       <use xlink:href="#md62bb2da8a" x="25.0313" y="59.81521" style="stroke: #000000; stroke-width: 0.5"/>
      </g>
     </g>
     <g id="text_10">
      <!-- $0.20$ -->
      <g transform="translate(4.0913 62.854585)scale(0.08 -0.08)">
       <defs>
        <path id="DejaVuSans-32" d="M 1228 531 
L 3431 531 
L 3431 0 
L 469 0 
L 469 531 
Q 828 903 1448 1529 
Q 2069 2156 2228 2338 
Q 2531 2678 2651 2914 
Q 2772 3150 2772 3378 
Q 2772 3750 2511 3984 
Q 2250 4219 1831 4219 
Q 1534 4219 1204 4116 
Q 875 4013 500 3803 
L 500 4441 
Q 881 4594 1212 4672 
Q 1544 4750 1819 4750 
Q 2544 4750 2975 4387 
Q 3406 4025 3406 3419 
Q 3406 3131 3298 2873 
Q 3191 2616 2906 2266 
Q 2828 2175 2409 1742 
Q 1991 1309 1228 531 
z
" transform="scale(0.015625)"/>
       </defs>
       <use xlink:href="#DejaVuSans-30" transform="translate(0 0.78125)"/>
       <use xlink:href="#DejaVuSans-2e" transform="translate(63.623047 0.78125)"/>
       <use xlink:href="#DejaVuSans-32" transform="translate(89.910156 0.78125)"/>
       <use xlink:href="#DejaVuSans-30" transform="translate(153.533203 0.78125)"/>
      </g>
     </g>
    </g>
    <g id="ytick_6">
     <g id="line2d_21">
      <path d="M 25.0313 8.424396 
L 429.165354 8.424396 
" clip-path="url(#pb179311ffb)" style="fill: none; stroke: #000000; stroke-opacity: 0.1; stroke-width: 0.5; stroke-linecap: square"/>
     </g>
     <g id="line2d_22">
      <g>
       <use xlink:href="#md62bb2da8a" x="25.0313" y="8.424396" style="stroke: #000000; stroke-width: 0.5"/>
      </g>
     </g>
     <g id="text_11">
      <!-- $0.25$ -->
      <g transform="translate(4.0913 11.463771)scale(0.08 -0.08)">
       <use xlink:href="#DejaVuSans-30" transform="translate(0 0.78125)"/>
       <use xlink:href="#DejaVuSans-2e" transform="translate(63.623047 0.78125)"/>
       <use xlink:href="#DejaVuSans-32" transform="translate(89.910156 0.78125)"/>
       <use xlink:href="#DejaVuSans-35" transform="translate(153.533203 0.78125)"/>
      </g>
     </g>
    </g>
   </g>
   <g id="line2d_23">
    <path d="M 36.469056 265.378432 
L 51.741748 265.269888 
L 64.593159 264.89 
L 73.905777 264.48048 
L 78.003328 264.107452 
L 81.35587 263.583756 
L 84.708412 262.811051 
L 91.040992 261.082083 
L 93.462272 260.185915 
L 95.511048 259.198979 
L 97.746076 257.862805 
L 99.981104 256.264639 
L 102.216132 254.404024 
L 104.637413 252.086973 
L 107.803703 248.698131 
L 118.233834 237.056105 
L 120.841366 233.576217 
L 123.076395 230.217379 
L 124.938918 227.019061 
L 126.801441 223.33912 
L 128.663965 219.0998 
L 130.526488 214.247585 
L 132.202759 209.275274 
L 133.87903 203.5636 
L 135.369049 197.671515 
L 136.859068 190.827849 
L 138.349087 182.889659 
L 139.839105 173.753236 
L 141.515376 161.944761 
L 143.191647 148.455132 
L 145.054171 131.574892 
L 147.475451 107.330574 
L 152.690517 54.324831 
L 154.366788 39.786009 
L 155.670554 30.112529 
L 156.788068 23.185417 
L 157.905582 17.658857 
L 158.836844 14.200123 
L 159.581853 12.222417 
L 160.14061 11.216813 
L 160.699367 10.632904 
L 161.071872 10.483289 
L 161.444377 10.52903 
L 161.816881 10.773037 
L 162.375639 11.516407 
L 162.934396 12.71867 
L 163.679405 15.042054 
L 164.424414 18.187033 
L 165.355676 23.248452 
L 166.47319 30.889252 
L 167.776956 41.731011 
L 169.266975 56.1974 
L 171.315751 78.587888 
L 178.765845 162.795945 
L 180.442116 178.462678 
L 181.932134 190.383466 
L 183.235901 199.044052 
L 184.353415 205.071569 
L 185.284676 209.093418 
L 186.215938 212.209769 
L 186.960948 214.060981 
L 187.705957 215.35373 
L 188.264714 215.964812 
L 188.823471 216.275464 
L 189.382228 216.292132 
L 189.940985 216.021333 
L 190.499742 215.469465 
L 191.244751 214.30685 
L 191.989761 212.668171 
L 192.921022 209.966239 
L 193.852284 206.551899 
L 194.969798 201.528372 
L 196.087312 195.509464 
L 197.391079 187.268629 
L 198.881097 176.368252 
L 200.743621 160.941187 
L 207.448705 103.171817 
L 208.938724 92.967862 
L 210.24249 85.409059 
L 211.360004 80.043926 
L 212.477518 75.788396 
L 213.40878 73.151206 
L 214.153789 71.672714 
L 214.712546 70.94755 
L 215.271303 70.560511 
L 215.643808 70.493589 
L 216.016313 70.581282 
L 216.57507 71.004951 
L 217.133827 71.780917 
L 217.692584 72.909704 
L 218.437593 74.962037 
L 219.182603 77.635075 
L 220.113864 81.835764 
L 221.231378 88.098377 
L 222.535145 96.975808 
L 224.025163 108.887817 
L 226.073939 127.315483 
L 230.357743 166.296711 
L 232.406519 182.569833 
L 234.08279 194.251986 
L 235.759061 204.385624 
L 237.24908 212.077635 
L 238.739098 218.560974 
L 240.042865 223.310414 
L 241.346631 227.300584 
L 242.650398 230.655462 
L 244.140416 233.868715 
L 245.630435 236.549432 
L 247.120454 238.763612 
L 248.42422 240.331746 
L 249.727986 241.56705 
L 251.031753 242.508596 
L 252.708024 243.41067 
L 258.481846 246.214868 
L 270.215744 252.744576 
L 273.382034 254.25724 
L 279.155856 256.680357 
L 282.508398 257.927453 
L 284.929679 258.594158 
L 287.723464 259.11858 
L 303.741165 261.748649 
L 311.936268 263.519617 
L 314.916306 263.84441 
L 319.386362 264.061629 
L 328.698979 264.298146 
L 333.914045 264.470716 
L 344.71668 265.025964 
L 360.548129 265.106418 
L 368.929485 265.241356 
L 377.124588 265.374022 
L 417.727598 265.378434 
L 417.727598 265.378434 
" clip-path="url(#pb179311ffb)" style="fill: none; stroke: #009afa"/>
   </g>
   <g id="line2d_24">
    <path d="M 49.234911 265.377321 
L 66.067898 265.268617 
L 71.346038 265.019287 
L 75.197654 264.628179 
L 78.478659 264.07997 
L 81.474361 263.357928 
L 84.327409 262.443268 
L 87.180458 261.290591 
L 90.033507 259.896228 
L 93.029208 258.181386 
L 96.310214 256.03623 
L 100.019177 253.337465 
L 105.154664 249.302379 
L 112.001981 243.650577 
L 114.997682 240.898842 
L 117.137469 238.637489 
L 118.991951 236.353204 
L 120.70378 233.878174 
L 122.272956 231.22125 
L 123.842133 228.12326 
L 125.41131 224.522384 
L 126.980487 220.366326 
L 128.692316 215.152768 
L 130.404145 209.198966 
L 132.258627 201.901549 
L 134.255761 193.074327 
L 136.395547 182.563481 
L 138.820639 169.476118 
L 141.673687 152.803384 
L 151.088748 96.533262 
L 152.94323 87.402488 
L 154.512406 80.798659 
L 155.796278 76.314298 
L 156.937498 73.11079 
L 157.936065 70.962017 
L 158.791979 69.632932 
L 159.505242 68.899462 
L 160.075851 68.562615 
L 160.646461 68.450562 
L 161.217071 68.564654 
L 161.787681 68.905202 
L 162.500943 69.648107 
L 163.214205 70.739841 
L 164.070119 72.501302 
L 165.068686 75.158394 
L 166.209906 78.947457 
L 167.493778 84.092991 
L 168.920302 90.777626 
L 170.632131 99.904502 
L 172.91457 113.393315 
L 179.619235 153.979577 
L 181.473716 163.461266 
L 183.042893 170.339011 
L 184.326765 175.045294 
L 185.467984 178.458687 
L 186.466551 180.812029 
L 187.322466 182.339623 
L 188.178381 183.404476 
L 188.891643 183.934217 
L 189.462253 184.123236 
L 190.032862 184.104268 
L 190.603472 183.878992 
L 191.316734 183.31143 
L 192.029996 182.433111 
L 192.885911 180.982837 
L 193.884478 178.77191 
L 195.025697 175.612904 
L 196.309569 171.344193 
L 197.878746 165.278562 
L 199.87588 156.604015 
L 206.009935 129.302121 
L 207.579112 123.538469 
L 209.005636 119.101899 
L 210.289508 115.857793 
L 211.288075 113.863256 
L 212.286642 112.350085 
L 213.142557 111.442884 
L 213.855819 110.962716 
L 214.569081 110.73183 
L 215.282343 110.747068 
L 215.995605 111.003738 
L 216.708867 111.495773 
L 217.564782 112.386559 
L 218.420697 113.591162 
L 219.419264 115.371264 
L 220.560483 117.864909 
L 221.844355 121.201499 
L 223.413532 125.948342 
L 225.268013 132.34475 
L 227.550452 141.096697 
L 230.831458 154.671728 
L 236.394903 177.726761 
L 238.962647 187.386653 
L 241.102433 194.642516 
L 243.099568 200.672634 
L 244.954049 205.613327 
L 246.808531 209.948 
L 248.663012 213.739853 
L 250.660146 217.317904 
L 252.942585 220.923413 
L 255.795634 224.969666 
L 260.217859 230.797656 
L 266.779871 239.090446 
L 270.916792 243.978149 
L 274.483103 247.849802 
L 277.621456 250.93424 
L 280.474505 253.424993 
L 283.042249 255.369861 
L 285.46734 256.923845 
L 287.749779 258.132581 
L 290.17487 259.168037 
L 292.885267 260.077295 
L 296.308925 260.978705 
L 303.441547 262.5588 
L 310.574168 263.986373 
L 314.853741 264.616516 
L 319.133314 265.019053 
L 324.12615 265.255339 
L 331.686729 265.362272 
L 341.244442 265.377318 
L 341.244442 265.377318 
" clip-path="url(#pb179311ffb)" style="fill: none; stroke: #e36f47"/>
   </g>
   <g id="patch_3">
    <path d="M 25.0313 273.025354 
L 25.0313 2.834646 
" style="fill: none; stroke: #000000; stroke-linejoin: miter; stroke-linecap: square"/>
   </g>
   <g id="patch_4">
    <path d="M 25.0313 273.025354 
L 429.165354 273.025354 
" style="fill: none; stroke: #000000; stroke-linejoin: miter; stroke-linecap: square"/>
   </g>
   <g id="legend_1">
    <g id="patch_5">
     <path d="M 301.827854 39.119646 
L 425.165354 39.119646 
L 425.165354 6.834646 
L 301.827854 6.834646 
z
" style="fill: #ffffff; stroke: #000000; stroke-linejoin: miter"/>
    </g>
    <g id="line2d_25">
     <path d="M 308.227854 16.513396 
L 316.227854 16.513396 
L 324.227854 16.513396 
" style="fill: none; stroke: #009afa; stroke-linejoin: miter"/>
    </g>
    <g id="text_12">
     <!-- kde of model samples -->
     <g transform="translate(330.627854 19.313396)scale(0.08 -0.08)">
      <defs>
       <path id="DejaVuSans-6b" d="M 581 4863 
L 1159 4863 
L 1159 1991 
L 2875 3500 
L 3609 3500 
L 1753 1863 
L 3688 0 
L 2938 0 
L 1159 1709 
L 1159 0 
L 581 0 
L 581 4863 
z
" transform="scale(0.015625)"/>
       <path id="DejaVuSans-64" d="M 2906 2969 
L 2906 4863 
L 3481 4863 
L 3481 0 
L 2906 0 
L 2906 525 
Q 2725 213 2448 61 
Q 2172 -91 1784 -91 
Q 1150 -91 751 415 
Q 353 922 353 1747 
Q 353 2572 751 3078 
Q 1150 3584 1784 3584 
Q 2172 3584 2448 3432 
Q 2725 3281 2906 2969 
z
M 947 1747 
Q 947 1113 1208 752 
Q 1469 391 1925 391 
Q 2381 391 2643 752 
Q 2906 1113 2906 1747 
Q 2906 2381 2643 2742 
Q 2381 3103 1925 3103 
Q 1469 3103 1208 2742 
Q 947 2381 947 1747 
z
" transform="scale(0.015625)"/>
       <path id="DejaVuSans-65" d="M 3597 1894 
L 3597 1613 
L 953 1613 
Q 991 1019 1311 708 
Q 1631 397 2203 397 
Q 2534 397 2845 478 
Q 3156 559 3463 722 
L 3463 178 
Q 3153 47 2828 -22 
Q 2503 -91 2169 -91 
Q 1331 -91 842 396 
Q 353 884 353 1716 
Q 353 2575 817 3079 
Q 1281 3584 2069 3584 
Q 2775 3584 3186 3129 
Q 3597 2675 3597 1894 
z
M 3022 2063 
Q 3016 2534 2758 2815 
Q 2500 3097 2075 3097 
Q 1594 3097 1305 2825 
Q 1016 2553 972 2059 
L 3022 2063 
z
" transform="scale(0.015625)"/>
       <path id="DejaVuSans-20" transform="scale(0.015625)"/>
       <path id="DejaVuSans-6f" d="M 1959 3097 
Q 1497 3097 1228 2736 
Q 959 2375 959 1747 
Q 959 1119 1226 758 
Q 1494 397 1959 397 
Q 2419 397 2687 759 
Q 2956 1122 2956 1747 
Q 2956 2369 2687 2733 
Q 2419 3097 1959 3097 
z
M 1959 3584 
Q 2709 3584 3137 3096 
Q 3566 2609 3566 1747 
Q 3566 888 3137 398 
Q 2709 -91 1959 -91 
Q 1206 -91 779 398 
Q 353 888 353 1747 
Q 353 2609 779 3096 
Q 1206 3584 1959 3584 
z
" transform="scale(0.015625)"/>
       <path id="DejaVuSans-66" d="M 2375 4863 
L 2375 4384 
L 1825 4384 
Q 1516 4384 1395 4259 
Q 1275 4134 1275 3809 
L 1275 3500 
L 2222 3500 
L 2222 3053 
L 1275 3053 
L 1275 0 
L 697 0 
L 697 3053 
L 147 3053 
L 147 3500 
L 697 3500 
L 697 3744 
Q 697 4328 969 4595 
Q 1241 4863 1831 4863 
L 2375 4863 
z
" transform="scale(0.015625)"/>
       <path id="DejaVuSans-6d" d="M 3328 2828 
Q 3544 3216 3844 3400 
Q 4144 3584 4550 3584 
Q 5097 3584 5394 3201 
Q 5691 2819 5691 2113 
L 5691 0 
L 5113 0 
L 5113 2094 
Q 5113 2597 4934 2840 
Q 4756 3084 4391 3084 
Q 3944 3084 3684 2787 
Q 3425 2491 3425 1978 
L 3425 0 
L 2847 0 
L 2847 2094 
Q 2847 2600 2669 2842 
Q 2491 3084 2119 3084 
Q 1678 3084 1418 2786 
Q 1159 2488 1159 1978 
L 1159 0 
L 581 0 
L 581 3500 
L 1159 3500 
L 1159 2956 
Q 1356 3278 1631 3431 
Q 1906 3584 2284 3584 
Q 2666 3584 2933 3390 
Q 3200 3197 3328 2828 
z
" transform="scale(0.015625)"/>
       <path id="DejaVuSans-6c" d="M 603 4863 
L 1178 4863 
L 1178 0 
L 603 0 
L 603 4863 
z
" transform="scale(0.015625)"/>
       <path id="DejaVuSans-73" d="M 2834 3397 
L 2834 2853 
Q 2591 2978 2328 3040 
Q 2066 3103 1784 3103 
Q 1356 3103 1142 2972 
Q 928 2841 928 2578 
Q 928 2378 1081 2264 
Q 1234 2150 1697 2047 
L 1894 2003 
Q 2506 1872 2764 1633 
Q 3022 1394 3022 966 
Q 3022 478 2636 193 
Q 2250 -91 1575 -91 
Q 1294 -91 989 -36 
Q 684 19 347 128 
L 347 722 
Q 666 556 975 473 
Q 1284 391 1588 391 
Q 1994 391 2212 530 
Q 2431 669 2431 922 
Q 2431 1156 2273 1281 
Q 2116 1406 1581 1522 
L 1381 1569 
Q 847 1681 609 1914 
Q 372 2147 372 2553 
Q 372 3047 722 3315 
Q 1072 3584 1716 3584 
Q 2034 3584 2315 3537 
Q 2597 3491 2834 3397 
z
" transform="scale(0.015625)"/>
       <path id="DejaVuSans-61" d="M 2194 1759 
Q 1497 1759 1228 1600 
Q 959 1441 959 1056 
Q 959 750 1161 570 
Q 1363 391 1709 391 
Q 2188 391 2477 730 
Q 2766 1069 2766 1631 
L 2766 1759 
L 2194 1759 
z
M 3341 1997 
L 3341 0 
L 2766 0 
L 2766 531 
Q 2569 213 2275 61 
Q 1981 -91 1556 -91 
Q 1019 -91 701 211 
Q 384 513 384 1019 
Q 384 1609 779 1909 
Q 1175 2209 1959 2209 
L 2766 2209 
L 2766 2266 
Q 2766 2663 2505 2880 
Q 2244 3097 1772 3097 
Q 1472 3097 1187 3025 
Q 903 2953 641 2809 
L 641 3341 
Q 956 3463 1253 3523 
Q 1550 3584 1831 3584 
Q 2591 3584 2966 3190 
Q 3341 2797 3341 1997 
z
" transform="scale(0.015625)"/>
       <path id="DejaVuSans-70" d="M 1159 525 
L 1159 -1331 
L 581 -1331 
L 581 3500 
L 1159 3500 
L 1159 2969 
Q 1341 3281 1617 3432 
Q 1894 3584 2278 3584 
Q 2916 3584 3314 3078 
Q 3713 2572 3713 1747 
Q 3713 922 3314 415 
Q 2916 -91 2278 -91 
Q 1894 -91 1617 61 
Q 1341 213 1159 525 
z
M 3116 1747 
Q 3116 2381 2855 2742 
Q 2594 3103 2138 3103 
Q 1681 3103 1420 2742 
Q 1159 2381 1159 1747 
Q 1159 1113 1420 752 
Q 1681 391 2138 391 
Q 2594 391 2855 752 
Q 3116 1113 3116 1747 
z
" transform="scale(0.015625)"/>
      </defs>
      <use xlink:href="#DejaVuSans-6b"/>
      <use xlink:href="#DejaVuSans-64" x="57.910156"/>
      <use xlink:href="#DejaVuSans-65" x="121.386719"/>
      <use xlink:href="#DejaVuSans-20" x="182.910156"/>
      <use xlink:href="#DejaVuSans-6f" x="214.697266"/>
      <use xlink:href="#DejaVuSans-66" x="275.878906"/>
      <use xlink:href="#DejaVuSans-20" x="311.083984"/>
      <use xlink:href="#DejaVuSans-6d" x="342.871094"/>
      <use xlink:href="#DejaVuSans-6f" x="440.283203"/>
      <use xlink:href="#DejaVuSans-64" x="501.464844"/>
      <use xlink:href="#DejaVuSans-65" x="564.941406"/>
      <use xlink:href="#DejaVuSans-6c" x="626.464844"/>
      <use xlink:href="#DejaVuSans-20" x="654.248047"/>
      <use xlink:href="#DejaVuSans-73" x="686.035156"/>
      <use xlink:href="#DejaVuSans-61" x="738.134766"/>
      <use xlink:href="#DejaVuSans-6d" x="799.414062"/>
      <use xlink:href="#DejaVuSans-70" x="896.826172"/>
      <use xlink:href="#DejaVuSans-6c" x="960.302734"/>
      <use xlink:href="#DejaVuSans-65" x="988.085938"/>
      <use xlink:href="#DejaVuSans-73" x="1049.609375"/>
     </g>
    </g>
    <g id="line2d_26">
     <path d="M 308.227854 28.255896 
L 316.227854 28.255896 
L 324.227854 28.255896 
" style="fill: none; stroke: #e36f47; stroke-linejoin: miter"/>
    </g>
    <g id="text_13">
     <!-- kde of true data -->
     <g transform="translate(330.627854 31.055896)scale(0.08 -0.08)">
      <defs>
       <path id="DejaVuSans-74" d="M 1172 4494 
L 1172 3500 
L 2356 3500 
L 2356 3053 
L 1172 3053 
L 1172 1153 
Q 1172 725 1289 603 
Q 1406 481 1766 481 
L 2356 481 
L 2356 0 
L 1766 0 
Q 1100 0 847 248 
Q 594 497 594 1153 
L 594 3053 
L 172 3053 
L 172 3500 
L 594 3500 
L 594 4494 
L 1172 4494 
z
" transform="scale(0.015625)"/>
       <path id="DejaVuSans-72" d="M 2631 2963 
Q 2534 3019 2420 3045 
Q 2306 3072 2169 3072 
Q 1681 3072 1420 2755 
Q 1159 2438 1159 1844 
L 1159 0 
L 581 0 
L 581 3500 
L 1159 3500 
L 1159 2956 
Q 1341 3275 1631 3429 
Q 1922 3584 2338 3584 
Q 2397 3584 2469 3576 
Q 2541 3569 2628 3553 
L 2631 2963 
z
" transform="scale(0.015625)"/>
       <path id="DejaVuSans-75" d="M 544 1381 
L 544 3500 
L 1119 3500 
L 1119 1403 
Q 1119 906 1312 657 
Q 1506 409 1894 409 
Q 2359 409 2629 706 
Q 2900 1003 2900 1516 
L 2900 3500 
L 3475 3500 
L 3475 0 
L 2900 0 
L 2900 538 
Q 2691 219 2414 64 
Q 2138 -91 1772 -91 
Q 1169 -91 856 284 
Q 544 659 544 1381 
z
M 1991 3584 
L 1991 3584 
z
" transform="scale(0.015625)"/>
      </defs>
      <use xlink:href="#DejaVuSans-6b"/>
      <use xlink:href="#DejaVuSans-64" x="57.910156"/>
      <use xlink:href="#DejaVuSans-65" x="121.386719"/>
      <use xlink:href="#DejaVuSans-20" x="182.910156"/>
      <use xlink:href="#DejaVuSans-6f" x="214.697266"/>
      <use xlink:href="#DejaVuSans-66" x="275.878906"/>
      <use xlink:href="#DejaVuSans-20" x="311.083984"/>
      <use xlink:href="#DejaVuSans-74" x="342.871094"/>
      <use xlink:href="#DejaVuSans-72" x="382.080078"/>
      <use xlink:href="#DejaVuSans-75" x="423.193359"/>
      <use xlink:href="#DejaVuSans-65" x="486.572266"/>
      <use xlink:href="#DejaVuSans-20" x="548.095703"/>
      <use xlink:href="#DejaVuSans-64" x="579.882812"/>
      <use xlink:href="#DejaVuSans-61" x="643.359375"/>
      <use xlink:href="#DejaVuSans-74" x="704.638672"/>
      <use xlink:href="#DejaVuSans-61" x="743.847656"/>
     </g>
    </g>
   </g>
  </g>
 </g>
 <defs>
  <clipPath id="pb179311ffb">
   <rect x="25.0313" y="2.834646" width="404.134055" height="270.190709"/>
  </clipPath>
 </defs>
</svg>
